<?xml version="1.0" encoding="utf-8"?>
<!-- Generator: Adobe Illustrator 21.1.0, SVG Export Plug-In . SVG Version: 6.00 Build 0)  -->
<svg version="1.1" id="Layer_1" xmlns="http://www.w3.org/2000/svg" xmlns:xlink="http://www.w3.org/1999/xlink" x="0px" y="0px"
	 viewBox="0 0 704 169" style="enable-background:new 0 0 704 169;" xml:space="preserve">
<style type="text/css">
	.st0{filter:url(#filter-2);}
	.st1{fill:#157A9E;}
	.st2{fill:#444444;}
</style>
<filter  filterUnits="objectBoundingBox" height="147.3%" id="filter-2" width="105.3%" x="-1.8%" y="-15.8%">
	<feOffset  dx="6" dy="6" in="SourceAlpha" result="shadowOffsetOuter1"></feOffset>
	<feGaussianBlur  in="shadowOffsetOuter1" result="shadowBlurOuter1" stdDeviation="5"></feGaussianBlur>
	<feColorMatrix  in="shadowBlurOuter1" type="matrix" values="0 0 0 0 1   0 0 0 0 1   0 0 0 0 1  0 0 0 0.5 0"></feColorMatrix>
</filter>
<title>Group 16</title>
<desc>Created with Sketch.</desc>
<g id="Page-1">
	<g id="Desktop-HD" transform="translate(-85.000000, -215.000000)">
		<g id="slide3" transform="translate(-15.000000, 98.000000)">
			<g id="Group-13">
				<g id="Group-14" transform="translate(93.000000, 120.000000)">
					<g id="Group-16" transform="translate(8.000000, 0.000000)">
						<g id="no-insurance_x3F_">
							<g class="st0">
								<path id="path-1_2_" d="M40.7,23.2c-6.8,0-12.2,3-15.7,8.3v-7.4H3.6V76H25V50.3c0-5,2.7-8.3,6.8-8.3c3.7,0,6.2,2.8,6.2,7.1
									V76h21.3V42.9C59.3,30.9,51.6,23.2,40.7,23.2z M93.8,23.4c17.8,0,29.3,10.4,29.3,26.7s-11.5,26.8-29.3,26.8
									S64.5,66.2,64.5,50S76,23.4,93.8,23.4z M93.8,40.2c-4.7,0-7.8,4-7.8,10.1s3,10.1,7.8,10.1c4.7,0,7.8-4,7.8-10.1
									S98.6,40.2,93.8,40.2z M169,0.9c-5.1,0-8.6,3.6-8.6,8.7c0,5,3.5,8.6,8.6,8.6c5.1,0,8.6-3.6,8.6-8.6
									C177.6,4.5,174.1,0.9,169,0.9z M158.2,24.1V76h21.3V24.1H158.2z M227.1,23.2c-6.8,0-12.2,3-15.7,8.3v-7.4H190V76h21.3V50.3
									c0-5,2.7-8.3,6.8-8.3c3.7,0,6.2,2.8,6.2,7.1V76h21.3V42.9C245.7,30.9,238,23.2,227.1,23.2z M293,42.9l7-13.2
									c-7.8-4.4-15.8-6.5-24.1-6.5c-13.8,0-22.9,7-22.9,17.9c0,17.5,26.4,15.6,26.4,20.1c0,0.9-1.2,1.5-3.2,1.5
									c-5.8,0-12.2-2.2-19.2-6.5l-6.5,13.3c7.2,4.9,15.7,7.4,25.3,7.4c14.3,0,23.5-6.9,23.5-17.6c0-17.5-26.9-15.6-26.9-20.4
									c0-1,1.1-1.7,2.9-1.7C279.5,37.2,285.4,39.1,293,42.9z M339,24.1v25.7c0,5-2.5,8.3-6.4,8.3c-3.4,0-5.7-2.8-5.7-7.1V24.1
									h-21.3v33.1c0,12,7.5,19.7,18.1,19.7c6.6,0,11.9-2.9,15.3-8.2V76h21.3V24.1H339z M392.2,31.7v-7.6h-21.3V76h21.3V51.2
									c0-6.8,6.3-10.2,15.8-8.8V23.2C401.3,23.2,395.8,26.3,392.2,31.7z M438.5,23.2c15,0,23.9,7,23.9,19.3V76h-21v-5.6
									c-3,4.2-8,6.5-14.6,6.5c-11,0-17.4-6.5-17.4-16.3c0-10.2,6.9-15.7,20.1-15.8h11.9c-0.1-3.6-2.8-5.7-8.1-5.7
									c-3.9,0-9.9,1.1-15.7,3.3l-4.7-14.2C421.7,25,430.8,23.2,438.5,23.2z M434.2,63.4c2.8,0,5.5-1.4,7.2-4v-4.7H434
									c-2.9,0-4.6,1.4-4.6,4.2C429.4,61.7,431.2,63.4,434.2,63.4z M508.5,23.2c-6.8,0-12.2,3-15.7,8.3v-7.4h-21.3V76h21.3V50.3
									c0-5,2.7-8.3,6.8-8.3c3.7,0,6.2,2.8,6.2,7.1V76h21.3V42.9C527.1,30.9,519.4,23.2,508.5,23.2z M567.3,45.5l17-7.2
									c-4.3-9.5-13.3-15-24.6-15c-16.6,0-27.4,10.6-27.4,26.9c0,16,10.7,26.5,27.2,26.5c11.9,0,21-5.3,24.8-14.5l-17.3-8
									c-1.1,3.9-3.3,5.6-6.4,5.6c-4.2,0-6.8-3.8-6.8-9.7c0-5.8,2.7-9.6,6.8-9.6C563.7,40.6,565.9,42.4,567.3,45.5z M612.2,23.4
									c18.1,0,28.7,12.3,27.6,31.5h-33.8c1.4,4.1,4.5,6.2,8.6,6.2c3.6,0,7.3-1.6,10.5-4.6l11.1,10.9c-5.5,6.1-13.5,9.5-23.5,9.5
									c-17.7,0-28.3-10.4-28.3-26.5C584.5,33.9,595.5,23.4,612.2,23.4z M618.5,45c0.3-4.3-2.4-7.4-6.1-7.4s-6,3-6.8,7.4H618.5z
									 M641.5,32.8h16.3c0-5.1,1.6-7.5,5.1-7.5c2.8,0,4.2,1.2,4.2,4c0,7.3-10.4,8.8-10.4,23h15.8c0-10,14.2-12.7,14.2-26.5
									c0-10.9-8.1-17.3-21.8-17.3C650.1,8.6,641.5,17.6,641.5,32.8z M664.2,57.3c-5.7,0-9.7,4-9.7,9.7c0,5.8,4,9.8,9.7,9.8
									c5.8,0,9.8-4,9.8-9.8C674,61.3,670,57.3,664.2,57.3z"/>
							</g>
							<g>
								<path id="path-1_1_" class="st1" d="M40.7,23.2c-6.8,0-12.2,3-15.7,8.3v-7.4H3.6V76H25V50.3c0-5,2.7-8.3,6.8-8.3
									c3.7,0,6.2,2.8,6.2,7.1V76h21.3V42.9C59.3,30.9,51.6,23.2,40.7,23.2z M93.8,23.4c17.8,0,29.3,10.4,29.3,26.7
									s-11.5,26.8-29.3,26.8S64.5,66.2,64.5,50S76,23.4,93.8,23.4z M93.8,40.2c-4.7,0-7.8,4-7.8,10.1s3,10.1,7.8,10.1
									c4.7,0,7.8-4,7.8-10.1S98.6,40.2,93.8,40.2z M169,0.9c-5.1,0-8.6,3.6-8.6,8.7c0,5,3.5,8.6,8.6,8.6c5.1,0,8.6-3.6,8.6-8.6
									C177.6,4.5,174.1,0.9,169,0.9z M158.2,24.1V76h21.3V24.1H158.2z M227.1,23.2c-6.8,0-12.2,3-15.7,8.3v-7.4H190V76h21.3V50.3
									c0-5,2.7-8.3,6.8-8.3c3.7,0,6.2,2.8,6.2,7.1V76h21.3V42.9C245.7,30.9,238,23.2,227.1,23.2z M293,42.9l7-13.2
									c-7.8-4.4-15.8-6.5-24.1-6.5c-13.8,0-22.9,7-22.9,17.9c0,17.5,26.4,15.6,26.4,20.1c0,0.9-1.2,1.5-3.2,1.5
									c-5.8,0-12.2-2.2-19.2-6.5l-6.5,13.3c7.2,4.9,15.7,7.4,25.3,7.4c14.3,0,23.5-6.9,23.5-17.6c0-17.5-26.9-15.6-26.9-20.4
									c0-1,1.1-1.7,2.9-1.7C279.5,37.2,285.4,39.1,293,42.9z M339,24.1v25.7c0,5-2.5,8.3-6.4,8.3c-3.4,0-5.7-2.8-5.7-7.1V24.1
									h-21.3v33.1c0,12,7.5,19.7,18.1,19.7c6.6,0,11.9-2.9,15.3-8.2V76h21.3V24.1H339z M392.2,31.7v-7.6h-21.3V76h21.3V51.2
									c0-6.8,6.3-10.2,15.8-8.8V23.2C401.3,23.2,395.8,26.3,392.2,31.7z M438.5,23.2c15,0,23.9,7,23.9,19.3V76h-21v-5.6
									c-3,4.2-8,6.5-14.6,6.5c-11,0-17.4-6.5-17.4-16.3c0-10.2,6.9-15.7,20.1-15.8h11.9c-0.1-3.6-2.8-5.7-8.1-5.7
									c-3.9,0-9.9,1.1-15.7,3.3l-4.7-14.2C421.7,25,430.8,23.2,438.5,23.2z M434.2,63.4c2.8,0,5.5-1.4,7.2-4v-4.7H434
									c-2.9,0-4.6,1.4-4.6,4.2C429.4,61.7,431.2,63.4,434.2,63.4z M508.5,23.2c-6.8,0-12.2,3-15.7,8.3v-7.4h-21.3V76h21.3V50.3
									c0-5,2.7-8.3,6.8-8.3c3.7,0,6.2,2.8,6.2,7.1V76h21.3V42.9C527.1,30.9,519.4,23.2,508.5,23.2z M567.3,45.5l17-7.2
									c-4.3-9.5-13.3-15-24.6-15c-16.6,0-27.4,10.6-27.4,26.9c0,16,10.7,26.5,27.2,26.5c11.9,0,21-5.3,24.8-14.5l-17.3-8
									c-1.1,3.9-3.3,5.6-6.4,5.6c-4.2,0-6.8-3.8-6.8-9.7c0-5.8,2.7-9.6,6.8-9.6C563.7,40.6,565.9,42.4,567.3,45.5z M612.2,23.4
									c18.1,0,28.7,12.3,27.6,31.5h-33.8c1.4,4.1,4.5,6.2,8.6,6.2c3.6,0,7.3-1.6,10.5-4.6l11.1,10.9c-5.5,6.1-13.5,9.5-23.5,9.5
									c-17.7,0-28.3-10.4-28.3-26.5C584.5,33.9,595.5,23.4,612.2,23.4z M618.5,45c0.3-4.3-2.4-7.4-6.1-7.4s-6,3-6.8,7.4H618.5z
									 M641.5,32.8h16.3c0-5.1,1.6-7.5,5.1-7.5c2.8,0,4.2,1.2,4.2,4c0,7.3-10.4,8.8-10.4,23h15.8c0-10,14.2-12.7,14.2-26.5
									c0-10.9-8.1-17.3-21.8-17.3C650.1,8.6,641.5,17.6,641.5,32.8z M664.2,57.3c-5.7,0-9.7,4-9.7,9.7c0,5.8,4,9.8,9.7,9.8
									c5.8,0,9.8-4,9.8-9.8C674,61.3,670,57.3,664.2,57.3z"/>
							</g>
						</g>
						<g>
							<path class="st2" d="M668.3,95.6c-3.8,0-10.1,16.4-15.3,29.9c-1.5,4-3.9,9.9-3.9,13.3c5.2-7.6,20.6-37.7,20.6-41.6
								C669.7,96.3,669.1,95.6,668.3,95.6z"/>
							<path class="st2" d="M208.2,115.8c2.2,0,4.5-2,4.5-3.8c0-1.6-0.9-2.2-2.3-2.2c-2.2,0-5.1,1.7-5.1,3.6
								C205.3,115.1,206.6,115.8,208.2,115.8z"/>
							<path class="st2" d="M134.8,122.3c-5.5,0-9.7,5.7-12.1,10.3c1-4.5,1.6-8.1,1.6-9.5c0-1.6-1-3.2-3.4-3.2
								c-1.1,0-1.3,0.3-1.3,1.2c-3.4,28.1-6.2,30.3-9.5,41.9c-0.1,0.3,1,2.7,2.2,2.7c0.3,0,0.6-0.1,0.8-0.3
								c1.6-1.5,5.3-14.5,8.6-28.5c1.8-4.1,6.7-11.3,11.6-11.3c2.8,0,4,2.5,4,5.4c0,7.1-6.8,15.3-14.3,15.3c-1,0-1.8,0-1.8,0.3
								c0,0.6,1.6,1.3,4.1,1.3c9.7,0,16.5-10.3,16.5-17.6C141.8,125.5,138.9,122.3,134.8,122.3z"/>
							<path class="st2" d="M619.9,115.8c2.2,0,4.5-2,4.5-3.8c0-1.6-0.9-2.2-2.3-2.2c-2.2,0-5.1,1.7-5.1,3.6
								C617,115.1,618.4,115.8,619.9,115.8z"/>
							<path class="st2" d="M86.7,145.3c-1.1,0-2.1-0.4-2.1-2.1c0-2.9,3.5-7.6,3.5-11.8c0-6-7.1-7.1-7.1-9.7c0-0.3,0.8-2.1,0.8-2.6
								s0-1.7-1-1.7c-0.8,0-2.9,2-2.9,4.8c0,0.7,0.3,1.3,0.7,1.7c-1.5,4.4-3.2,8.2-4.5,10.9l0,0c-3.4,7.2-8.8,11.3-11.7,11.3
								c-1.7,0-2.3-1.1-2.3-2.8c0-4.7,4.7-13.6,4.7-14.4c0-1.2-2.6-1.7-3.4-1.8c-2.7,5.2-8.4,18.3-12.7,18.3c-2.3,0-2.5-3.5-2.5-4.7
								c0-4.7,3.2-11.7,4.7-14.1c-0.8-0.8-2.1-1.4-2.6-1.4c-2.1,0-6.2,10.6-6.2,15.9c0,3.8,2.1,7.1,5.2,7.1c3.5,0,6.6-4.1,9.2-8.7
								c-0.3,1.2-0.5,2.4-0.5,3.5c0,2.9,1.2,5.2,4.9,5.2c4.5,0,10-4.3,13.2-10.8c1.5-2.8,3.8-7.6,5.7-12.4c1.8,1.3,3.9,2.3,3.9,5.3
								c0,3.7-3.9,9-3.9,13.1c0,2.7,2,4.5,5.1,4.5c5.9,0,12-6.3,14.6-12.2l-0.9-0.7C96.8,138.9,91.1,145.3,86.7,145.3z"/>
							<path class="st2" d="M34.7,99.1c-4.6,0-12.7,8.5-12.7,13.4c0,1.5,1,2.9,3.4,3.4c1.1-5.2,6-15,9.5-15c2.4,0,3.2,5.8,3.2,9.7
								c0,16.6-9.4,39.1-22.5,39.1c-6.6,0-9.4-6.5-9.4-14c0-17,14.2-39.2,26.2-39.2h0.8c-1-0.6-2.5-0.8-4.2-0.8
								c-13.4,0-29,21.1-29,39.1c0,10.5,5.5,17.4,13.4,17.4c11.3,0,27.2-14,27.2-39.5C40.7,107.2,39.5,99.1,34.7,99.1z"/>
							<path class="st2" d="M442.7,146.6c-2.8,0-3.9-1.5-3.9-5.6c0-5,1.7-10.3,3.8-15.3h1.1c3.1,0,7.2-0.3,12.3-0.8v-1.3
								c-3.5,0.4-6.9,0.4-10,0.4h-2.6c4.1-8.6,9.3-15.9,9.3-18.3c0-1-0.8-1.5-1.5-1.5c-2.9,0-8.3,9.6-12.2,19.7
								c-1.3-0.1-2.4-0.2-3.1-0.3v1.3c0.8,0.3,1.6,0.4,2.5,0.6c-2.4,6.4-4.1,12.7-4.1,16.9c0,4.6,2.2,6.9,6.2,6.9
								c6.6,0,12.9-5.9,16.2-13.9l-0.9-0.7C452.4,142,447.5,146.6,442.7,146.6z"/>
							<path class="st2" d="M644.7,134.7c-3.6,7.4-8.5,12-13.3,12c-2.8,0-3.9-1.5-3.9-5.6c0-5,1.7-10.3,3.9-15.3h1
								c3.2,0,7.2-0.3,12.3-0.8v-1.3c-3.5,0.4-6.9,0.4-10,0.4h-2.6c4.1-8.6,9.3-15.9,9.3-18.3c0-1-0.8-1.5-1.5-1.5
								c-2.9,0-8.3,9.6-12.2,19.7c-1.3-0.1-2.4-0.2-3.1-0.3v1.3c0.8,0.3,1.6,0.4,2.5,0.6c-1.4,3.7-2.5,7.3-3.2,10.6
								c-3.7,6.9-7.1,9.4-10.1,9.4c-2.3,0-3.4-0.8-3.4-4.2c0-6.6,7.3-15,7.3-17.4c0-1-0.7-1.5-1.5-1.5c-4.8,0-10.1,14.3-10.1,19.7
								c0,3.3,1.8,5.9,5.4,5.9c4.4,0,8.8-2.8,11.8-8c-0.1,0.9-0.2,1.7-0.2,2.5c0,4.6,2.2,6.9,6.2,6.9c6.6,0,12.9-5.9,16.2-13.9
								L644.7,134.7z"/>
							<path class="st2" d="M304.4,142.6c0.3-1.1,0.4-2.2,0.4-3.4c0-6.4-3.6-12.2-3.6-16.9c0-1.6,0.4-2.6,0.4-3.1s-0.3-0.9-1.1-0.9
								c-1.3,0-2.7,1.3-2.7,4.8v0.8c-1.8,3.7-4.1,7.1-6.9,10.1c-0.3,0.3-0.9,0.5-1.5,0.8l-0.3-0.2c-0.1,0.2-0.2,0.4-0.3,0.5
								c-1,0.6-2,1.7-2.3,3.9c-3.2,4.7-7,7.5-10.7,7.5c-2.8,0-3.9-1.5-3.9-5.6c0-5,1.7-10.3,3.9-15.3h1c3.1,0,7.2-0.3,12.3-0.8v-1.3
								c-3.5,0.4-6.9,0.4-10,0.4h-2.6c4.1-8.6,9.3-15.9,9.3-18.3c0-1-0.8-1.5-1.5-1.5c-2.9,0-8.3,9.6-12.2,19.7
								c-1.3-0.1-2.4-0.2-3.1-0.3v1.3c0.8,0.3,1.6,0.4,2.5,0.6c-1.4,3.7-2.5,7.3-3.2,10.6c-2.5,4.8-5.9,9.6-9.1,9.6
								c-1.2,0-2.1-0.7-2.1-2.7c0-3.4,2.9-6.7,2.9-11.1c0-3.1-1.5-6.3-5.2-6.3c-5.3,0-10.8,6.7-14.6,12.3c1.3-3.9,2.2-7.8,2.2-9.2
								c0-1.1-0.6-1.8-1.9-1.8c-1.3,0-2.7,0.8-3.2,1.5c0,2-0.6,4.5-1.3,7c-3.6,6.4-9.6,11.8-15.3,11.8c-4.3,0-5.5-3-5.5-5.9
								c0-0.7,0.1-1.6,0.3-2.5c8-0.8,17.4-6.4,17.4-13.6c0-3.4-2.2-4.3-4.3-4.3c-7.4,0-15.7,9.4-17.4,17.3c-3.2,5.3-6.2,7.3-8.9,7.3
								c-2.3,0-3.4-0.8-3.4-4.2c0-6.6,7.3-15,7.3-17.4c0-1-0.7-1.5-1.5-1.5c-3.3,0-6.9,7-8.8,13c-3.5,7-8.3,11.4-13,11.4
								c-2.8,0-3.9-1.5-3.9-5.6c0-5,1.7-10.3,3.8-15.3h1c3.2,0,7.2-0.3,12.3-0.8v-1.3c-3.5,0.4-6.9,0.4-10,0.4h-2.6
								c4.1-8.6,9.3-15.9,9.3-18.3c0-1-0.8-1.5-1.5-1.5c-2.9,0-8.3,9.6-12.2,19.7c-1.3-0.1-2.4-0.2-3.1-0.3v1.3
								c0.8,0.3,1.6,0.4,2.5,0.6c-1.4,3.7-2.5,7.3-3.2,10.5c-4,6.6-8.1,9.8-10.4,9.8c-1.7,0-2.4-1.7-2.4-3.1c0-3.4,4.1-8.1,4.1-9.7
								c0-1-2-1.6-2.8-1.8c-3.4,5-10.4,15.3-14.7,15.3c-1.3,0-1.9-0.8-1.9-2.7c0-6.8,7.8-19.8,14.4-19.8c2.5,0,3.4,1.8,3.4,3.9
								c0,0.8-0.1,1.7-0.3,2.5c2,0,3.4-0.7,3.4-3c0-3.2-2.7-5.2-6.4-5.2c-9.1,0-19.4,13.2-19.4,21.5c0,3.9,2.2,5.8,5.2,5.8
								c3.4,0,6.5-2.7,10.6-8.1c-0.1,0.8-0.2,1.5-0.2,2c0,2.4,1.6,4.9,5,4.9c4,0,8.6-3.3,11.8-8.5c-0.1,1-0.2,1.9-0.2,2.7
								c0,4.6,2.2,6.9,6.2,6.9c5.3,0,10.4-3.8,13.9-9.4c-0.1,0.8-0.2,1.6-0.2,2.2c0,3.3,1.8,5.9,5.4,5.9c4,0,8-2.3,10.9-6.6
								c0.1,4.4,3,7.9,8.5,7.9c5.5,0,11.1-3.3,15.1-8.9c-1,2.8-2,4.9-2,5.3c0.8,1,2.2,1.5,3.7,1.5c3.6-6.2,10.1-17.3,15.9-17.3
								c1.6,0,2.8,0.8,2.8,3.4c0,3.3-2,6.9-2,9.7c0,2.6,1.6,4.5,4.9,4.5c4.1,0,7.3-3,10-7.5c-0.1,0.9-0.2,1.7-0.2,2.4
								c0,4.6,2.2,6.9,6.2,6.9c4.7,0,9.3-3.1,12.7-7.7c0.4,3.9,2.7,8.1,8.7,8.1c4,0,7.5-1.8,9-5.8c4.2-0.6,8-3.2,9.8-8.3l-0.6-0.7
								C310.5,140,307.7,142.1,304.4,142.6z M228.3,123c1.2,0,1.5,0.6,1.5,1.6c0,6-9,11-13.9,12.7C217.7,130.7,223.8,123,228.3,123z
								 M295.3,147.1c-3.6,0-5.7-3.4-5.7-6.8c0-1.5,0.4-2.4,1.5-2.5c1.5,2.4,4.7,5,8.6,5.8C298.6,146.8,296.4,147.1,295.3,147.1z
								 M300,142.6c-4.3-0.9-7.3-3.9-8.7-6.9c2.1-2.1,4.6-5.5,6.8-9.1c0.7,3.9,2.2,8.3,2.2,12.7C300.3,140.7,300.2,141.7,300,142.6z
								"/>
							<path class="st2" d="M648.9,141.9c-1.8,0-4.1,1.3-4.1,2.9c0,1.3,1,1.9,2.2,1.9c1.8,0,3.6-1.7,3.6-3.1
								C650.7,142.4,650,141.9,648.9,141.9z"/>
							<path class="st2" d="M590.5,95.6c-3.9,0-10.2,16.4-15.3,29.9c-4.5,11.7-11.3,19.2-15.1,19.2c-1.5,0-2.5-1.3-2.5-3.4
								c0-5.4,6.7-18.5,14.2-18.5c1.3,0,2.2,0.3,2.7,1c0.1-0.4,0.1-0.6,0.1-1c0-1.5-1.1-2.2-3.1-2.2c-7,0-14.9,8.8-17.7,16.3
								c-3.7,5.7-9.3,10.3-14.5,10.3c-4.3,0-5.4-3.4-5.4-6.2c0-0.7,0.1-1.6,0.3-2.5c8-0.8,16.4-5.5,16.4-12.6c0-3.4-2.2-4.3-4.3-4.3
								c-7.3,0-14.8,8.5-16.5,16.2c-3.6,5.2-8.8,9.1-13.7,9.1c-4.3,0-5.5-3-5.5-5.9c0-0.7,0.1-1.6,0.3-2.5c8-0.8,17.4-6.4,17.4-13.6
								c0-3.4-2.2-4.3-4.3-4.3c-7.4,0-15.8,9.4-17.5,17.4c-2.3,3.9-5.2,7.4-7.9,7.4c-1.2,0-2.1-0.7-2.1-2.7c0-3.4,2.9-6.7,2.9-11.1
								c0-3.1-1.5-6.3-5.2-6.3c-5.3,0-10.8,6.7-14.6,12.3c1.3-3.9,2.2-7.8,2.2-9.2c0-1.1-0.6-1.8-1.9-1.8c-1.3,0-2.7,0.8-3.2,1.5
								c-0.1,6.1-5,16.4-5,17.2c0.8,1,2.2,1.5,3.7,1.5c3.6-6.2,10.1-17.3,15.9-17.3c1.6,0,2.8,0.8,2.8,3.4c0,3.3-2,6.9-2,9.7
								c0,2.6,1.6,4.5,4.9,4.5c3.6,0,6.6-2.4,9.1-6.1c0.1,4.4,3,7.8,8.5,7.8c5.3,0,10.8-3.2,14.8-8.5v0.4c0,4.5,2.7,8.5,8.4,8.5
								c5.3,0,11-3.4,15-8.7c-0.1,0.5-0.1,1-0.1,1.5c0,4.1,2.9,5.9,5.2,5.9c4.3,0,9.7-5.5,14.3-13c-0.8,3.2-1.3,5.9-1.3,7.5
								c0,2.5,1.1,5.2,4.6,5.2c4.8,0,10.9-5.3,13.6-12.5l-0.8-0.6c-2.9,6.4-7.9,10.4-10.8,10.4c-1.6,0-1.6-1.3-1.6-3.9
								c0-13.9,16.1-39.5,16.1-43.9C591.9,96.3,591.3,95.6,590.5,95.6z M545.9,124c1.2,0,1.6,0.8,1.6,1.8c0,6-8.1,9.8-13.1,11.5
								C536.3,130.7,541.5,124,545.9,124z M523.5,123c1.2,0,1.5,0.6,1.5,1.6c0,6-9,11-13.9,12.7C513,130.7,519,123,523.5,123z"/>
							<path class="st2" d="M431.3,110.9c-0.9,2-0.6,5.6-1.4,8.5c-0.1,0.2-0.2,0.4-0.3,0.6c-0.5,0.7-1.5,0.8-2.3,0.7
								c0.3-3.1,0.2-7.9,1.3-9.4C429.4,110.5,430.6,110.3,431.3,110.9z"/>
							<path class="st2" d="M417.2,145.6c-1.2,0-2.1-0.7-2.1-2.7c0-3.4,2.9-6.7,2.9-11.1c0-3.1-1.5-6.3-5.2-6.3
								c-5.3,0-10.9,6.7-14.6,12.3c1.3-3.9,2.2-7.8,2.2-9.2c0-1.1-0.6-1.8-1.9-1.8c-1.3,0-2.7,0.8-3.2,1.5c0,2.2-0.7,4.9-1.5,7.5
								c-1.6,3.1-3.3,4.3-5,4.3c-2.5,0-4.9-2.2-4.9-5.8c0-3.7,2.7-7.1,2.7-8.8c0-0.8-0.6-2.7-2.4-2.7c-0.2,0-0.3,0-0.5,0.1
								c-0.4-0.8-1.3-1.5-3-1.5c-6.4,0-12.9,7.9-15.7,14.9c-3,5.4-7.3,8.8-10,8.8c-1.6,0-1.6-1.3-1.6-3.9
								c0-13.9,16.1-39.5,16.1-43.9c0-0.9-0.6-1.6-1.4-1.6c-3.8,0-10.2,16.4-15.3,29.9c-4.5,11.7-11.3,19.2-15.1,19.2
								c-1.5,0-2.5-1.3-2.5-3.4c0-5.4,6.7-18.5,14.2-18.5c1.3,0,2.2,0.3,2.7,1c0.1-0.4,0.1-0.6,0.1-1c0-1.5-1.1-2.2-3.1-2.2
								c-8.7,0-18.8,13.7-18.8,21.4c0,4.1,2.9,5.9,5.2,5.9c4.3,0,9.7-5.5,14.3-13c-0.8,3.2-1.3,5.9-1.3,7.5c0,2.5,1.1,5.2,4.6,5.2
								c3.5,0,7.7-2.9,10.8-7.2c-0.1,0.5-0.1,1.1-0.1,1.6c0,3.6,2,6.1,5.6,6.1c4.9,0,9.3-4.8,12.2-11.6c1.4,3.2,4,4.9,6.6,4.9
								c1.4,0,2.8-0.5,4.3-1.8c-1.1,3-2.2,5.4-2.2,5.8c0.8,1,2.2,1.5,3.7,1.5c3.6-6.2,10.1-17.3,15.9-17.3c1.6,0,2.8,0.8,2.8,3.4
								c0,3.3-2,6.9-2,9.7c0,2.6,1.6,4.5,4.9,4.5c5.2,0,9.2-5,12.1-11.8l-0.8-0.9C424.4,139.8,420.7,145.6,417.2,145.6z
								 M380.6,130.5c0,1.6,0.1,2.9,0.4,4c-2.5,6-6.9,10.8-10,10.8c-1.7,0-2.7-1.4-2.7-3.6c0-5.3,5.7-17.6,13.6-17.6
								C381.2,125.3,380.6,127.3,380.6,130.5z"/>
						</g>
					</g>
				</g>
			</g>
		</g>
	</g>
</g>
</svg>
