<?xml version="1.0" encoding="utf-8"?>
<!-- Generator: Adobe Illustrator 21.1.0, SVG Export Plug-In . SVG Version: 6.00 Build 0)  -->
<svg version="1.1" id="Layer_1" xmlns="http://www.w3.org/2000/svg" xmlns:xlink="http://www.w3.org/1999/xlink" x="0px" y="0px"
	 viewBox="0 0 609 299" style="enable-background:new 0 0 609 299;" xml:space="preserve">
<style type="text/css">
	.st0{fill:#157A9E;}
	.st1{fill:#444444;}
	.st2{fill:#4E4E4E;}
	.st3{fill:#FFD700;}
	.st4{fill:#FFC700;}
</style>
<title>Group 11</title>
<desc>Created with Sketch.</desc>
<g id="Page-1_1_">
	<g id="Desktop-HD" transform="translate(-103.000000, -203.000000)">
		<g id="slide2" transform="translate(-15.000000, 97.000000)">
			<g id="Group-13">
				<g id="Group-11" transform="translate(118.000000, 106.000000)">
					<g id="Group-14">
						<g id="loved-my">
							<g>
								<path id="path-1_2_" d="M33.7,11.2V98H60V11.2H33.7z M104.9,33.1c22,0,36.2,12.9,36.2,32.9s-14.2,33-36.2,33
									S68.7,86,68.7,66S82.9,33.1,104.9,33.1z M104.9,53.9c-5.8,0-9.6,4.9-9.6,12.4s3.7,12.4,9.6,12.4s9.6-4.9,9.6-12.4
									S110.8,53.9,104.9,53.9z M139.9,34h27l10.2,40.1L187.5,34h26.3l-23.6,64h-26.9L139.9,34z M246.8,33.1
									c22.3,0,35.5,15.2,34,38.8h-41.7c1.8,5,5.5,7.6,10.6,7.6c4.4,0,9-2,13-5.7l13.7,13.5c-6.8,7.5-16.6,11.7-29,11.7
									c-21.9,0-34.9-12.9-34.9-32.6C212.7,46.1,226.3,33.1,246.8,33.1z M254.6,59.7c0.4-5.3-2.9-9.1-7.5-9.1s-7.4,3.7-8.4,9.1
									C238.7,59.7,254.6,59.7,254.6,59.7z M330.2,11.2h26.3V98h-26.3v-6.4c-4.1,4.8-9.7,7.4-16.3,7.4c-17.8,0-29.4-13.1-29.4-33.3
									c0-19.8,11.2-32.5,28.7-32.5c6.9,0,12.8,2.7,17,7.5L330.2,11.2L330.2,11.2z M320.7,78.7c5.7,0,9.5-4.9,9.5-12.4
									s-3.7-12.4-9.5-12.4c-5.9,0-9.6,4.9-9.6,12.4S314.8,78.7,320.7,78.7z M492.1,32.8c-9.6,0-16.8,5-20.9,13.7
									c-3.4-8.5-11-13.7-20.7-13.7c-8.3,0-14.7,3.7-19.1,10.2v-9H405v64h26.3V66.3c0-6.2,3.2-10.3,8.1-10.3c4.3,0,7.3,3.4,7.3,8.8
									V98H473V66.3c0-6.2,3.2-10.3,8.1-10.3c4.3,0,7.3,3.4,7.3,8.8V98h26.3V57.2C514.7,42.4,505.3,32.8,492.1,32.8z M567.2,102.4
									L593.5,34h-26.2l-10.4,36.5L544.3,34h-27l26.6,62l-0.9,1.5c-1.3,2.2-3.3,3.3-6.3,3.3c-3.2,0-5.7-1.2-8.5-3.7l-11,17.3
									c6.9,5.1,13.7,7.5,22.1,7.5C552.8,121.9,561.8,115.8,567.2,102.4z"/>
							</g>
							<g>
								<path id="path-1_1_" class="st0" d="M33.7,11.2V98H60V11.2H33.7z M104.9,33.1c22,0,36.2,12.9,36.2,32.9s-14.2,33-36.2,33
									S68.7,86,68.7,66S82.9,33.1,104.9,33.1z M104.9,53.9c-5.8,0-9.6,4.9-9.6,12.4s3.7,12.4,9.6,12.4s9.6-4.9,9.6-12.4
									S110.8,53.9,104.9,53.9z M139.9,34h27l10.2,40.1L187.5,34h26.3l-23.6,64h-26.9L139.9,34z M246.8,33.1
									c22.3,0,35.5,15.2,34,38.8h-41.7c1.8,5,5.5,7.6,10.6,7.6c4.4,0,9-2,13-5.7l13.7,13.5c-6.8,7.5-16.6,11.7-29,11.7
									c-21.9,0-34.9-12.9-34.9-32.6C212.7,46.1,226.3,33.1,246.8,33.1z M254.6,59.7c0.4-5.3-2.9-9.1-7.5-9.1s-7.4,3.7-8.4,9.1
									C238.7,59.7,254.6,59.7,254.6,59.7z M330.2,11.2h26.3V98h-26.3v-6.4c-4.1,4.8-9.7,7.4-16.3,7.4c-17.8,0-29.4-13.1-29.4-33.3
									c0-19.8,11.2-32.5,28.7-32.5c6.9,0,12.8,2.7,17,7.5L330.2,11.2L330.2,11.2z M320.7,78.7c5.7,0,9.5-4.9,9.5-12.4
									s-3.7-12.4-9.5-12.4c-5.9,0-9.6,4.9-9.6,12.4S314.8,78.7,320.7,78.7z M492.1,32.8c-9.6,0-16.8,5-20.9,13.7
									c-3.4-8.5-11-13.7-20.7-13.7c-8.3,0-14.7,3.7-19.1,10.2v-9H405v64h26.3V66.3c0-6.2,3.2-10.3,8.1-10.3c4.3,0,7.3,3.4,7.3,8.8
									V98H473V66.3c0-6.2,3.2-10.3,8.1-10.3c4.3,0,7.3,3.4,7.3,8.8V98h26.3V57.2C514.7,42.4,505.3,32.8,492.1,32.8z M567.2,102.4
									L593.5,34h-26.2l-10.4,36.5L544.3,34h-27l26.6,62l-0.9,1.5c-1.3,2.2-3.3,3.3-6.3,3.3c-3.2,0-5.7-1.2-8.5-3.7l-11,17.3
									c6.9,5.1,13.7,7.5,22.1,7.5C552.8,121.9,561.8,115.8,567.2,102.4z"/>
							</g>
						</g>
						<g>
							<path class="st1" d="M543.2,160.4c-2.1,0-4.6,1.5-4.6,3.3c0,1.5,1.2,2.2,2.6,2.2c2.1,0,4.2-1.9,4.2-3.5
								C545.3,160.8,544.5,160.4,543.2,160.4z"/>
							<path class="st1" d="M391.3,130.4c2.6,0,5.2-2.3,5.2-4.3c0-1.8-1-2.5-2.6-2.5c-2.6,0-5.8,1.9-5.8,4.2
								C388,129.6,389.5,130.4,391.3,130.4z"/>
							<path class="st1" d="M216.2,113.3c0-2.2-1-5.9-2.6-5.9c-4.8,0-20.5,28.3-24.1,45.5c-4.6,7.9-9.5,11.8-12.3,11.8
								c-1.9,0-2.7-1.9-2.7-3.5c0-3.8,4.6-9.3,4.6-11.1c0-1.2-2.2-1.8-3.2-2c-3.9,5.8-11.8,17.4-16.8,17.4c-1.4,0-2.2-1-2.2-3.1
								c0-7.8,9-22.6,16.5-22.6c2.9,0,3.9,2.1,3.9,4.5c0,0.9-0.2,1.9-0.4,2.8c2.3,0,3.9-0.8,3.9-3.4c0-3.6-3.1-6-7.3-6
								c-8.4,0-17.7,9.9-21,18.7c-3.8,5.9-8.3,9.5-12.9,9.5c-3.2,0-4.5-1.8-4.5-6.4c0-5.7,1.9-11.8,4.4-17.4h1.2
								c3.6,0,8.2-0.3,14.1-1v-1.4c-4,0.4-7.9,0.5-11.4,0.5h-3c4.6-9.8,10.6-18.2,10.6-21c0-1.1-0.9-1.8-1.7-1.8
								c-3.3,0-9.4,11-13.9,22.5c-1.5-0.1-2.7-0.2-3.5-0.3v1.4c0.9,0.3,1.8,0.5,2.9,0.6c-1.6,4.2-2.9,8.4-3.7,12.1
								c-2.9,5.4-6.7,10.9-10.4,10.9c-1.4,0-2.4-0.8-2.4-3c0-3.9,3.3-7.7,3.3-12.6c0-3.6-1.8-7.2-5.9-7.2c-6.1,0-12.4,7.6-16.6,14.1
								c1.4-4.4,2.6-8.9,2.6-10.6c0-1.3-0.7-2.1-2.2-2.1s-3,1-3.7,1.7c0,2.3-0.7,5.2-1.5,8c-4.1,7.4-10.9,13.4-17.5,13.4
								c-5,0-6.3-3.4-6.3-6.7c0-0.8,0.1-1.8,0.3-2.9c9.1-0.9,19.8-7.4,19.8-15.5c0-3.9-2.5-4.9-5-4.9c-8.4,0-17.9,10.7-19.9,19.7
								c-3.3,5-7.5,8-10.2,8c-1.8,0-1.8-1.4-1.8-4.5c0-15.8,18.4-45.1,18.4-50.2c0-1-0.7-1.8-1.6-1.8c-4.4,0-11.6,18.7-17.5,34.2
								c-5.1,13.4-13,22-17.3,22c-1.8,0-2.9-1.4-2.9-3.8c0-6.2,7.6-21.1,16.2-21.1c1.4,0,2.5,0.4,3,1.2c0.1-0.4,0.2-0.7,0.2-1.1
								c0-1.7-1.3-2.5-3.5-2.5c-9.9,0-21.5,15.6-21.5,24.5c0,4.7,3.3,6.7,6,6.7c4.9,0,11.1-6.3,16.3-14.9c-1,3.7-1.5,6.7-1.5,8.6
								c0,2.8,1.3,6,5.3,6c3.9,0,8.5-3.1,12-7.9l0,0c0,5.2,3.3,9.3,9.8,9.3c6.2,0,12.7-3.8,17.3-10.1c-1.2,3.2-2.2,5.6-2.2,6
								c0.9,1.2,2.6,1.8,4.2,1.8c4.2-7,11.5-19.8,18.2-19.8c1.8,0,3.2,1,3.2,3.9c0,3.8-2.3,7.8-2.3,11.1c0,3,1.8,5.1,5.6,5.1
								c4.6,0,8.4-3.4,11.4-8.6c-0.1,1-0.2,1.9-0.2,2.7c0,5.3,2.5,7.9,7.1,7.9c5.2,0,10.2-3.2,14.1-8.2c-0.1,0.6-0.1,1.1-0.1,1.7
								c0,4.5,2.6,6.6,5.9,6.6c3.9,0,7.4-3.1,12.1-9.3c-0.2,0.9-0.2,1.7-0.2,2.3c0,2.8,1.8,5.6,5.8,5.6c4.7,0,10.2-4.1,13.9-10.5
								c-0.1,0.8-0.1,1.6-0.1,2.3c0,4.7,1.8,8.2,6.4,8.2c5.8,0,10.8-5.6,15-14.7l-1.2-0.6c-2.8,6.2-7.3,12.8-11.5,12.8
								c-2.3,0-3.5-2-3.5-6.2c0-2.4,0.4-5.2,1-8.1C206.6,140.9,216.2,120.4,216.2,113.3z M213.1,113.9c0.2,0,0.6,0.2,0.6,1.3
								c0,5.4-8.8,23.4-18.1,32.7C200,132.4,211,113.9,213.1,113.9z M85.4,138.7c1.4,0,1.7,0.6,1.7,1.8c0,6.9-10.2,12.6-15.9,14.6
								C73.4,147.5,80.3,138.7,85.4,138.7z"/>
							<path class="st1" d="M530.7,160.4c-2.1,0-4.6,1.5-4.6,3.3c0,1.5,1.2,2.2,2.6,2.2c2.1,0,4.2-1.9,4.2-3.5
								C532.8,160.8,532,160.4,530.7,160.4z"/>
							<path class="st1" d="M518.2,160.4c-2.1,0-4.6,1.5-4.6,3.3c0,1.5,1.2,2.2,2.6,2.2c2.1,0,4.2-1.9,4.2-3.5
								C520.3,160.8,519.5,160.4,518.2,160.4z"/>
							<path class="st1" d="M513.5,152c-4,7.7-11.1,14.2-17.9,14.2c-5,0-6.3-3.4-6.3-6.7c0-0.8,0.1-1.8,0.3-2.9
								c9.1-0.9,19.8-7.4,19.8-15.5c0-3.9-2.5-4.9-5-4.9c-8.6,0-18.4,11.2-20.1,20.4c-3.8,6.1-9.5,9.8-14.7,9.8
								c-4.6,0-5.8-3.4-5.8-6.6c0-7.8,7.4-19.6,13.1-19.6c1.4,0,1.8,0.7,1.8,2c0,2.4-1.4,5.5-3,6.3c0.7,0.9,1.5,1.2,2.3,1.2
								c2.5,0,4-2.7,4-5.8c0-2.8-1.3-5.9-5.7-5.9c-6.9,0-14.7,7.6-16.9,16.4c-2.8,5.2-6.5,10.2-10,10.2c-1.4,0-2.4-0.8-2.4-3
								c0-3.9,3.3-7.7,3.3-12.6c0-3.6-1.8-7.2-5.9-7.2c-6.1,0-12.4,7.6-16.6,14.1c1.4-4.4,2.6-8.9,2.6-10.6c0-1.3-0.7-2.1-2.2-2.1
								s-3,1-3.7,1.7c0,2.3-0.7,5.2-1.5,8c-4.1,7.4-10.9,13.4-17.5,13.4c-5,0-6.3-3.4-6.3-6.7c0-0.8,0.1-1.8,0.3-2.9
								c9.1-0.9,19.8-7.4,19.8-15.5c0-3.9-2.5-4.9-5-4.9c-8.4,0-17.9,10.7-19.9,19.8c-3.7,6.1-7.1,8.3-10.1,8.3
								c-2.6,0-3.9-1-3.9-4.8c0-7.5,8.3-17.2,8.3-19.8c0-1.1-0.8-1.8-1.8-1.8c-4,0-8.4,9-10.4,16.1c-2.6,4.5-8.3,10.2-12.7,10.2
								c-1.3,0-2.4-0.5-2.4-2.4c0-3.4,4-8.6,4-13.5c0-6.8-8.2-8.2-8.2-11.1c0-0.3,0.9-2.4,0.9-3s0-1.9-1.1-1.9
								c-0.9,0-3.4,2.2-3.4,5.4c0,0.8,0.3,1.4,0.8,1.9c-1.8,5.4-3.9,10.1-5.5,13.1c-4.1,7.3-10.9,13.4-17.5,13.4
								c-5,0-6.3-3.4-6.3-6.7c0-0.8,0.1-1.8,0.3-2.9c9.1-0.9,19.8-7.4,19.8-15.5c0-3.9-2.5-4.9-5-4.9c-9.4,0-20.3,13.5-20.3,23
								c0,5.2,3.3,9.3,9.8,9.3c7,0,14.2-4.8,18.8-12.4l0.1,0.1c1.7-2.9,4.6-9,7.1-15.4c2,1.4,4.5,2.6,4.5,6.1c0,4.2-4.4,10.2-4.4,15
								c0,3.1,2.2,5.2,5.8,5.2c5.2,0,10.4-4.1,13.9-9.1c-0.1,0.9-0.2,1.7-0.2,2.4c0,3.8,2,6.7,6.2,6.7c4.5,0,9.1-2.7,12.5-7.6
								c0.1,5.1,3.4,9,9.8,9c6.2,0,12.7-3.8,17.3-10.1c-1.2,3.2-2.2,5.6-2.2,6c0.9,1.2,2.6,1.8,4.2,1.8c4.2-7,11.5-19.8,18.2-19.8
								c1.8,0,3.2,1,3.2,3.9c0,3.8-2.3,7.8-2.3,11.1c0,3,1.8,5.1,5.6,5.1c4.5,0,8.2-3.2,11.1-8.2c0,0.3,0,0.5,0,0.8
								c0,6.9,3.8,10.2,9,10.2c5.8,0,12-3.9,16.3-10c0.1,5.1,3.4,9,9.7,9c7.9,0,16.2-6.2,20.6-15.8L513.5,152z M504.2,138.7
								c1.4,0,1.7,0.6,1.7,1.8c0,6.9-10.2,12.6-15.9,14.6C492.2,147.5,499.1,138.7,504.2,138.7z M414.2,138.7c1.4,0,1.7,0.6,1.7,1.8
								c0,6.9-10.2,12.6-15.9,14.6C402.2,147.5,409.1,138.7,414.2,138.7z M340.2,138.7c1.4,0,1.7,0.6,1.7,1.8
								c0,6.9-10.2,12.6-15.9,14.6C328.2,147.5,335.1,138.7,340.2,138.7z"/>
							<path class="st1" d="M310.6,137.9c-6.2,0-11.1,6.5-13.8,11.8c1.1-5.2,1.8-9.3,1.8-10.8c0-1.8-1.1-3.7-3.8-3.7
								c-1.3,0-1.4,0.4-1.5,1.4c-0.8,6.8-1.6,12.3-2.4,16.9c-2.4,4.7-7.1,10.8-10.6,10.8c-3.9,0-3.7-6.9-4.3-13.4
								c5.4-6.2,10.6-11.5,12.4-11.5c0-0.6-1.5-0.9-2-0.9c-1.4,0-5.9,4.1-10.9,9.3c-0.8-4.2-2.5-7.6-6.6-7.6
								c-6.7,0-8.4,7.1-11.2,12.7c-4.1,7.3-10.9,13.4-17.5,13.4c-5,0-6.3-3.4-6.3-6.7c0-0.8,0.1-1.8,0.3-2.9
								c9.1-0.9,19.8-7.4,19.8-15.5c0-3.9-2.5-4.9-5-4.9c-9.4,0-20.3,13.5-20.3,23c0,5.2,3.3,9.3,9.8,9.3c7.5,0,15.3-5.5,19.8-14.2
								c3.2-5.8,5.5-11.1,9.3-11.1c2.5,0,3,4.3,3.5,9.3c-6.2,7-11.8,14.2-11.8,16c0,0.8,0.3,1.2,0.8,1.2c0.3,0,0.6-0.2,1-0.6
								c1.9-2.5,6-7.7,10.5-13c0.7,5.7,2.1,11,6.8,11c4.3,0,8.9-4.3,11.9-9.3c-2.6,13.2-5,17.2-7.7,26.6c-0.1,0.3,1.1,3,2.5,3
								c0.3,0,0.7-0.2,1-0.4c1.8-1.8,6.1-16.6,9.8-32.6c2-4.6,7.7-12.9,13.3-12.9c3.2,0,4.6,2.8,4.6,6.2c0,8.2-7.8,17.5-16.3,17.5
								c-1.1,0-2,0-2,0.4c0,0.6,1.8,1.4,4.6,1.4c11,0,18.9-11.8,18.9-20.1C318.6,141.6,315.3,137.9,310.6,137.9z M248.6,138.7
								c1.4,0,1.7,0.6,1.7,1.8c0,6.9-10.2,12.6-15.9,14.6C236.6,147.5,243.5,138.7,248.6,138.7z"/>
						</g>
						<path id="_x201C_" class="st0" d="M8.2,6.9l2.5-6.2H5.6L1.4,6.8C0.6,8,0,9.2,0,10.7c0,3.2,2.4,4.9,5,4.9c2.9,0,5-2.1,5-5
							C10.1,9.2,9.5,7.8,8.2,6.9z M18.9,6.9l2.5-6.2h-5.1L12,6.9c-0.8,1.1-1.3,2.4-1.3,3.9c0,3.2,2.4,4.9,5,4.9c2.9,0,5-2.1,5-5
							C20.8,9.2,20.2,7.8,18.9,6.9z"/>
						<path id="with-Dr-Nelson-_x26_-his" class="st2" d="M47.5,199.9L43.9,211h-1.6c-0.2,0-0.3-0.1-0.4-0.4l-2.5-7.6
							c-0.1-0.2-0.1-0.3-0.1-0.5s-0.1-0.3-0.1-0.5c0,0.2-0.1,0.3-0.1,0.5S39,202.8,39,203l-2.5,7.5c-0.1,0.2-0.2,0.4-0.4,0.4h-1.5
							l-3.6-11h1.5c0.2,0,0.3,0,0.4,0.1c0.1,0.1,0.2,0.2,0.2,0.3l2.1,7.2c0.1,0.5,0.2,1,0.3,1.5c0.1-0.2,0.1-0.5,0.2-0.7
							c0.1-0.2,0.1-0.5,0.2-0.8l2.4-7.2c0-0.1,0.1-0.2,0.2-0.3s0.2-0.1,0.3-0.1h0.9c0.1,0,0.3,0,0.4,0.1s0.2,0.2,0.2,0.3l2.3,7.2
							c0.1,0.3,0.2,0.5,0.2,0.8c0.1,0.2,0.1,0.5,0.2,0.7c0-0.2,0.1-0.5,0.1-0.7s0.1-0.5,0.2-0.8l2.2-7.2c0-0.1,0.1-0.2,0.2-0.3
							c0.1-0.1,0.2-0.1,0.4-0.1H47.5z M51.5,199.9V211h-2v-11.1H51.5z M52,196.4c0,0.2,0,0.4-0.1,0.5c-0.1,0.2-0.2,0.3-0.3,0.4
							c-0.1,0.1-0.3,0.2-0.5,0.3s-0.4,0.1-0.5,0.1c-0.2,0-0.4,0-0.5-0.1s-0.3-0.2-0.4-0.3c-0.1-0.1-0.2-0.3-0.3-0.4
							c-0.1-0.2-0.1-0.3-0.1-0.5s0-0.4,0.1-0.5s0.2-0.3,0.3-0.5c0.1-0.1,0.3-0.2,0.4-0.3s0.3-0.1,0.5-0.1s0.4,0,0.5,0.1
							c0.2,0.1,0.3,0.2,0.5,0.3c0.1,0.1,0.2,0.3,0.3,0.5S52,196.2,52,196.4z M58.2,211.2c-0.9,0-1.6-0.2-2-0.7
							c-0.5-0.5-0.7-1.2-0.7-2.1v-6.8h-1.3c-0.1,0-0.2,0-0.3-0.1s-0.1-0.2-0.1-0.3v-0.8l1.8-0.2l0.5-3.4c0-0.1,0.1-0.2,0.1-0.3
							s0.2-0.1,0.3-0.1h1v3.8h3.2v1.4h-3.2v6.7c0,0.5,0.1,0.8,0.3,1s0.5,0.3,0.9,0.3c0.2,0,0.4,0,0.5-0.1c0.2-0.1,0.3-0.1,0.4-0.2
							s0.2-0.1,0.3-0.2C60,209,60,209,60.1,209c0.1,0,0.2,0.1,0.3,0.2l0.6,0.9c-0.3,0.3-0.7,0.6-1.2,0.7
							C59.2,211.1,58.7,211.2,58.2,211.2z M64.6,201.3c0.5-0.5,1-0.9,1.6-1.2s1.2-0.5,2-0.5c0.6,0,1.1,0.1,1.6,0.3s0.9,0.5,1.2,0.9
							c0.3,0.4,0.5,0.8,0.7,1.3s0.2,1.1,0.2,1.7v7.1h-2v-7.1c0-0.8-0.2-1.5-0.6-2s-1-0.7-1.8-0.7c-0.6,0-1.1,0.1-1.6,0.4
							c-0.5,0.3-1,0.7-1.4,1.1v8.2h-2v-16.2h2v6.7H64.6z M94.7,203.1c0,1.2-0.2,2.3-0.6,3.2c-0.4,1-0.9,1.8-1.6,2.5S91,210,90,210.4
							c-1,0.4-2,0.6-3.2,0.6H81v-15.8h5.9c1.2,0,2.2,0.2,3.2,0.6c1,0.4,1.8,0.9,2.5,1.6c0.7,0.7,1.2,1.5,1.6,2.5
							C94.5,200.9,94.7,201.9,94.7,203.1z M92.5,203.1c0-1-0.1-1.8-0.4-2.6s-0.6-1.4-1.1-1.9s-1.1-0.9-1.8-1.2s-1.5-0.4-2.3-0.4
							h-3.8v12.3h3.8c0.9,0,1.6-0.1,2.3-0.4s1.3-0.7,1.8-1.2s0.9-1.2,1.1-1.9C92.3,205,92.5,204.1,92.5,203.1z M99.1,202.1
							c0.4-0.8,0.8-1.4,1.3-1.8s1.1-0.6,1.9-0.6c0.2,0,0.5,0,0.7,0.1s0.4,0.1,0.6,0.2l-0.1,1.5c0,0.2-0.2,0.3-0.3,0.3
							c-0.1,0-0.3,0-0.5-0.1c-0.2,0-0.4-0.1-0.7-0.1c-0.4,0-0.7,0.1-0.9,0.2c-0.3,0.1-0.5,0.3-0.7,0.5s-0.4,0.5-0.6,0.7
							c-0.2,0.3-0.3,0.6-0.5,1v7h-2v-11.1h1.1c0.2,0,0.4,0,0.4,0.1c0.1,0.1,0.1,0.2,0.2,0.4L99.1,202.1z M124.1,195.2V211H123
							c-0.2,0-0.3,0-0.4-0.1s-0.2-0.2-0.3-0.3l-9.1-11.9c0,0.2,0,0.4,0,0.5c0,0.2,0,0.3,0,0.5V211h-1.9v-15.8h1.1c0.1,0,0.2,0,0.2,0
							c0.1,0,0.1,0,0.2,0.1c0.1,0,0.1,0.1,0.2,0.1s0.1,0.1,0.2,0.2l9.1,11.9c0-0.2,0-0.4,0-0.6c0-0.2,0-0.4,0-0.5v-11.2H124.1z
							 M135.2,204.2c0-0.5-0.1-0.9-0.2-1.2c-0.1-0.4-0.3-0.7-0.6-1c-0.2-0.3-0.5-0.5-0.9-0.6c-0.4-0.2-0.8-0.2-1.2-0.2
							c-0.9,0-1.7,0.3-2.2,0.8s-0.9,1.3-1,2.3h6.1V204.2z M136.7,209.4c-0.2,0.3-0.5,0.5-0.9,0.8c-0.3,0.2-0.7,0.4-1.1,0.5
							c-0.4,0.1-0.8,0.2-1.2,0.3s-0.8,0.1-1.2,0.1c-0.8,0-1.5-0.1-2.1-0.4c-0.6-0.3-1.2-0.6-1.7-1.1s-0.8-1.1-1.1-1.9
							c-0.3-0.7-0.4-1.6-0.4-2.6c0-0.8,0.1-1.5,0.4-2.2c0.2-0.7,0.6-1.3,1-1.8s1-0.9,1.6-1.2s1.4-0.4,2.2-0.4c0.7,0,1.3,0.1,1.9,0.3
							c0.6,0.2,1.1,0.5,1.5,1c0.4,0.4,0.7,0.9,1,1.6c0.2,0.6,0.4,1.3,0.4,2.1c0,0.3,0,0.5-0.1,0.6s-0.2,0.2-0.4,0.2H129
							c0,0.7,0.1,1.3,0.3,1.8s0.4,1,0.7,1.3s0.7,0.6,1.1,0.8c0.4,0.2,0.9,0.3,1.4,0.3s0.9-0.1,1.3-0.2s0.7-0.2,0.9-0.4
							c0.3-0.1,0.5-0.3,0.6-0.4s0.3-0.2,0.4-0.2c0.2,0,0.3,0.1,0.4,0.2L136.7,209.4z M141.3,194.8V211h-2v-16.2H141.3z M151,201.7
							c-0.1,0.2-0.2,0.2-0.4,0.2c-0.1,0-0.2,0-0.4-0.1c-0.1-0.1-0.3-0.2-0.5-0.3s-0.4-0.2-0.7-0.3s-0.6-0.1-1-0.1
							c-0.3,0-0.6,0-0.9,0.1c-0.3,0.1-0.5,0.2-0.7,0.3s-0.3,0.3-0.4,0.5c-0.1,0.2-0.1,0.4-0.1,0.6c0,0.3,0.1,0.5,0.2,0.7
							c0.2,0.2,0.4,0.4,0.7,0.5s0.6,0.3,0.9,0.4c0.3,0.1,0.7,0.2,1.1,0.3c0.4,0.1,0.7,0.3,1.1,0.4s0.7,0.3,0.9,0.6s0.5,0.5,0.7,0.8
							s0.2,0.7,0.2,1.1c0,0.5-0.1,1-0.3,1.4s-0.5,0.8-0.8,1.1c-0.4,0.3-0.8,0.6-1.3,0.8s-1.1,0.3-1.8,0.3c-0.8,0-1.5-0.1-2.1-0.4
							c-0.6-0.3-1.2-0.6-1.6-1l0.5-0.7c0.1-0.1,0.1-0.2,0.2-0.2c0.1-0.1,0.2-0.1,0.3-0.1s0.3,0.1,0.4,0.2c0.1,0.1,0.3,0.2,0.5,0.3
							s0.5,0.2,0.8,0.3s0.7,0.2,1.1,0.2c0.4,0,0.7,0,1-0.1s0.5-0.2,0.7-0.4s0.3-0.4,0.4-0.6c0.1-0.2,0.1-0.5,0.1-0.7
							c0-0.3-0.1-0.6-0.2-0.8c-0.2-0.2-0.4-0.4-0.7-0.5s-0.6-0.3-0.9-0.4c-0.3-0.1-0.7-0.2-1.1-0.3c-0.4-0.1-0.7-0.3-1.1-0.4
							c-0.3-0.2-0.7-0.3-0.9-0.6c-0.3-0.2-0.5-0.5-0.7-0.8s-0.2-0.7-0.2-1.2c0-0.4,0.1-0.8,0.3-1.2s0.4-0.7,0.8-1
							c0.3-0.3,0.8-0.5,1.2-0.7c0.5-0.2,1.1-0.3,1.7-0.3c0.7,0,1.4,0.1,2,0.3s1.1,0.5,1.5,1L151,201.7z M158.7,199.7
							c0.8,0,1.5,0.1,2.2,0.4c0.7,0.3,1.2,0.7,1.7,1.2s0.8,1.1,1.1,1.8c0.2,0.7,0.4,1.5,0.4,2.4s-0.1,1.7-0.4,2.4
							c-0.2,0.7-0.6,1.3-1.1,1.8s-1,0.9-1.7,1.1c-0.7,0.3-1.4,0.4-2.2,0.4s-1.6-0.1-2.2-0.4s-1.2-0.7-1.7-1.1
							c-0.5-0.5-0.8-1.1-1.1-1.8c-0.2-0.7-0.4-1.5-0.4-2.4s0.1-1.7,0.4-2.4s0.6-1.3,1.1-1.8s1-0.9,1.7-1.2S157.9,199.7,158.7,199.7z
							 M158.7,209.6c1.1,0,1.9-0.4,2.5-1.1c0.5-0.7,0.8-1.8,0.8-3.1s-0.3-2.4-0.8-3.1c-0.5-0.7-1.4-1.1-2.5-1.1
							c-0.6,0-1,0.1-1.5,0.3c-0.4,0.2-0.8,0.5-1,0.8c-0.3,0.4-0.5,0.8-0.6,1.3s-0.2,1.1-0.2,1.8c0,1.3,0.3,2.3,0.8,3.1
							C156.8,209.3,157.6,209.6,158.7,209.6z M168.4,201.5c0.2-0.3,0.5-0.5,0.8-0.7s0.6-0.4,0.9-0.6s0.6-0.3,1-0.4
							c0.3-0.1,0.7-0.1,1.1-0.1c0.6,0,1.1,0.1,1.6,0.3s0.9,0.5,1.2,0.9s0.5,0.8,0.7,1.3s0.2,1.1,0.2,1.7v7.1h-2v-7.1
							c0-0.8-0.2-1.5-0.6-2c-0.4-0.5-1-0.7-1.8-0.7c-0.6,0-1.1,0.1-1.6,0.4c-0.5,0.3-1,0.7-1.4,1.1v8.2h-2v-11.1h1.2
							c0.3,0,0.5,0.1,0.5,0.4L168.4,201.5z M188.2,203.2c-0.8,0.4-1.4,0.9-1.8,1.5s-0.6,1.2-0.6,1.9c0,0.5,0.1,0.9,0.3,1.3
							c0.2,0.4,0.4,0.7,0.7,0.9s0.6,0.4,1,0.6c0.4,0.1,0.7,0.2,1.1,0.2c0.8,0,1.6-0.2,2.2-0.5c0.7-0.3,1.2-0.7,1.7-1.2L188.2,203.2z
							 M198.3,211h-1.9c-0.2,0-0.4,0-0.5-0.1s-0.3-0.2-0.4-0.3l-1.6-1.6c-0.7,0.7-1.5,1.2-2.4,1.6c-0.9,0.4-1.9,0.6-3,0.6
							c-0.6,0-1.2-0.1-1.7-0.3c-0.6-0.2-1.1-0.5-1.5-0.9s-0.8-0.8-1.1-1.4c-0.3-0.5-0.4-1.2-0.4-1.8c0-0.5,0.1-1,0.3-1.5
							s0.4-0.9,0.7-1.3c0.3-0.4,0.7-0.7,1.1-1c0.4-0.3,0.9-0.6,1.4-0.8c-0.4-0.6-0.8-1.1-1-1.7s-0.3-1.1-0.3-1.7
							c0-0.5,0.1-1,0.3-1.5s0.5-0.9,0.8-1.2c0.4-0.3,0.8-0.6,1.3-0.8s1.1-0.3,1.8-0.3c0.6,0,1.1,0.1,1.6,0.3s0.9,0.4,1.2,0.7
							s0.6,0.7,0.8,1.1c0.2,0.4,0.3,0.8,0.3,1.3l-1.2,0.2c-0.2,0.1-0.4-0.1-0.5-0.3s-0.1-0.4-0.2-0.6c-0.1-0.2-0.3-0.4-0.4-0.6
							s-0.4-0.3-0.6-0.4s-0.5-0.2-0.9-0.2s-0.7,0.1-1,0.2c-0.3,0.1-0.6,0.3-0.8,0.5s-0.4,0.5-0.5,0.7c-0.1,0.3-0.2,0.6-0.2,0.9
							c0,0.3,0,0.5,0.1,0.7s0.2,0.5,0.3,0.7s0.3,0.5,0.5,0.7s0.4,0.5,0.7,0.8l4.5,4.6c0.3-0.5,0.5-1,0.7-1.6
							c0.2-0.5,0.3-1.1,0.3-1.6c0-0.1,0.1-0.2,0.1-0.3c0.1-0.1,0.2-0.1,0.3-0.1h1.2c0,0.8-0.1,1.7-0.4,2.5s-0.6,1.6-1.1,2.3
							L198.3,211z M207.7,201.3c0.5-0.5,1-0.9,1.6-1.2s1.2-0.5,2-0.5c0.6,0,1.1,0.1,1.6,0.3s0.9,0.5,1.2,0.9s0.5,0.8,0.7,1.3
							s0.2,1.1,0.2,1.7v7.1h-2v-7.1c0-0.8-0.2-1.5-0.6-2c-0.4-0.5-1-0.7-1.8-0.7c-0.6,0-1.1,0.1-1.6,0.4c-0.5,0.3-1,0.7-1.4,1.1v8.2
							h-2v-16.2h2v6.7H207.7z M220.1,199.9V211h-2v-11.1H220.1z M220.5,196.4c0,0.2,0,0.4-0.1,0.5c-0.1,0.2-0.2,0.3-0.3,0.4
							c-0.1,0.1-0.3,0.2-0.5,0.3s-0.4,0.1-0.5,0.1c-0.2,0-0.4,0-0.5-0.1c-0.2-0.1-0.3-0.2-0.4-0.3c-0.1-0.1-0.2-0.3-0.3-0.4
							c-0.1-0.2-0.1-0.3-0.1-0.5s0-0.4,0.1-0.5s0.2-0.3,0.3-0.5c0.1-0.1,0.3-0.2,0.4-0.3c0.2-0.1,0.3-0.1,0.5-0.1s0.4,0,0.5,0.1
							s0.3,0.2,0.5,0.3c0.1,0.1,0.2,0.3,0.3,0.5C220.4,196,220.5,196.2,220.5,196.4z M229.8,201.7c-0.1,0.2-0.2,0.2-0.4,0.2
							c-0.1,0-0.2,0-0.4-0.1c-0.1-0.1-0.3-0.2-0.5-0.3s-0.4-0.2-0.7-0.3s-0.6-0.1-1-0.1c-0.3,0-0.6,0-0.9,0.1
							c-0.3,0.1-0.5,0.2-0.7,0.3s-0.3,0.3-0.4,0.5c-0.1,0.2-0.1,0.4-0.1,0.6c0,0.3,0.1,0.5,0.2,0.7c0.2,0.2,0.4,0.4,0.7,0.5
							s0.6,0.3,0.9,0.4c0.3,0.1,0.7,0.2,1.1,0.3s0.7,0.3,1.1,0.4c0.3,0.1,0.7,0.3,0.9,0.6c0.3,0.2,0.5,0.5,0.7,0.8s0.2,0.7,0.2,1.1
							c0,0.5-0.1,1-0.3,1.4s-0.5,0.8-0.8,1.1c-0.4,0.3-0.8,0.6-1.3,0.8s-1.1,0.3-1.8,0.3c-0.8,0-1.5-0.1-2.1-0.4
							c-0.6-0.3-1.2-0.6-1.6-1l0.5-0.7c0.1-0.1,0.1-0.2,0.2-0.2c0.1-0.1,0.2-0.1,0.3-0.1s0.3,0.1,0.4,0.2c0.1,0.1,0.3,0.2,0.5,0.3
							s0.5,0.2,0.8,0.3s0.7,0.2,1.1,0.2c0.4,0,0.7,0,1-0.1s0.5-0.2,0.7-0.4s0.3-0.4,0.4-0.6c0.1-0.2,0.1-0.5,0.1-0.7
							c0-0.3-0.1-0.6-0.2-0.8c-0.2-0.2-0.4-0.4-0.7-0.5s-0.6-0.3-0.9-0.4c-0.3-0.1-0.7-0.2-1.1-0.3c-0.4-0.1-0.7-0.3-1.1-0.4
							c-0.3-0.2-0.7-0.3-0.9-0.6s-0.5-0.5-0.7-0.8s-0.2-0.7-0.2-1.2c0-0.4,0.1-0.8,0.3-1.2s0.4-0.7,0.8-1c0.3-0.3,0.8-0.5,1.2-0.7
							c0.5-0.2,1.1-0.3,1.7-0.3c0.7,0,1.4,0.1,2,0.3s1.1,0.5,1.5,1L229.8,201.7z M244.9,201.7c-0.1,0.2-0.2,0.2-0.4,0.2
							c-0.1,0-0.2,0-0.4-0.1c-0.1-0.1-0.3-0.2-0.5-0.3s-0.4-0.2-0.7-0.3s-0.6-0.1-1-0.1c-0.3,0-0.6,0-0.9,0.1
							c-0.3,0.1-0.5,0.2-0.7,0.3s-0.3,0.3-0.4,0.5c-0.1,0.2-0.1,0.4-0.1,0.6c0,0.3,0.1,0.5,0.2,0.7c0.2,0.2,0.4,0.4,0.7,0.5
							s0.6,0.3,0.9,0.4c0.3,0.1,0.7,0.2,1.1,0.3c0.4,0.1,0.7,0.3,1.1,0.4s0.7,0.3,0.9,0.6c0.3,0.2,0.5,0.5,0.7,0.8s0.2,0.7,0.2,1.1
							c0,0.5-0.1,1-0.3,1.4s-0.5,0.8-0.8,1.1c-0.4,0.3-0.8,0.6-1.3,0.8s-1.1,0.3-1.8,0.3c-0.8,0-1.5-0.1-2.1-0.4
							c-0.6-0.3-1.2-0.6-1.6-1l0.5-0.7c0.1-0.1,0.1-0.2,0.2-0.2c0.1-0.1,0.2-0.1,0.3-0.1s0.3,0.1,0.4,0.2c0.1,0.1,0.3,0.2,0.5,0.3
							s0.5,0.2,0.8,0.3s0.7,0.2,1.1,0.2c0.4,0,0.7,0,1-0.1s0.5-0.2,0.7-0.4s0.3-0.4,0.4-0.6c0.1-0.2,0.1-0.5,0.1-0.7
							c0-0.3-0.1-0.6-0.2-0.8c-0.2-0.2-0.4-0.4-0.7-0.5s-0.6-0.3-0.9-0.4s-0.7-0.2-1.1-0.3c-0.4-0.1-0.7-0.3-1.1-0.4
							c-0.3-0.2-0.7-0.3-0.9-0.6c-0.3-0.2-0.5-0.5-0.7-0.8s-0.2-0.7-0.2-1.2c0-0.4,0.1-0.8,0.3-1.2s0.4-0.7,0.8-1
							c0.3-0.3,0.8-0.5,1.2-0.7c0.5-0.2,1.1-0.3,1.7-0.3c0.7,0,1.4,0.1,2,0.3s1.1,0.5,1.5,1L244.9,201.7z M251.4,211.2
							c-0.9,0-1.6-0.2-2-0.7c-0.5-0.5-0.7-1.2-0.7-2.1v-6.8h-1.3c-0.1,0-0.2,0-0.3-0.1s-0.1-0.2-0.1-0.3v-0.8l1.8-0.2l0.5-3.4
							c0-0.1,0.1-0.2,0.1-0.3s0.2-0.1,0.3-0.1h1v3.8h3.2v1.4h-3.2v6.7c0,0.5,0.1,0.8,0.3,1s0.5,0.3,0.9,0.3c0.2,0,0.4,0,0.5-0.1
							c0.2-0.1,0.3-0.1,0.4-0.2s0.2-0.1,0.3-0.2c0.1-0.1,0.1-0.1,0.2-0.1c0.1,0,0.2,0.1,0.3,0.2l0.6,0.9c-0.3,0.3-0.7,0.6-1.2,0.7
							C252.4,211.1,251.9,211.2,251.4,211.2z M261.9,206c-0.9,0-1.7,0.1-2.3,0.2s-1.2,0.3-1.6,0.4c-0.4,0.2-0.7,0.4-0.9,0.6
							c-0.2,0.2-0.3,0.5-0.3,0.8s0,0.5,0.1,0.8s0.2,0.4,0.4,0.5c0.2,0.1,0.4,0.2,0.6,0.3s0.5,0.1,0.7,0.1c0.3,0,0.7,0,0.9-0.1
							c0.3-0.1,0.6-0.2,0.8-0.3c0.3-0.1,0.5-0.3,0.7-0.5s0.5-0.4,0.7-0.6V206H261.9z M255.6,201.4c0.6-0.6,1.3-1,2-1.3
							s1.5-0.4,2.4-0.4c0.6,0,1.2,0.1,1.7,0.3s0.9,0.5,1.2,0.9c0.3,0.4,0.6,0.8,0.7,1.3c0.2,0.5,0.3,1.1,0.3,1.7v7.1H263
							c-0.2,0-0.3,0-0.4-0.1s-0.2-0.2-0.2-0.4l-0.2-1.1c-0.3,0.3-0.6,0.5-0.9,0.7s-0.6,0.4-0.9,0.5s-0.6,0.3-1,0.3
							c-0.3,0.1-0.7,0.1-1.2,0.1c-0.4,0-0.8-0.1-1.2-0.2c-0.4-0.1-0.7-0.3-1-0.5c-0.3-0.2-0.5-0.5-0.7-0.9s-0.2-0.8-0.2-1.3
							c0-0.4,0.1-0.9,0.4-1.3s0.6-0.8,1.2-1.1c0.5-0.3,1.3-0.6,2.1-0.8c0.9-0.2,1.9-0.3,3.2-0.3v-0.9c0-0.9-0.2-1.5-0.6-2
							c-0.4-0.4-0.9-0.7-1.6-0.7c-0.5,0-0.9,0.1-1.2,0.2c-0.3,0.1-0.6,0.3-0.8,0.4s-0.4,0.3-0.6,0.4s-0.3,0.2-0.5,0.2
							c-0.1,0-0.2,0-0.3-0.1c-0.1-0.1-0.2-0.2-0.2-0.3L255.6,201.4z M267.5,211v-9.5l-1.2-0.1c-0.2,0-0.3-0.1-0.4-0.2
							s-0.1-0.2-0.1-0.3v-0.8h1.8v-0.9c0-0.6,0.1-1.2,0.3-1.7c0.2-0.5,0.4-0.9,0.8-1.3s0.7-0.6,1.2-0.8s1-0.3,1.6-0.3
							c0.5,0,1,0.1,1.4,0.2v1c0,0.2-0.1,0.3-0.3,0.3c-0.2,0-0.4,0-0.7,0c-0.3,0-0.6,0-0.9,0.1s-0.5,0.2-0.7,0.4s-0.4,0.5-0.5,0.8
							s-0.2,0.7-0.2,1.2v0.8h5v-1.2c0-0.6,0.1-1.2,0.3-1.7c0.2-0.5,0.4-0.9,0.8-1.3c0.3-0.3,0.7-0.6,1.2-0.8s1-0.3,1.6-0.3
							c0.5,0,0.9,0.1,1.4,0.2v1c0,0.2-0.1,0.3-0.3,0.3c-0.2,0-0.4,0-0.7,0c-0.3,0-0.6,0-0.9,0.1s-0.5,0.2-0.7,0.4s-0.4,0.5-0.5,0.8
							s-0.2,0.7-0.2,1.2v1.1h3.2v1.4h-3.1v9.5h-2v-9.5h-5v9.5h-2.2V211z M283.8,195.2v6.3c0,0.3,0,0.7,0,1s0,0.6-0.1,1s0,0.6-0.1,1
							c0,0.3-0.1,0.7-0.1,1.1h-1.3c0-0.4-0.1-0.7-0.1-1.1c0-0.3-0.1-0.7-0.1-1s0-0.6-0.1-1c0-0.3,0-0.6,0-1v-6.3H283.8z
							 M281.4,209.8c0-0.2,0-0.4,0.1-0.5c0.1-0.2,0.2-0.3,0.3-0.4s0.3-0.2,0.4-0.3c0.2-0.1,0.3-0.1,0.5-0.1s0.4,0,0.5,0.1
							c0.2,0.1,0.3,0.2,0.4,0.3s0.2,0.3,0.3,0.4c0.1,0.2,0.1,0.3,0.1,0.5s0,0.4-0.1,0.5c-0.1,0.2-0.2,0.3-0.3,0.4s-0.3,0.2-0.4,0.3
							c-0.2,0.1-0.3,0.1-0.5,0.1s-0.4,0-0.5-0.1c-0.2-0.1-0.3-0.2-0.4-0.3s-0.2-0.3-0.3-0.4C281.5,210.2,281.4,210,281.4,209.8z
							 M304.1,197H299v14h-2.1v-14h-5.1v-1.8h12.3L304.1,197L304.1,197z M307.9,201.3c0.5-0.5,1-0.9,1.6-1.2s1.2-0.5,2-0.5
							c0.6,0,1.1,0.1,1.6,0.3s0.9,0.5,1.2,0.9c0.3,0.4,0.5,0.8,0.7,1.3s0.2,1.1,0.2,1.7v7.1h-2v-7.1c0-0.8-0.2-1.5-0.6-2
							s-1-0.7-1.8-0.7c-0.6,0-1.1,0.1-1.6,0.4c-0.5,0.3-1,0.7-1.4,1.1v8.2h-2v-16.2h2L307.9,201.3L307.9,201.3z M325.7,204.2
							c0-0.5-0.1-0.9-0.2-1.2c-0.1-0.4-0.3-0.7-0.6-1c-0.2-0.3-0.5-0.5-0.9-0.6c-0.4-0.2-0.8-0.2-1.2-0.2c-0.9,0-1.7,0.3-2.2,0.8
							s-0.9,1.3-1,2.3h6.1V204.2z M327.3,209.4c-0.2,0.3-0.5,0.5-0.9,0.8c-0.3,0.2-0.7,0.4-1.1,0.5s-0.8,0.2-1.2,0.3
							s-0.8,0.1-1.2,0.1c-0.8,0-1.5-0.1-2.1-0.4c-0.6-0.3-1.2-0.6-1.7-1.1s-0.8-1.1-1.1-1.9c-0.3-0.7-0.4-1.6-0.4-2.6
							c0-0.8,0.1-1.5,0.4-2.2c0.2-0.7,0.6-1.3,1-1.8s1-0.9,1.6-1.2s1.4-0.4,2.2-0.4c0.7,0,1.3,0.1,1.9,0.3s1.1,0.5,1.5,1
							c0.4,0.4,0.7,0.9,1,1.6c0.2,0.6,0.4,1.3,0.4,2.1c0,0.3,0,0.5-0.1,0.6s-0.2,0.2-0.4,0.2h-7.4c0,0.7,0.1,1.3,0.3,1.8
							c0.2,0.5,0.4,1,0.7,1.3c0.3,0.3,0.7,0.6,1.1,0.8s0.9,0.3,1.4,0.3s0.9-0.1,1.3-0.2c0.4-0.1,0.7-0.2,0.9-0.4
							c0.3-0.1,0.5-0.3,0.6-0.4s0.3-0.2,0.4-0.2c0.2,0,0.3,0.1,0.4,0.2L327.3,209.4z M339.5,199.9l-6.2,14.4
							c-0.1,0.1-0.1,0.3-0.2,0.4c-0.1,0.1-0.3,0.1-0.5,0.1h-1.5l2-4.4l-4.6-10.5h1.7c0.2,0,0.3,0,0.4,0.1s0.2,0.2,0.2,0.3l3,7
							c0.1,0.3,0.2,0.6,0.3,1c0.1-0.3,0.2-0.7,0.3-1l2.9-7c0-0.1,0.1-0.2,0.2-0.3s0.2-0.1,0.4-0.1H339.5z M346.8,211v-11.1h1.2
							c0.3,0,0.5,0.1,0.5,0.4l0.1,1.1c0.4-0.5,0.9-0.9,1.4-1.2s1.1-0.5,1.8-0.5c0.7,0,1.4,0.2,1.8,0.6s0.8,1,1,1.7
							c0.2-0.4,0.4-0.8,0.6-1c0.3-0.3,0.5-0.5,0.9-0.7c0.3-0.2,0.7-0.3,1-0.4c0.4-0.1,0.7-0.1,1.1-0.1c0.6,0,1.1,0.1,1.6,0.3
							s0.8,0.5,1.2,0.8c0.3,0.4,0.6,0.8,0.7,1.3c0.2,0.5,0.3,1.1,0.3,1.8v7.1h-2V204c0-0.9-0.2-1.5-0.6-2s-0.9-0.7-1.6-0.7
							c-0.3,0-0.6,0.1-0.9,0.2c-0.3,0.1-0.5,0.3-0.8,0.5s-0.4,0.5-0.5,0.8s-0.2,0.7-0.2,1.2v7.1h-2V204c0-0.9-0.2-1.6-0.5-2
							c-0.4-0.4-0.9-0.7-1.6-0.7c-0.5,0-0.9,0.1-1.3,0.4c-0.4,0.3-0.8,0.6-1.1,1.1v8.3h-2.1V211z M371,206c-0.9,0-1.7,0.1-2.3,0.2
							s-1.2,0.3-1.6,0.4s-0.7,0.4-0.9,0.6c-0.2,0.2-0.3,0.5-0.3,0.8s0,0.5,0.1,0.8c0.1,0.2,0.2,0.4,0.4,0.5c0.2,0.1,0.4,0.2,0.6,0.3
							s0.5,0.1,0.7,0.1c0.3,0,0.7,0,0.9-0.1s0.6-0.2,0.8-0.3s0.5-0.3,0.7-0.5s0.5-0.4,0.7-0.6V206H371z M364.6,201.4
							c0.6-0.6,1.3-1,2-1.3s1.5-0.4,2.4-0.4c0.6,0,1.2,0.1,1.7,0.3s0.9,0.5,1.2,0.9c0.3,0.4,0.6,0.8,0.7,1.3
							c0.2,0.5,0.3,1.1,0.3,1.7v7.1H372c-0.2,0-0.3,0-0.4-0.1s-0.2-0.2-0.2-0.4l-0.2-1.1c-0.3,0.3-0.6,0.5-0.9,0.7s-0.6,0.4-0.9,0.5
							s-0.6,0.3-1,0.3s-0.7,0.1-1.2,0.1c-0.4,0-0.8-0.1-1.2-0.2c-0.4-0.1-0.7-0.3-1-0.5s-0.5-0.5-0.7-0.9s-0.2-0.8-0.2-1.3
							c0-0.4,0.1-0.9,0.4-1.3s0.6-0.8,1.2-1.1c0.5-0.3,1.3-0.6,2.1-0.8c0.9-0.2,1.9-0.3,3.2-0.3v-0.9c0-0.9-0.2-1.5-0.6-2
							c-0.4-0.4-0.9-0.7-1.6-0.7c-0.5,0-0.9,0.1-1.2,0.2s-0.6,0.3-0.8,0.4c-0.2,0.2-0.4,0.3-0.6,0.4s-0.3,0.2-0.5,0.2
							c-0.1,0-0.2,0-0.3-0.1c-0.1-0.1-0.2-0.2-0.2-0.3L364.6,201.4z M383.1,202.5c-0.4-0.5-0.8-0.8-1.2-1c-0.4-0.2-0.9-0.3-1.4-0.3
							c-1,0-1.8,0.4-2.4,1.1c-0.6,0.7-0.8,1.8-0.8,3.2c0,0.7,0.1,1.3,0.2,1.9s0.3,0.9,0.5,1.3s0.5,0.6,0.9,0.7
							c0.4,0.2,0.8,0.2,1.2,0.2c0.6,0,1.2-0.1,1.7-0.4s0.9-0.7,1.3-1.2L383.1,202.5L383.1,202.5z M385.1,194.8V211h-1.2
							c-0.3,0-0.5-0.1-0.5-0.4l-0.2-1.4c-0.5,0.6-1,1-1.6,1.4s-1.3,0.5-2.1,0.5c-0.6,0-1.2-0.1-1.7-0.4c-0.5-0.2-1-0.6-1.3-1.1
							s-0.6-1.1-0.8-1.8s-0.3-1.5-0.3-2.5c0-0.8,0.1-1.6,0.3-2.3c0.2-0.7,0.5-1.3,0.9-1.8s0.9-0.9,1.5-1.2s1.3-0.4,2-0.4
							s1.3,0.1,1.8,0.3s0.9,0.6,1.3,1v-6.2L385.1,194.8L385.1,194.8z M395.6,204.2c0-0.5-0.1-0.9-0.2-1.2c-0.1-0.4-0.3-0.7-0.6-1
							c-0.2-0.3-0.5-0.5-0.9-0.6c-0.4-0.2-0.8-0.2-1.2-0.2c-0.9,0-1.7,0.3-2.2,0.8s-0.9,1.3-1,2.3h6.1V204.2z M397.2,209.4
							c-0.2,0.3-0.5,0.5-0.9,0.8s-0.7,0.4-1.1,0.5s-0.8,0.2-1.2,0.3s-0.8,0.1-1.2,0.1c-0.8,0-1.5-0.1-2.1-0.4
							c-0.6-0.3-1.2-0.6-1.7-1.1s-0.8-1.1-1.1-1.9c-0.3-0.7-0.4-1.6-0.4-2.6c0-0.8,0.1-1.5,0.4-2.2c0.2-0.7,0.6-1.3,1-1.8
							s1-0.9,1.6-1.2s1.4-0.4,2.2-0.4c0.7,0,1.3,0.1,1.9,0.3s1.1,0.5,1.5,1c0.4,0.4,0.7,0.9,1,1.6c0.2,0.6,0.4,1.3,0.4,2.1
							c0,0.3,0,0.5-0.1,0.6s-0.2,0.2-0.4,0.2h-7.4c0,0.7,0.1,1.3,0.3,1.8c0.2,0.5,0.4,1,0.7,1.3c0.3,0.3,0.7,0.6,1.1,0.8
							s0.9,0.3,1.4,0.3s0.9-0.1,1.3-0.2c0.4-0.1,0.7-0.2,0.9-0.4c0.3-0.1,0.5-0.3,0.6-0.4s0.3-0.2,0.4-0.2c0.2,0,0.3,0.1,0.4,0.2
							L397.2,209.4z M405.4,211v-11.1h1.2c0.3,0,0.5,0.1,0.5,0.4l0.1,1.1c0.4-0.5,0.9-0.9,1.4-1.2s1.1-0.5,1.8-0.5
							c0.7,0,1.4,0.2,1.8,0.6s0.8,1,1,1.7c0.2-0.4,0.4-0.8,0.6-1s0.5-0.5,0.9-0.7c0.3-0.2,0.7-0.3,1-0.4c0.4-0.1,0.7-0.1,1.1-0.1
							c0.6,0,1.1,0.1,1.6,0.3s0.8,0.5,1.2,0.8c0.3,0.4,0.6,0.8,0.7,1.3c0.2,0.5,0.3,1.1,0.3,1.8v7.1h-2V204c0-0.9-0.2-1.5-0.6-2
							s-0.9-0.7-1.7-0.7c-0.3,0-0.6,0.1-0.9,0.2s-0.5,0.3-0.8,0.5s-0.4,0.5-0.5,0.8s-0.2,0.7-0.2,1.2v7.1h-2V204
							c0-0.9-0.2-1.6-0.5-2c-0.4-0.4-0.9-0.7-1.6-0.7c-0.5,0-0.9,0.1-1.3,0.4s-0.8,0.6-1.1,1.1v8.3h-2V211z M431,204.2
							c0-0.5-0.1-0.9-0.2-1.2c-0.1-0.4-0.3-0.7-0.6-1c-0.2-0.3-0.5-0.5-0.9-0.6c-0.4-0.2-0.8-0.2-1.2-0.2c-0.9,0-1.7,0.3-2.2,0.8
							s-0.9,1.3-1,2.3h6.1V204.2z M432.6,209.4c-0.2,0.3-0.5,0.5-0.9,0.8c-0.3,0.2-0.7,0.4-1.1,0.5s-0.8,0.2-1.2,0.3
							s-0.8,0.1-1.2,0.1c-0.8,0-1.5-0.1-2.1-0.4c-0.6-0.3-1.2-0.6-1.7-1.1s-0.8-1.1-1.1-1.9c-0.3-0.7-0.4-1.6-0.4-2.6
							c0-0.8,0.1-1.5,0.4-2.2c0.2-0.7,0.6-1.3,1-1.8s1-0.9,1.6-1.2s1.4-0.4,2.2-0.4c0.7,0,1.3,0.1,1.9,0.3s1.1,0.5,1.5,1
							c0.4,0.4,0.7,0.9,1,1.6c0.2,0.6,0.4,1.3,0.4,2.1c0,0.3,0,0.5-0.1,0.6s-0.2,0.2-0.4,0.2H425c0,0.7,0.1,1.3,0.3,1.8
							c0.2,0.5,0.4,1,0.7,1.3c0.3,0.3,0.7,0.6,1.1,0.8s0.9,0.3,1.4,0.3s0.9-0.1,1.3-0.2c0.4-0.1,0.7-0.2,0.9-0.4
							c0.3-0.1,0.5-0.3,0.6-0.4s0.3-0.2,0.4-0.2c0.2,0,0.3,0.1,0.4,0.2L432.6,209.4z M441.5,211v-9.5l-1.2-0.1
							c-0.2,0-0.3-0.1-0.4-0.2s-0.1-0.2-0.1-0.3v-0.8h1.8V199c0-0.6,0.1-1.2,0.3-1.7c0.2-0.5,0.4-0.9,0.8-1.3s0.7-0.6,1.2-0.8
							s1-0.3,1.6-0.3c0.5,0,1,0.1,1.4,0.2v1c0,0.2-0.1,0.3-0.3,0.3s-0.4,0-0.7,0c-0.3,0-0.6,0-0.9,0.1s-0.5,0.2-0.7,0.4
							s-0.4,0.5-0.5,0.8s-0.2,0.7-0.2,1.2v1h3.2v1.4h-3.1v9.5h-2.2V211z M455.9,204.2c0-0.5-0.1-0.9-0.2-1.2c-0.1-0.4-0.3-0.7-0.6-1
							c-0.2-0.3-0.5-0.5-0.9-0.6c-0.4-0.2-0.8-0.2-1.2-0.2c-0.9,0-1.7,0.3-2.2,0.8s-0.9,1.3-1,2.3h6.1V204.2z M457.5,209.4
							c-0.2,0.3-0.5,0.5-0.9,0.8s-0.7,0.4-1.1,0.5s-0.8,0.2-1.2,0.3s-0.8,0.1-1.2,0.1c-0.8,0-1.5-0.1-2.1-0.4
							c-0.6-0.3-1.2-0.6-1.7-1.1s-0.8-1.1-1.1-1.9c-0.3-0.7-0.4-1.6-0.4-2.6c0-0.8,0.1-1.5,0.4-2.2c0.2-0.7,0.6-1.3,1-1.8
							s1-0.9,1.6-1.2s1.4-0.4,2.2-0.4c0.7,0,1.3,0.1,1.9,0.3s1.1,0.5,1.5,1c0.4,0.4,0.7,0.9,1,1.6c0.2,0.6,0.4,1.3,0.4,2.1
							c0,0.3,0,0.5-0.1,0.6s-0.2,0.2-0.4,0.2h-7.4c0,0.7,0.1,1.3,0.3,1.8c0.2,0.5,0.4,1,0.7,1.3c0.3,0.3,0.7,0.6,1.1,0.8
							s0.9,0.3,1.4,0.3s0.9-0.1,1.3-0.2c0.4-0.1,0.7-0.2,0.9-0.4c0.3-0.1,0.5-0.3,0.6-0.4s0.3-0.2,0.4-0.2c0.2,0,0.3,0.1,0.4,0.2
							L457.5,209.4z M467.6,204.2c0-0.5-0.1-0.9-0.2-1.2c-0.1-0.4-0.3-0.7-0.6-1c-0.2-0.3-0.5-0.5-0.9-0.6c-0.4-0.2-0.8-0.2-1.2-0.2
							c-0.9,0-1.7,0.3-2.2,0.8s-0.9,1.3-1,2.3h6.1V204.2z M469.1,209.4c-0.2,0.3-0.5,0.5-0.9,0.8s-0.7,0.4-1.1,0.5s-0.8,0.2-1.2,0.3
							c-0.4,0.1-0.8,0.1-1.2,0.1c-0.8,0-1.5-0.1-2.1-0.4c-0.6-0.3-1.2-0.6-1.7-1.1s-0.8-1.1-1.1-1.9c-0.3-0.7-0.4-1.6-0.4-2.6
							c0-0.8,0.1-1.5,0.4-2.2c0.2-0.7,0.6-1.3,1-1.8s1-0.9,1.6-1.2s1.4-0.4,2.2-0.4c0.7,0,1.3,0.1,1.9,0.3s1.1,0.5,1.5,1
							c0.4,0.4,0.7,0.9,1,1.6c0.2,0.6,0.4,1.3,0.4,2.1c0,0.3,0,0.5-0.1,0.6s-0.2,0.2-0.4,0.2h-7.4c0,0.7,0.1,1.3,0.3,1.8
							c0.2,0.5,0.4,1,0.7,1.3c0.3,0.3,0.7,0.6,1.1,0.8s0.9,0.3,1.4,0.3s0.9-0.1,1.3-0.2c0.4-0.1,0.7-0.2,0.9-0.4
							c0.3-0.1,0.5-0.3,0.6-0.4s0.3-0.2,0.4-0.2c0.2,0,0.3,0.1,0.4,0.2L469.1,209.4z M473.7,194.8V211h-2v-16.2H473.7z M47.5,226.9
							L43.9,238h-1.6c-0.2,0-0.3-0.1-0.4-0.4l-2.5-7.6c-0.1-0.2-0.1-0.3-0.1-0.5s-0.1-0.3-0.1-0.5c0,0.2-0.1,0.3-0.1,0.5
							S39,229.8,39,230l-2.5,7.5c-0.1,0.2-0.2,0.4-0.4,0.4h-1.5l-3.6-11h1.5c0.2,0,0.3,0,0.4,0.1c0.1,0.1,0.2,0.2,0.2,0.3l2.1,7.2
							c0.1,0.5,0.2,1,0.3,1.5c0.1-0.2,0.1-0.5,0.2-0.7c0.1-0.2,0.1-0.5,0.2-0.8l2.4-7.2c0-0.1,0.1-0.2,0.2-0.3s0.2-0.1,0.3-0.1h0.9
							c0.1,0,0.3,0,0.4,0.1s0.2,0.2,0.2,0.3l2.3,7.2c0.1,0.3,0.2,0.5,0.2,0.8c0.1,0.2,0.1,0.5,0.2,0.7c0-0.2,0.1-0.5,0.1-0.7
							s0.1-0.5,0.2-0.8l2.2-7.2c0-0.1,0.1-0.2,0.2-0.3c0.1-0.1,0.2-0.1,0.4-0.1H47.5z M56.9,231.2c0-0.5-0.1-0.9-0.2-1.2
							c-0.1-0.4-0.3-0.7-0.6-1c-0.2-0.3-0.5-0.5-0.9-0.6c-0.4-0.2-0.8-0.2-1.2-0.2c-0.9,0-1.7,0.3-2.2,0.8s-0.9,1.3-1,2.3h6.1V231.2
							z M58.5,236.4c-0.2,0.3-0.5,0.5-0.9,0.8c-0.3,0.2-0.7,0.4-1.1,0.5c-0.4,0.1-0.8,0.2-1.2,0.3s-0.8,0.1-1.2,0.1
							c-0.8,0-1.5-0.1-2.1-0.4c-0.6-0.3-1.2-0.6-1.7-1.1s-0.8-1.1-1.1-1.9c-0.3-0.7-0.4-1.6-0.4-2.6c0-0.8,0.1-1.5,0.4-2.2
							c0.2-0.7,0.6-1.3,1-1.8s1-0.9,1.6-1.2s1.4-0.4,2.2-0.4c0.7,0,1.3,0.1,1.9,0.3c0.6,0.2,1.1,0.5,1.5,1c0.4,0.4,0.7,0.9,1,1.6
							c0.2,0.6,0.4,1.3,0.4,2.1c0,0.3,0,0.5-0.1,0.6s-0.2,0.2-0.4,0.2h-7.4c0,0.7,0.1,1.3,0.3,1.8s0.4,1,0.7,1.3s0.7,0.6,1.1,0.8
							s0.9,0.3,1.4,0.3s0.9-0.1,1.3-0.2c0.4-0.1,0.7-0.2,0.9-0.4s0.5-0.3,0.6-0.4c0.2-0.1,0.3-0.2,0.4-0.2c0.2,0,0.3,0.1,0.4,0.2
							L58.5,236.4z M63.1,221.8V238h-2v-16.2H63.1z M74,228.8c-0.1,0.1-0.1,0.1-0.2,0.2c-0.1,0-0.1,0.1-0.2,0.1s-0.2,0-0.4-0.1
							c-0.1-0.1-0.3-0.2-0.5-0.3s-0.4-0.2-0.7-0.3c-0.3-0.1-0.6-0.1-1-0.1c-0.6,0-1,0.1-1.5,0.3c-0.4,0.2-0.8,0.5-1.1,0.8
							c-0.3,0.4-0.5,0.8-0.6,1.3s-0.2,1.1-0.2,1.7c0,0.7,0.1,1.3,0.2,1.8s0.4,1,0.7,1.3s0.6,0.6,1,0.8s0.8,0.3,1.3,0.3
							s0.9-0.1,1.2-0.2c0.3-0.1,0.6-0.2,0.8-0.4s0.4-0.3,0.5-0.4s0.3-0.2,0.4-0.2c0.2,0,0.3,0.1,0.4,0.2l0.6,0.7
							c-0.2,0.3-0.5,0.6-0.8,0.8s-0.6,0.4-1,0.5s-0.7,0.2-1.1,0.3S71,238,70.6,238c-0.7,0-1.3-0.1-1.9-0.4c-0.6-0.3-1.1-0.6-1.6-1.1
							s-0.8-1.1-1-1.8s-0.4-1.5-0.4-2.4c0-0.8,0.1-1.6,0.3-2.3c0.2-0.7,0.6-1.3,1-1.8s1-0.9,1.6-1.2s1.4-0.4,2.2-0.4
							c0.8,0,1.5,0.1,2.1,0.4s1.1,0.6,1.6,1.1L74,228.8z M81.5,226.7c0.8,0,1.5,0.1,2.2,0.4c0.7,0.3,1.2,0.7,1.7,1.2
							s0.8,1.1,1.1,1.8s0.4,1.5,0.4,2.4s-0.1,1.7-0.4,2.4c-0.2,0.7-0.6,1.3-1.1,1.8s-1,0.9-1.7,1.1c-0.7,0.3-1.4,0.4-2.2,0.4
							c-0.8,0-1.6-0.1-2.2-0.4s-1.2-0.7-1.7-1.1c-0.5-0.5-0.8-1.1-1.1-1.8c-0.2-0.7-0.4-1.5-0.4-2.4s0.1-1.7,0.4-2.4
							s0.6-1.3,1.1-1.8s1-0.9,1.7-1.2S80.7,226.7,81.5,226.7z M81.5,236.6c1.1,0,1.9-0.4,2.5-1.1c0.5-0.7,0.8-1.8,0.8-3.1
							s-0.3-2.4-0.8-3.1c-0.5-0.7-1.4-1.1-2.5-1.1c-0.6,0-1,0.1-1.5,0.3c-0.4,0.2-0.8,0.5-1,0.8s-0.5,0.8-0.6,1.3s-0.2,1.1-0.2,1.8
							c0,1.3,0.3,2.3,0.8,3.1C79.5,236.3,80.4,236.6,81.5,236.6z M89.3,238v-11.1h1.2c0.3,0,0.5,0.1,0.5,0.4l0.1,1.1
							c0.4-0.5,0.9-0.9,1.4-1.2s1.1-0.5,1.8-0.5c0.7,0,1.4,0.2,1.8,0.6s0.8,1,1,1.7c0.2-0.4,0.4-0.8,0.6-1c0.3-0.3,0.5-0.5,0.9-0.7
							c0.3-0.2,0.7-0.3,1-0.4s0.7-0.1,1.1-0.1c0.6,0,1.1,0.1,1.6,0.3s0.8,0.5,1.2,0.8c0.3,0.4,0.6,0.8,0.7,1.3
							c0.2,0.5,0.3,1.1,0.3,1.8v7.1h-2V231c0-0.9-0.2-1.5-0.6-2s-0.9-0.7-1.6-0.7c-0.3,0-0.6,0.1-0.9,0.2s-0.5,0.3-0.8,0.5
							s-0.4,0.5-0.5,0.8s-0.2,0.7-0.2,1.2v7.1h-2V231c0-0.9-0.2-1.6-0.5-2c-0.4-0.4-0.9-0.7-1.6-0.7c-0.5,0-0.9,0.1-1.3,0.4
							c-0.4,0.3-0.8,0.6-1.1,1.1v8.3h-2.1V238z M114.8,231.2c0-0.5-0.1-0.9-0.2-1.2c-0.1-0.4-0.3-0.7-0.6-1
							c-0.2-0.3-0.5-0.5-0.9-0.6c-0.4-0.2-0.8-0.2-1.2-0.2c-0.9,0-1.7,0.3-2.2,0.8s-0.9,1.3-1,2.3h6.1V231.2z M116.4,236.4
							c-0.2,0.3-0.5,0.5-0.9,0.8c-0.3,0.2-0.7,0.4-1.1,0.5s-0.8,0.2-1.2,0.3c-0.4,0.1-0.8,0.1-1.2,0.1c-0.8,0-1.5-0.1-2.1-0.4
							c-0.6-0.3-1.2-0.6-1.7-1.1s-0.8-1.1-1.1-1.9c-0.3-0.7-0.4-1.6-0.4-2.6c0-0.8,0.1-1.5,0.4-2.2c0.2-0.7,0.6-1.3,1-1.8
							s1-0.9,1.6-1.2s1.4-0.4,2.2-0.4c0.7,0,1.3,0.1,1.9,0.3s1.1,0.5,1.5,1c0.4,0.4,0.7,0.9,1,1.6c0.2,0.6,0.4,1.3,0.4,2.1
							c0,0.3,0,0.5-0.1,0.6s-0.2,0.2-0.4,0.2h-7.4c0,0.7,0.1,1.3,0.3,1.8c0.2,0.5,0.4,1,0.7,1.3c0.3,0.3,0.7,0.6,1.1,0.8
							s0.9,0.3,1.4,0.3s0.9-0.1,1.3-0.2s0.7-0.2,0.9-0.4s0.5-0.3,0.6-0.4s0.3-0.2,0.4-0.2c0.2,0,0.3,0.1,0.4,0.2L116.4,236.4z
							 M128.4,230.2c-0.8,0.4-1.4,0.9-1.8,1.5s-0.6,1.2-0.6,1.9c0,0.5,0.1,0.9,0.3,1.3c0.2,0.4,0.4,0.7,0.7,0.9
							c0.3,0.2,0.6,0.4,1,0.6c0.4,0.1,0.7,0.2,1.1,0.2c0.8,0,1.6-0.2,2.2-0.5c0.7-0.3,1.2-0.7,1.7-1.2L128.4,230.2z M138.5,238h-1.9
							c-0.2,0-0.4,0-0.5-0.1s-0.3-0.2-0.4-0.3l-1.6-1.6c-0.7,0.7-1.5,1.2-2.4,1.6c-0.9,0.4-1.9,0.6-3,0.6c-0.6,0-1.2-0.1-1.7-0.3
							s-1.1-0.5-1.5-0.9s-0.8-0.8-1.1-1.4c-0.3-0.5-0.4-1.2-0.4-1.8c0-0.5,0.1-1,0.3-1.5s0.4-0.9,0.7-1.3c0.3-0.4,0.7-0.7,1.1-1
							s0.9-0.6,1.4-0.8c-0.4-0.6-0.8-1.1-1-1.7c-0.2-0.5-0.3-1.1-0.3-1.7c0-0.5,0.1-1,0.3-1.5c0.2-0.5,0.5-0.9,0.8-1.2
							c0.4-0.3,0.8-0.6,1.3-0.8s1.1-0.3,1.8-0.3c0.6,0,1.1,0.1,1.6,0.3s0.9,0.4,1.2,0.7s0.6,0.7,0.8,1.1c0.2,0.4,0.3,0.8,0.3,1.3
							l-1.2,0.2c-0.2,0.1-0.4-0.1-0.5-0.3s-0.1-0.4-0.2-0.6c-0.1-0.2-0.3-0.4-0.4-0.6c-0.2-0.2-0.4-0.3-0.6-0.4
							c-0.3-0.1-0.5-0.2-0.9-0.2s-0.7,0.1-1,0.2c-0.3,0.1-0.6,0.3-0.8,0.5s-0.4,0.5-0.5,0.7c-0.1,0.3-0.2,0.6-0.2,0.9
							c0,0.3,0,0.5,0.1,0.7s0.2,0.5,0.3,0.7s0.3,0.5,0.5,0.7s0.4,0.5,0.7,0.8l4.5,4.6c0.3-0.5,0.5-1,0.7-1.6s0.3-1.1,0.3-1.6
							c0-0.1,0.1-0.2,0.1-0.3c0.1-0.1,0.2-0.1,0.3-0.1h1.2c0,0.8-0.1,1.7-0.4,2.5s-0.6,1.6-1.1,2.3L138.5,238z M145.9,238v-11.1h1.2
							c0.3,0,0.5,0.1,0.5,0.4l0.1,1.1c0.4-0.5,0.9-0.9,1.4-1.2s1.1-0.5,1.8-0.5s1.4,0.2,1.8,0.6s0.8,1,1,1.7c0.2-0.4,0.4-0.8,0.6-1
							c0.3-0.3,0.5-0.5,0.9-0.7c0.3-0.2,0.7-0.3,1-0.4s0.7-0.1,1.1-0.1c0.6,0,1.1,0.1,1.6,0.3s0.8,0.5,1.2,0.8
							c0.3,0.4,0.6,0.8,0.7,1.3c0.2,0.5,0.3,1.1,0.3,1.8v7.1h-2V231c0-0.9-0.2-1.5-0.6-2s-0.9-0.7-1.6-0.7c-0.3,0-0.6,0.1-0.9,0.2
							s-0.5,0.3-0.8,0.5s-0.4,0.5-0.5,0.8s-0.2,0.7-0.2,1.2v7.1h-2V231c0-0.9-0.2-1.6-0.5-2c-0.4-0.4-0.9-0.7-1.6-0.7
							c-0.5,0-0.9,0.1-1.3,0.4c-0.4,0.3-0.8,0.6-1.1,1.1v8.3h-2.1V238z M168.7,226.7c0.8,0,1.5,0.1,2.2,0.4c0.7,0.3,1.2,0.7,1.7,1.2
							s0.8,1.1,1.1,1.8c0.2,0.7,0.4,1.5,0.4,2.4s-0.1,1.7-0.4,2.4c-0.2,0.7-0.6,1.3-1.1,1.8s-1,0.9-1.7,1.1
							c-0.7,0.3-1.4,0.4-2.2,0.4s-1.6-0.1-2.2-0.4s-1.2-0.7-1.7-1.1c-0.5-0.5-0.8-1.1-1.1-1.8c-0.2-0.7-0.4-1.5-0.4-2.4
							s0.1-1.7,0.4-2.4s0.6-1.3,1.1-1.8s1-0.9,1.7-1.2S167.9,226.7,168.7,226.7z M168.7,236.6c1.1,0,1.9-0.4,2.5-1.1
							c0.5-0.7,0.8-1.8,0.8-3.1s-0.3-2.4-0.8-3.1c-0.5-0.7-1.4-1.1-2.5-1.1c-0.6,0-1,0.1-1.5,0.3c-0.4,0.2-0.8,0.5-1,0.8
							c-0.3,0.4-0.5,0.8-0.6,1.3s-0.2,1.1-0.2,1.8c0,1.3,0.3,2.3,0.8,3.1S167.6,236.6,168.7,236.6z M178.3,229.1
							c0.4-0.8,0.8-1.4,1.3-1.8s1.1-0.6,1.9-0.6c0.2,0,0.5,0,0.7,0.1s0.4,0.1,0.6,0.2l-0.1,1.5c0,0.2-0.2,0.3-0.3,0.3
							s-0.3,0-0.5-0.1c-0.2,0-0.4-0.1-0.7-0.1c-0.4,0-0.7,0.1-0.9,0.2c-0.3,0.1-0.5,0.3-0.7,0.5s-0.4,0.5-0.6,0.7
							c-0.2,0.3-0.3,0.6-0.5,1v7h-2v-11.1h1.1c0.2,0,0.4,0,0.4,0.1c0.1,0.1,0.1,0.2,0.2,0.4L178.3,229.1z M191.9,231.2
							c0-0.5-0.1-0.9-0.2-1.2c-0.1-0.4-0.3-0.7-0.6-1c-0.2-0.3-0.5-0.5-0.9-0.6c-0.4-0.2-0.8-0.2-1.2-0.2c-0.9,0-1.7,0.3-2.2,0.8
							s-0.9,1.3-1,2.3h6.1V231.2z M193.5,236.4c-0.2,0.3-0.5,0.5-0.9,0.8s-0.7,0.4-1.1,0.5c-0.4,0.1-0.8,0.2-1.2,0.3
							s-0.8,0.1-1.2,0.1c-0.8,0-1.5-0.1-2.1-0.4c-0.6-0.3-1.2-0.6-1.7-1.1s-0.8-1.1-1.1-1.9c-0.3-0.7-0.4-1.6-0.4-2.6
							c0-0.8,0.1-1.5,0.4-2.2c0.2-0.7,0.6-1.3,1-1.8s1-0.9,1.6-1.2s1.4-0.4,2.2-0.4c0.7,0,1.3,0.1,1.9,0.3c0.6,0.2,1.1,0.5,1.5,1
							c0.4,0.4,0.7,0.9,1,1.6c0.2,0.6,0.4,1.3,0.4,2.1c0,0.3,0,0.5-0.1,0.6s-0.2,0.2-0.4,0.2h-7.4c0,0.7,0.1,1.3,0.3,1.8
							s0.4,1,0.7,1.3s0.7,0.6,1.1,0.8s0.9,0.3,1.4,0.3s0.9-0.1,1.3-0.2s0.7-0.2,0.9-0.4s0.5-0.3,0.6-0.4s0.3-0.2,0.4-0.2
							c0.2,0,0.3,0.1,0.4,0.2L193.5,236.4z M203.8,226.9V238h-2v-11.1H203.8z M204.2,223.4c0,0.2,0,0.4-0.1,0.5
							c-0.1,0.2-0.2,0.3-0.3,0.4c-0.1,0.1-0.3,0.2-0.5,0.3s-0.4,0.1-0.5,0.1c-0.2,0-0.4,0-0.5-0.1c-0.2-0.1-0.3-0.2-0.4-0.3
							c-0.1-0.1-0.2-0.3-0.3-0.4c-0.1-0.2-0.1-0.3-0.1-0.5s0-0.4,0.1-0.5s0.2-0.3,0.3-0.5c0.1-0.1,0.3-0.2,0.4-0.3
							c0.2-0.1,0.3-0.1,0.5-0.1s0.4,0,0.5,0.1c0.2,0.1,0.3,0.2,0.5,0.3c0.1,0.1,0.2,0.3,0.3,0.5C204.2,223,204.2,223.2,204.2,223.4z
							 M207,238v-11.1h1.2c0.3,0,0.5,0.1,0.5,0.4l0.1,1.1c0.4-0.5,0.9-0.9,1.4-1.2s1.1-0.5,1.8-0.5s1.4,0.2,1.8,0.6s0.8,1,1,1.7
							c0.2-0.4,0.4-0.8,0.6-1s0.5-0.5,0.9-0.7c0.3-0.2,0.7-0.3,1-0.4s0.7-0.1,1.1-0.1c0.6,0,1.1,0.1,1.6,0.3s0.8,0.5,1.2,0.8
							c0.3,0.4,0.6,0.8,0.7,1.3c0.2,0.5,0.3,1.1,0.3,1.8v7.1h-2V231c0-0.9-0.2-1.5-0.6-2c-0.4-0.5-0.9-0.7-1.6-0.7
							c-0.3,0-0.6,0.1-0.9,0.2c-0.3,0.1-0.5,0.3-0.8,0.5s-0.4,0.5-0.5,0.8s-0.2,0.7-0.2,1.2v7.1h-2V231c0-0.9-0.2-1.6-0.5-2
							c-0.4-0.4-0.9-0.7-1.6-0.7c-0.5,0-0.9,0.1-1.3,0.4s-0.8,0.6-1.1,1.1v8.3H207V238z M227.1,235.3c0.4,0.5,0.8,0.8,1.2,1
							s0.9,0.3,1.4,0.3c1,0,1.8-0.4,2.4-1.1c0.6-0.7,0.8-1.8,0.8-3.2c0-0.7-0.1-1.3-0.2-1.9c-0.1-0.5-0.3-0.9-0.6-1.3
							c-0.2-0.3-0.5-0.6-0.9-0.7s-0.8-0.2-1.2-0.2c-0.6,0-1.2,0.1-1.7,0.4c-0.5,0.3-0.9,0.7-1.3,1.2v5.5H227.1z M227,228.6
							c0.5-0.6,1-1,1.6-1.4s1.3-0.5,2.1-0.5c0.6,0,1.2,0.1,1.7,0.4c0.5,0.2,1,0.6,1.3,1.1s0.6,1.1,0.8,1.8s0.3,1.5,0.3,2.5
							c0,0.8-0.1,1.6-0.3,2.3s-0.5,1.3-1,1.8c-0.4,0.5-0.9,0.9-1.5,1.2s-1.3,0.4-2,0.4s-1.3-0.1-1.8-0.3s-0.9-0.6-1.3-1v4.9h-2
							v-14.9h1.2c0.3,0,0.5,0.1,0.5,0.4L227,228.6z M242.1,226.7c0.8,0,1.5,0.1,2.2,0.4c0.7,0.3,1.2,0.7,1.7,1.2s0.8,1.1,1.1,1.8
							s0.4,1.5,0.4,2.4s-0.1,1.7-0.4,2.4c-0.2,0.7-0.6,1.3-1.1,1.8s-1,0.9-1.7,1.1c-0.7,0.3-1.4,0.4-2.2,0.4s-1.6-0.1-2.2-0.4
							c-0.7-0.3-1.2-0.7-1.7-1.1s-0.8-1.1-1.1-1.8c-0.2-0.7-0.4-1.5-0.4-2.4s0.1-1.7,0.4-2.4s0.6-1.3,1.1-1.8s1-0.9,1.7-1.2
							C240.6,226.8,241.3,226.7,242.1,226.7z M242.1,236.6c1.1,0,1.9-0.4,2.5-1.1s0.8-1.8,0.8-3.1s-0.3-2.4-0.8-3.1
							s-1.4-1.1-2.5-1.1c-0.6,0-1,0.1-1.5,0.3c-0.4,0.2-0.8,0.5-1,0.8c-0.3,0.4-0.5,0.8-0.6,1.3s-0.2,1.1-0.2,1.8
							c0,1.3,0.3,2.3,0.8,3.1C240.2,236.3,241,236.6,242.1,236.6z M251.8,229.1c0.4-0.8,0.8-1.4,1.3-1.8s1.1-0.6,1.9-0.6
							c0.2,0,0.5,0,0.7,0.1s0.4,0.1,0.6,0.2l-0.1,1.5c0,0.2-0.2,0.3-0.3,0.3s-0.3,0-0.5-0.1c-0.2,0-0.4-0.1-0.7-0.1
							c-0.4,0-0.7,0.1-0.9,0.2c-0.3,0.1-0.5,0.3-0.7,0.5s-0.4,0.5-0.6,0.7c-0.2,0.3-0.3,0.6-0.5,1v7h-2v-11.1h1.1
							c0.2,0,0.4,0,0.4,0.1c0.1,0.1,0.1,0.2,0.2,0.4L251.8,229.1z M261.3,238.2c-0.9,0-1.6-0.2-2-0.7c-0.5-0.5-0.7-1.2-0.7-2.1v-6.8
							h-1.3c-0.1,0-0.2,0-0.3-0.1c-0.1-0.1-0.1-0.2-0.1-0.3v-0.8l1.8-0.2l0.5-3.4c0-0.1,0.1-0.2,0.1-0.3c0.1-0.1,0.2-0.1,0.3-0.1h1
							v3.8h3.2v1.4h-3.2v6.7c0,0.5,0.1,0.8,0.3,1c0.2,0.2,0.5,0.3,0.9,0.3c0.2,0,0.4,0,0.5-0.1c0.2-0.1,0.3-0.1,0.4-0.2
							c0.1-0.1,0.2-0.1,0.3-0.2c0.1-0.1,0.1-0.1,0.2-0.1s0.2,0.1,0.3,0.2l0.6,0.9c-0.3,0.3-0.7,0.6-1.2,0.7
							C262.3,238.1,261.8,238.2,261.3,238.2z M271.8,233c-0.9,0-1.7,0.1-2.3,0.2s-1.2,0.3-1.6,0.4c-0.4,0.2-0.7,0.4-0.9,0.6
							c-0.2,0.2-0.3,0.5-0.3,0.8s0,0.5,0.1,0.8s0.2,0.4,0.4,0.5c0.2,0.1,0.4,0.2,0.6,0.3s0.5,0.1,0.7,0.1c0.3,0,0.7,0,0.9-0.1
							c0.3-0.1,0.6-0.2,0.8-0.3c0.3-0.1,0.5-0.3,0.7-0.5s0.5-0.4,0.7-0.6V233H271.8z M265.5,228.4c0.6-0.6,1.3-1,2-1.3
							s1.5-0.4,2.4-0.4c0.6,0,1.2,0.1,1.7,0.3s0.9,0.5,1.2,0.9c0.3,0.4,0.6,0.8,0.7,1.3c0.2,0.5,0.3,1.1,0.3,1.7v7.1h-0.9
							c-0.2,0-0.3,0-0.4-0.1s-0.2-0.2-0.2-0.4l-0.2-1.1c-0.3,0.3-0.6,0.5-0.9,0.7s-0.6,0.4-0.9,0.5s-0.6,0.3-1,0.3
							c-0.3,0.1-0.7,0.1-1.2,0.1c-0.4,0-0.8-0.1-1.2-0.2c-0.4-0.1-0.7-0.3-1-0.5s-0.5-0.5-0.7-0.9s-0.2-0.8-0.2-1.3
							c0-0.4,0.1-0.9,0.4-1.3c0.2-0.4,0.6-0.8,1.2-1.1c0.5-0.3,1.3-0.6,2.1-0.8c0.9-0.2,1.9-0.3,3.2-0.3v-0.9c0-0.9-0.2-1.5-0.6-2
							c-0.4-0.4-0.9-0.7-1.6-0.7c-0.5,0-0.9,0.1-1.2,0.2c-0.3,0.1-0.6,0.3-0.8,0.4s-0.4,0.3-0.6,0.4s-0.3,0.2-0.5,0.2
							c-0.1,0-0.2,0-0.3-0.1c-0.1-0.1-0.2-0.2-0.2-0.3L265.5,228.4z M278.6,228.5c0.2-0.3,0.5-0.5,0.8-0.7s0.6-0.4,0.9-0.6
							c0.3-0.2,0.6-0.3,1-0.4s0.7-0.1,1.1-0.1c0.6,0,1.1,0.1,1.6,0.3s0.9,0.5,1.2,0.9c0.3,0.4,0.5,0.8,0.7,1.3s0.2,1.1,0.2,1.7v7.1
							h-2v-7.1c0-0.8-0.2-1.5-0.6-2s-1-0.7-1.8-0.7c-0.6,0-1.1,0.1-1.6,0.4c-0.5,0.3-1,0.7-1.4,1.1v8.2h-2v-11.1h1.2
							c0.3,0,0.5,0.1,0.5,0.4L278.6,228.5z M292.4,238.2c-0.9,0-1.6-0.2-2-0.7c-0.5-0.5-0.7-1.2-0.7-2.1v-6.8h-1.3
							c-0.1,0-0.2,0-0.3-0.1c-0.1-0.1-0.1-0.2-0.1-0.3v-0.8l1.8-0.2l0.5-3.4c0-0.1,0.1-0.2,0.1-0.3s0.2-0.1,0.3-0.1h1v3.8h3.2v1.4
							h-3.2v6.7c0,0.5,0.1,0.8,0.3,1c0.2,0.2,0.5,0.3,0.9,0.3c0.2,0,0.4,0,0.5-0.1c0.2-0.1,0.3-0.1,0.4-0.2c0.1-0.1,0.2-0.1,0.3-0.2
							c0.1-0.1,0.1-0.1,0.2-0.1s0.2,0.1,0.3,0.2l0.6,0.9c-0.3,0.3-0.7,0.6-1.2,0.7C293.4,238.1,292.9,238.2,292.4,238.2z
							 M298.9,221.8V238h-2v-16.2H298.9z M311.7,226.9l-6.2,14.4c-0.1,0.1-0.1,0.3-0.2,0.4c-0.1,0.1-0.3,0.1-0.5,0.1h-1.5l2-4.4
							l-4.6-10.5h1.7c0.2,0,0.3,0,0.4,0.1s0.2,0.2,0.2,0.3l3,7c0.1,0.3,0.2,0.6,0.3,1c0.1-0.3,0.2-0.7,0.3-1l2.9-7
							c0-0.1,0.1-0.2,0.2-0.3s0.2-0.1,0.4-0.1H311.7z M313.3,240.7c-0.1-0.1-0.1-0.1-0.1-0.1s0-0.1,0-0.2c0-0.1,0-0.1,0-0.2
							c0-0.1,0.1-0.1,0.1-0.1c0.1-0.1,0.2-0.2,0.3-0.3c0.1-0.1,0.2-0.3,0.3-0.5c0.1-0.2,0.2-0.4,0.3-0.6s0.2-0.4,0.2-0.7
							c0,0,0,0-0.1,0h-0.1c-0.4,0-0.7-0.1-0.9-0.4s-0.4-0.6-0.4-1c0-0.3,0.1-0.6,0.4-0.9s0.6-0.4,1-0.4c0.2,0,0.4,0,0.6,0.1
							s0.3,0.2,0.4,0.3s0.2,0.3,0.3,0.5c0.1,0.2,0.1,0.4,0.1,0.6c0,0.3,0,0.7-0.1,1c-0.1,0.4-0.2,0.7-0.4,1.1
							c-0.2,0.3-0.4,0.7-0.7,1c-0.3,0.3-0.5,0.6-0.9,0.9L313.3,240.7z M331.8,228.8c-0.1,0.1-0.1,0.1-0.2,0.2
							c-0.1,0-0.1,0.1-0.2,0.1s-0.2,0-0.4-0.1c-0.1-0.1-0.3-0.2-0.5-0.3s-0.4-0.2-0.7-0.3c-0.3-0.1-0.6-0.1-1-0.1
							c-0.6,0-1,0.1-1.5,0.3s-0.8,0.5-1.1,0.8s-0.5,0.8-0.6,1.3s-0.2,1.1-0.2,1.7c0,0.7,0.1,1.3,0.2,1.8c0.2,0.5,0.4,1,0.7,1.3
							c0.3,0.4,0.6,0.6,1,0.8s0.8,0.3,1.3,0.3s0.9-0.1,1.2-0.2c0.3-0.1,0.6-0.2,0.8-0.4s0.4-0.3,0.5-0.4c0.1-0.1,0.3-0.2,0.4-0.2
							c0.2,0,0.3,0.1,0.4,0.2l0.6,0.7c-0.2,0.3-0.5,0.6-0.8,0.8s-0.6,0.4-1,0.5s-0.7,0.2-1.1,0.3s-0.8,0.1-1.2,0.1
							c-0.7,0-1.3-0.1-1.9-0.4c-0.6-0.3-1.1-0.6-1.6-1.1s-0.8-1.1-1-1.8s-0.4-1.5-0.4-2.4c0-0.8,0.1-1.6,0.3-2.3
							c0.2-0.7,0.6-1.3,1-1.8s1-0.9,1.6-1.2s1.4-0.4,2.2-0.4c0.8,0,1.5,0.1,2.1,0.4c0.6,0.3,1.1,0.6,1.6,1.1L331.8,228.8z
							 M339.2,226.7c0.8,0,1.5,0.1,2.2,0.4s1.2,0.7,1.7,1.2s0.8,1.1,1.1,1.8s0.4,1.5,0.4,2.4s-0.1,1.7-0.4,2.4
							c-0.2,0.7-0.6,1.3-1.1,1.8s-1,0.9-1.7,1.1s-1.4,0.4-2.2,0.4c-0.8,0-1.6-0.1-2.2-0.4s-1.2-0.7-1.7-1.1s-0.8-1.1-1.1-1.8
							c-0.2-0.7-0.4-1.5-0.4-2.4s0.1-1.7,0.4-2.4s0.6-1.3,1.1-1.8s1-0.9,1.7-1.2S338.4,226.7,339.2,226.7z M339.2,236.6
							c1.1,0,1.9-0.4,2.5-1.1s0.8-1.8,0.8-3.1s-0.3-2.4-0.8-3.1s-1.4-1.1-2.5-1.1c-0.6,0-1,0.1-1.5,0.3c-0.4,0.2-0.8,0.5-1,0.8
							s-0.5,0.8-0.6,1.3s-0.2,1.1-0.2,1.8c0,1.3,0.3,2.3,0.8,3.1S338.1,236.6,339.2,236.6z M347,238v-11.1h1.2
							c0.3,0,0.5,0.1,0.5,0.4l0.1,1.1c0.4-0.5,0.9-0.9,1.4-1.2s1.1-0.5,1.8-0.5c0.7,0,1.4,0.2,1.8,0.6s0.8,1,1,1.7
							c0.2-0.4,0.4-0.8,0.6-1c0.3-0.3,0.5-0.5,0.9-0.7c0.3-0.2,0.7-0.3,1-0.4c0.4-0.1,0.7-0.1,1.1-0.1c0.6,0,1.1,0.1,1.6,0.3
							s0.8,0.5,1.2,0.8c0.3,0.4,0.6,0.8,0.7,1.3c0.2,0.5,0.3,1.1,0.3,1.8v7.1h-2V231c0-0.9-0.2-1.5-0.6-2s-0.9-0.7-1.6-0.7
							c-0.3,0-0.6,0.1-0.9,0.2c-0.3,0.1-0.5,0.3-0.8,0.5s-0.4,0.5-0.5,0.8s-0.2,0.7-0.2,1.2v7.1h-2V231c0-0.9-0.2-1.6-0.5-2
							c-0.4-0.4-0.9-0.7-1.6-0.7c-0.5,0-0.9,0.1-1.3,0.4c-0.4,0.3-0.8,0.6-1.1,1.1v8.3H347V238z M365.8,238v-9.5l-1.2-0.1
							c-0.2,0-0.3-0.1-0.4-0.2s-0.1-0.2-0.1-0.3v-0.8h1.8V226c0-0.6,0.1-1.2,0.3-1.7c0.2-0.5,0.4-0.9,0.8-1.3s0.7-0.6,1.2-0.8
							s1-0.3,1.6-0.3c0.5,0,1,0.1,1.4,0.2v1c0,0.2-0.1,0.3-0.3,0.3s-0.4,0-0.7,0c-0.3,0-0.6,0-0.9,0.1s-0.5,0.2-0.7,0.4
							s-0.4,0.5-0.5,0.8s-0.2,0.7-0.2,1.2v1h3.2v1.4H368v9.5h-2.2V238z M377.5,226.7c0.8,0,1.5,0.1,2.2,0.4s1.2,0.7,1.7,1.2
							s0.8,1.1,1.1,1.8s0.4,1.5,0.4,2.4s-0.1,1.7-0.4,2.4c-0.2,0.7-0.6,1.3-1.1,1.8s-1,0.9-1.7,1.1s-1.4,0.4-2.2,0.4
							c-0.8,0-1.6-0.1-2.2-0.4s-1.2-0.7-1.7-1.1s-0.8-1.1-1.1-1.8c-0.2-0.7-0.4-1.5-0.4-2.4s0.1-1.7,0.4-2.4s0.6-1.3,1.1-1.8
							s1-0.9,1.7-1.2S376.7,226.7,377.5,226.7z M377.5,236.6c1.1,0,1.9-0.4,2.5-1.1s0.8-1.8,0.8-3.1s-0.3-2.4-0.8-3.1
							s-1.4-1.1-2.5-1.1c-0.6,0-1,0.1-1.5,0.3c-0.4,0.2-0.8,0.5-1,0.8s-0.5,0.8-0.6,1.3s-0.2,1.1-0.2,1.8c0,1.3,0.3,2.3,0.8,3.1
							S376.4,236.6,377.5,236.6z M387.2,229.1c0.4-0.8,0.8-1.4,1.3-1.8s1.1-0.6,1.9-0.6c0.2,0,0.5,0,0.7,0.1s0.4,0.1,0.6,0.2
							l-0.1,1.5c0,0.2-0.2,0.3-0.3,0.3c-0.1,0-0.3,0-0.5-0.1c-0.2,0-0.4-0.1-0.7-0.1c-0.4,0-0.7,0.1-0.9,0.2
							c-0.3,0.1-0.5,0.3-0.7,0.5s-0.4,0.5-0.6,0.7c-0.2,0.3-0.3,0.6-0.5,1v7h-2v-11.1h1.1c0.2,0,0.4,0,0.4,0.1
							c0.1,0.1,0.1,0.2,0.2,0.4L387.2,229.1z M396.7,238.2c-0.9,0-1.6-0.2-2-0.7c-0.5-0.5-0.7-1.2-0.7-2.1v-6.8h-1.3
							c-0.1,0-0.2,0-0.3-0.1c-0.1-0.1-0.1-0.2-0.1-0.3v-0.8l1.8-0.2l0.5-3.4c0-0.1,0.1-0.2,0.1-0.3s0.2-0.1,0.3-0.1h1v3.8h3.2v1.4
							H396v6.7c0,0.5,0.1,0.8,0.3,1c0.2,0.2,0.5,0.3,0.9,0.3c0.2,0,0.4,0,0.5-0.1c0.2-0.1,0.3-0.1,0.4-0.2c0.1-0.1,0.2-0.1,0.3-0.2
							c0.1-0.1,0.1-0.1,0.2-0.1s0.2,0.1,0.3,0.2l0.6,0.9c-0.3,0.3-0.7,0.6-1.2,0.7C397.7,238.1,397.2,238.2,396.7,238.2z M407.2,233
							c-0.9,0-1.7,0.1-2.3,0.2s-1.2,0.3-1.6,0.4c-0.4,0.2-0.7,0.4-0.9,0.6s-0.3,0.5-0.3,0.8s0,0.5,0.1,0.8s0.2,0.4,0.4,0.5
							c0.2,0.1,0.4,0.2,0.6,0.3s0.5,0.1,0.7,0.1c0.3,0,0.7,0,0.9-0.1c0.3-0.1,0.6-0.2,0.8-0.3c0.3-0.1,0.5-0.3,0.7-0.5
							s0.5-0.4,0.7-0.6V233H407.2z M400.9,228.4c0.6-0.6,1.3-1,2-1.3s1.5-0.4,2.4-0.4c0.6,0,1.2,0.1,1.7,0.3s0.9,0.5,1.2,0.9
							c0.3,0.4,0.6,0.8,0.7,1.3c0.2,0.5,0.3,1.1,0.3,1.7v7.1h-0.9c-0.2,0-0.3,0-0.4-0.1s-0.2-0.2-0.2-0.4l-0.2-1.1
							c-0.3,0.3-0.6,0.5-0.9,0.7s-0.6,0.4-0.9,0.5s-0.6,0.3-1,0.3c-0.3,0.1-0.7,0.1-1.2,0.1c-0.4,0-0.8-0.1-1.2-0.2
							c-0.4-0.1-0.7-0.3-1-0.5s-0.5-0.5-0.7-0.9s-0.2-0.8-0.2-1.3c0-0.4,0.1-0.9,0.4-1.3s0.6-0.8,1.2-1.1c0.5-0.3,1.3-0.6,2.1-0.8
							c0.9-0.2,1.9-0.3,3.2-0.3v-0.9c0-0.9-0.2-1.5-0.6-2c-0.4-0.4-0.9-0.7-1.6-0.7c-0.5,0-0.9,0.1-1.2,0.2
							c-0.3,0.1-0.6,0.3-0.8,0.4s-0.4,0.3-0.6,0.4s-0.3,0.2-0.5,0.2c-0.1,0-0.2,0-0.3-0.1c-0.1-0.1-0.2-0.2-0.2-0.3L400.9,228.4z
							 M414.1,235.3c0.4,0.5,0.8,0.8,1.2,1c0.4,0.2,0.9,0.3,1.4,0.3c1,0,1.9-0.4,2.4-1.1c0.6-0.7,0.8-1.8,0.8-3.3
							c0-1.4-0.2-2.4-0.7-3s-1.2-1-2.1-1c-0.6,0-1.2,0.1-1.7,0.4c-0.5,0.3-0.9,0.7-1.3,1.2L414.1,235.3L414.1,235.3z M414.1,228.5
							c0.5-0.5,1-1,1.6-1.3s1.3-0.5,2-0.5s1.2,0.1,1.8,0.4c0.5,0.2,1,0.6,1.3,1.1c0.4,0.5,0.6,1,0.8,1.7c0.2,0.7,0.3,1.4,0.3,2.3
							c0,0.9-0.1,1.7-0.3,2.5c-0.2,0.7-0.5,1.4-1,1.9s-0.9,0.9-1.5,1.2s-1.3,0.4-2,0.4s-1.4-0.1-1.9-0.4c-0.5-0.3-0.9-0.7-1.3-1.2
							l-0.1,1c-0.1,0.3-0.2,0.4-0.5,0.4H412v-16.2h2v6.7H414.1z M426.5,221.8V238h-2v-16.2H426.5z M437.1,231.2
							c0-0.5-0.1-0.9-0.2-1.2c-0.1-0.4-0.3-0.7-0.6-1c-0.2-0.3-0.5-0.5-0.9-0.6c-0.4-0.2-0.8-0.2-1.2-0.2c-0.9,0-1.7,0.3-2.2,0.8
							s-0.9,1.3-1,2.3h6.1V231.2z M438.7,236.4c-0.2,0.3-0.5,0.5-0.9,0.8s-0.7,0.4-1.1,0.5s-0.8,0.2-1.2,0.3s-0.8,0.1-1.2,0.1
							c-0.8,0-1.5-0.1-2.1-0.4c-0.6-0.3-1.2-0.6-1.7-1.1s-0.8-1.1-1.1-1.9c-0.3-0.7-0.4-1.6-0.4-2.6c0-0.8,0.1-1.5,0.4-2.2
							c0.2-0.7,0.6-1.3,1-1.8s1-0.9,1.6-1.2s1.4-0.4,2.2-0.4c0.7,0,1.3,0.1,1.9,0.3s1.1,0.5,1.5,1c0.4,0.4,0.7,0.9,1,1.6
							c0.2,0.6,0.4,1.3,0.4,2.1c0,0.3,0,0.5-0.1,0.6s-0.2,0.2-0.4,0.2h-7.4c0,0.7,0.1,1.3,0.3,1.8c0.2,0.5,0.4,1,0.7,1.3
							c0.3,0.3,0.7,0.6,1.1,0.8s0.9,0.3,1.4,0.3s0.9-0.1,1.3-0.2s0.7-0.2,0.9-0.4c0.3-0.1,0.5-0.3,0.6-0.4s0.3-0.2,0.4-0.2
							c0.2,0,0.3,0.1,0.4,0.2L438.7,236.4z M443.6,222.2v6.3c0,0.3,0,0.7,0,1s0,0.6-0.1,1s0,0.6-0.1,1c0,0.3-0.1,0.7-0.1,1.1H442
							c0-0.4-0.1-0.7-0.1-1.1c0-0.3-0.1-0.7-0.1-1s0-0.6-0.1-1c0-0.3,0-0.6,0-1v-6.3H443.6z M441.3,236.8c0-0.2,0-0.4,0.1-0.5
							c0.1-0.2,0.2-0.3,0.3-0.4s0.3-0.2,0.4-0.3c0.2-0.1,0.3-0.1,0.5-0.1s0.4,0,0.5,0.1c0.2,0.1,0.3,0.2,0.4,0.3s0.2,0.3,0.3,0.4
							c0.1,0.2,0.1,0.3,0.1,0.5s0,0.4-0.1,0.5c-0.1,0.2-0.2,0.3-0.3,0.4s-0.3,0.2-0.4,0.3c-0.2,0.1-0.3,0.1-0.5,0.1s-0.4,0-0.5-0.1
							c-0.2-0.1-0.3-0.2-0.4-0.3s-0.2-0.3-0.3-0.4C441.3,237.2,441.3,237,441.3,236.8z M448.5,221.2c0.3,0.5,0.5,1.1,0.6,1.6
							c0.1,0.6,0.1,1.2,0,1.7c-0.1,0.6-0.3,1.1-0.5,1.6c-0.3,0.5-0.6,1-1.1,1.4l-0.6-0.4c-0.1-0.1-0.2-0.2-0.1-0.3
							c0-0.1,0-0.2,0.1-0.3c0.2-0.2,0.4-0.5,0.5-0.9c0.1-0.3,0.2-0.7,0.3-1.1c0-0.4,0-0.8-0.1-1.2s-0.2-0.8-0.5-1.2
							c-0.1-0.2-0.1-0.3-0.1-0.4s0.1-0.2,0.3-0.3L448.5,221.2z M451.9,221.2c0.3,0.5,0.5,1.1,0.6,1.6c0.1,0.6,0.1,1.2,0,1.7
							c-0.1,0.6-0.3,1.1-0.5,1.6c-0.3,0.5-0.6,1-1.1,1.4l-0.6-0.4c-0.1-0.1-0.2-0.2-0.1-0.3c0-0.1,0-0.2,0.1-0.3
							c0.2-0.2,0.4-0.5,0.5-0.9c0.1-0.3,0.2-0.7,0.3-1.1c0-0.4,0-0.8-0.1-1.2s-0.2-0.8-0.5-1.2c-0.1-0.2-0.1-0.3-0.1-0.4
							c0-0.1,0.1-0.2,0.3-0.3L451.9,221.2z M455,230.6h5.4v1.7H455V230.6z M483.1,230.1c0,1.2-0.2,2.3-0.6,3.2
							c-0.4,1-0.9,1.8-1.6,2.5s-1.5,1.2-2.5,1.6s-2,0.6-3.2,0.6h-5.9v-15.8h5.9c1.2,0,2.2,0.2,3.2,0.6s1.8,0.9,2.5,1.6
							s1.2,1.5,1.6,2.5C483,227.9,483.1,228.9,483.1,230.1z M481,230.1c0-1-0.1-1.8-0.4-2.6s-0.6-1.4-1.1-1.9s-1.1-0.9-1.8-1.2
							c-0.7-0.3-1.5-0.4-2.3-0.4h-3.8v12.3h3.8c0.9,0,1.6-0.1,2.3-0.4c0.7-0.3,1.3-0.7,1.8-1.2s0.9-1.2,1.1-1.9S481,231.1,481,230.1
							z M490.5,226.7c0.8,0,1.5,0.1,2.2,0.4c0.7,0.3,1.2,0.7,1.7,1.2s0.8,1.1,1.1,1.8s0.4,1.5,0.4,2.4s-0.1,1.7-0.4,2.4
							c-0.2,0.7-0.6,1.3-1.1,1.8s-1,0.9-1.7,1.1c-0.7,0.3-1.4,0.4-2.2,0.4c-0.8,0-1.6-0.1-2.2-0.4c-0.7-0.3-1.2-0.7-1.7-1.1
							s-0.8-1.1-1.1-1.8c-0.2-0.7-0.4-1.5-0.4-2.4s0.1-1.7,0.4-2.4s0.6-1.3,1.1-1.8s1-0.9,1.7-1.2
							C488.9,226.8,489.6,226.7,490.5,226.7z M490.5,236.6c1.1,0,1.9-0.4,2.5-1.1s0.8-1.8,0.8-3.1s-0.3-2.4-0.8-3.1
							s-1.4-1.1-2.5-1.1c-0.6,0-1,0.1-1.5,0.3c-0.4,0.2-0.8,0.5-1,0.8s-0.5,0.8-0.6,1.3s-0.2,1.1-0.2,1.8c0,1.3,0.3,2.3,0.8,3.1
							C488.5,236.3,489.3,236.6,490.5,236.6z M500.1,228.5c0.2-0.3,0.5-0.5,0.8-0.7s0.6-0.4,0.9-0.6c0.3-0.2,0.6-0.3,1-0.4
							s0.7-0.1,1.1-0.1c0.6,0,1.1,0.1,1.6,0.3s0.9,0.5,1.2,0.9c0.3,0.4,0.5,0.8,0.7,1.3s0.2,1.1,0.2,1.7v7.1h-2v-7.1
							c0-0.8-0.2-1.5-0.6-2s-1-0.7-1.8-0.7c-0.6,0-1.1,0.1-1.6,0.4c-0.5,0.3-1,0.7-1.4,1.1v8.2h-2v-11.1h1.2c0.3,0,0.5,0.1,0.5,0.4
							L500.1,228.5z M512.4,228.5c0.2-0.3,0.5-0.5,0.8-0.7s0.6-0.4,0.9-0.6c0.3-0.2,0.6-0.3,1-0.4s0.7-0.1,1.1-0.1
							c0.6,0,1.1,0.1,1.6,0.3s0.9,0.5,1.2,0.9s0.5,0.8,0.7,1.3s0.2,1.1,0.2,1.7v7.1h-2v-7.1c0-0.8-0.2-1.5-0.6-2s-1-0.7-1.8-0.7
							c-0.6,0-1.1,0.1-1.6,0.4c-0.5,0.3-1,0.7-1.4,1.1v8.2h-2v-11.1h1.2c0.3,0,0.5,0.1,0.5,0.4L512.4,228.5z M528.8,233
							c-0.9,0-1.7,0.1-2.3,0.2s-1.2,0.3-1.6,0.4s-0.7,0.4-0.9,0.6c-0.2,0.2-0.3,0.5-0.3,0.8s0,0.5,0.1,0.8s0.2,0.4,0.4,0.5
							s0.4,0.2,0.6,0.3c0.2,0.1,0.5,0.1,0.7,0.1c0.3,0,0.7,0,0.9-0.1c0.3-0.1,0.6-0.2,0.8-0.3s0.5-0.3,0.7-0.5s0.5-0.4,0.7-0.6V233
							H528.8z M522.5,228.4c0.6-0.6,1.3-1,2-1.3s1.5-0.4,2.4-0.4c0.6,0,1.2,0.1,1.7,0.3s0.9,0.5,1.2,0.9s0.6,0.8,0.7,1.3
							c0.2,0.5,0.3,1.1,0.3,1.7v7.1h-0.9c-0.2,0-0.3,0-0.4-0.1c-0.1-0.1-0.2-0.2-0.2-0.4l-0.2-1.1c-0.3,0.3-0.6,0.5-0.9,0.7
							s-0.6,0.4-0.9,0.5s-0.6,0.3-1,0.3s-0.7,0.1-1.2,0.1c-0.4,0-0.8-0.1-1.2-0.2c-0.4-0.1-0.7-0.3-1-0.5s-0.5-0.5-0.7-0.9
							s-0.2-0.8-0.2-1.3c0-0.4,0.1-0.9,0.4-1.3s0.6-0.8,1.2-1.1c0.5-0.3,1.3-0.6,2.1-0.8c0.9-0.2,1.9-0.3,3.2-0.3v-0.9
							c0-0.9-0.2-1.5-0.6-2c-0.4-0.4-0.9-0.7-1.6-0.7c-0.5,0-0.9,0.1-1.2,0.2s-0.6,0.3-0.8,0.4s-0.4,0.3-0.6,0.4
							c-0.2,0.1-0.3,0.2-0.5,0.2c-0.1,0-0.2,0-0.3-0.1s-0.2-0.2-0.2-0.3L522.5,228.4z"/>
					</g>
					<g id="Group-4" transform="translate(21.000000, 257.000000)">
						<g id="Page-1">
							<g id="Group-3" transform="translate(0.000000, 0.365472)">
								<path id="Fill-1" class="st3" d="M7.7,39.9c0,1.2,0.7,1.7,1.7,1.3c0.3-0.1,0.5-0.2,0.8-0.3c3.5-1.9,7.1-3.7,10.6-5.6
									c0.5-0.3,0.8-0.2,1.3,0c3.5,1.9,7.1,3.7,10.6,5.6c0.3,0.2,0.7,0.4,1.1,0.4c0.6,0.2,1.1-0.1,1.3-0.7c0.1-0.4,0.1-0.8,0-1.2
									c-0.7-4-1.3-8-2.1-12c-0.1-0.6,0-1,0.5-1.4c2.5-2.3,4.9-4.7,7.3-7.1c0.7-0.6,1.3-1.3,1.9-2c0.6-0.7,0.3-1.4-0.6-1.7
									c-0.3-0.1-0.5-0.1-0.8-0.2c-4-0.6-8.1-1.2-12.1-1.8c-0.3-0.1-0.8-0.3-0.9-0.6C26.5,9,24.7,5.4,22.9,1.8
									c-0.3-0.7-0.6-1.5-1.5-1.5c-1,0-1.2,0.9-1.5,1.5c-1.8,3.6-3.5,7.2-5.3,10.7c-0.1,0.3-0.5,0.5-0.8,0.6
									C11.9,13.4,9.9,13.7,8,14c-2.2,0.3-4.5,0.6-6.7,1c-0.5,0.2-1.1,0.6-1.3,1c-0.1,0.4,0.3,1,0.5,1.4c0.1,0.2,0.3,0.3,0.5,0.5
									c2.8,2.7,5.6,5.5,8.4,8.2c0.4,0.4,0.6,0.7,0.4,1.3c-0.4,2.1-0.7,4.2-1.1,6.4C8.4,35.8,8,37.9,7.7,39.9"/>
							</g>
							<g id="Group-6" transform="translate(0.000000, 0.365472)">
								<path id="Fill-4" class="st4" d="M7.7,39.9c0.3-2,0.7-4.1,1.1-6.2c0.4-2.1,0.7-4.2,1.1-6.4c0.1-0.6-0.1-0.9-0.4-1.3
									c-2.8-2.7-5.6-5.5-8.4-8.2c-0.2-0.2-0.4-0.3-0.5-0.5c-0.3-0.4-0.7-1-0.6-1.3c0.1-0.4,0.8-0.8,1.3-0.9c2.2-0.4,4.5-0.7,6.7-1
									c1.9-0.3,3.9-0.5,5.8-0.9c0.3,0,0.6-0.3,0.8-0.6c1.8-3.6,3.6-7.2,5.3-10.7c0.3-0.7,0.6-1.6,1.5-1.5c0.9,0,1.1,0.8,1.5,1.5
									c1.8,3.6,3.5,7.2,5.4,10.7c0.2,0.3,0.6,0.6,0.9,0.6c4,0.6,8.1,1.2,12.1,1.8c0.3,0,0.5,0.1,0.8,0.2c0.9,0.3,1.1,1,0.6,1.7
									c-0.6,0.7-1.2,1.3-1.9,2c-2.4,2.4-4.9,4.7-7.3,7.1c-0.4,0.4-0.6,0.8-0.5,1.4c0.7,4,1.4,8,2.1,12c0.1,0.4,0.1,0.8,0,1.2
									c-0.2,0.6-0.6,0.9-1.3,0.7c-0.4-0.1-0.7-0.3-1.1-0.4c-3.5-1.9-7.1-3.7-10.6-5.6c-0.5-0.2-0.8-0.3-1.3,0
									c-3.5,1.9-7.1,3.7-10.6,5.6C10,41,9.7,41.2,9.4,41.2C8.4,41.6,7.7,41.1,7.7,39.9"/>
							</g>
							<g id="Group-9" transform="translate(51.152930, 0.365472)">
								<path id="Fill-7" class="st3" d="M7.9,39.9c0,1.2,0.7,1.7,1.7,1.3c0.3-0.1,0.5-0.2,0.8-0.3c3.5-1.9,7.1-3.7,10.6-5.6
									c0.5-0.3,0.8-0.2,1.3,0c3.5,1.9,7.1,3.7,10.6,5.6c0.3,0.2,0.7,0.4,1.1,0.4c0.6,0.2,1.1-0.1,1.3-0.7c0.1-0.4,0.1-0.8,0-1.2
									c-0.7-4-1.3-8-2.1-12c-0.1-0.6,0-1,0.5-1.4c2.5-2.3,4.9-4.7,7.3-7.1c0.7-0.6,1.3-1.3,1.9-2c0.6-0.7,0.3-1.4-0.6-1.7
									c-0.3-0.1-0.5-0.1-0.8-0.2c-4-0.6-8.1-1.2-12.1-1.8c-0.3-0.1-0.8-0.3-0.9-0.6C26.6,9,24.9,5.4,23.1,1.8
									c-0.3-0.7-0.6-1.5-1.5-1.5c-1,0-1.2,0.9-1.5,1.5c-1.8,3.6-3.5,7.2-5.3,10.7c-0.1,0.3-0.5,0.5-0.8,0.6
									c-1.9,0.3-3.9,0.6-5.8,0.9c-2.2,0.3-4.5,0.6-6.7,1c-0.5,0.2-1.2,0.6-1.3,1s0.3,1,0.5,1.4c0.1,0.2,0.3,0.3,0.5,0.5
									c2.8,2.7,5.6,5.5,8.4,8.2c0.4,0.4,0.6,0.7,0.4,1.3c-0.4,2.1-0.7,4.2-1.1,6.4C8.6,35.8,8.2,37.9,7.9,39.9"/>
							</g>
							<g id="Group-12" transform="translate(51.152930, 0.365472)">
								<path id="Fill-10" class="st4" d="M7.9,39.9c0.3-2,0.7-4.1,1.1-6.2s0.7-4.2,1.1-6.4c0.1-0.6-0.1-0.9-0.4-1.3
									c-2.8-2.7-5.6-5.5-8.4-8.2c-0.2-0.2-0.4-0.3-0.5-0.5c-0.2-0.5-0.6-1.1-0.5-1.4c0.1-0.4,0.8-0.8,1.3-0.9
									c2.2-0.4,4.5-0.7,6.7-1c1.9-0.3,3.9-0.5,5.8-0.9c0.3,0,0.6-0.3,0.8-0.6c1.8-3.6,3.6-7.2,5.3-10.7c0.3-0.7,0.6-1.6,1.5-1.5
									c0.9,0,1.1,0.8,1.5,1.5C25,5.4,26.7,9,28.6,12.5c0.2,0.3,0.6,0.6,0.9,0.6c4,0.6,8.1,1.2,12.1,1.8c0.3,0,0.5,0.1,0.8,0.2
									c0.9,0.3,1.1,1,0.6,1.7c-0.6,0.7-1.2,1.3-1.9,2c-2.4,2.4-4.9,4.7-7.3,7.1c-0.4,0.4-0.6,0.8-0.5,1.4c0.7,4,1.4,8,2.1,12
									c0.1,0.4,0.1,0.8,0,1.2c-0.2,0.6-0.6,0.9-1.3,0.7c-0.4-0.1-0.7-0.3-1.1-0.4c-3.5-1.9-7.1-3.7-10.6-5.6
									c-0.5-0.2-0.8-0.3-1.3,0c-3.5,1.9-7.1,3.7-10.6,5.6c-0.2,0.1-0.5,0.3-0.8,0.3C8.6,41.6,7.9,41.1,7.9,39.9"/>
							</g>
							<g id="Group-15" transform="translate(102.115842, 0.365472)">
								<path id="Fill-13" class="st3" d="M8.2,39.9c0,1.2,0.7,1.7,1.7,1.3c0.3-0.1,0.5-0.2,0.8-0.3c3.5-1.9,7.1-3.7,10.6-5.6
									c0.5-0.3,0.8-0.2,1.3,0c3.5,1.9,7.1,3.7,10.6,5.6c0.3,0.2,0.7,0.4,1.1,0.4c0.6,0.2,1.1-0.1,1.3-0.7c0.1-0.4,0.1-0.8,0-1.2
									c-0.7-4-1.3-8-2.1-12c-0.1-0.6,0-1,0.5-1.4c2.5-2.3,4.9-4.7,7.3-7.1c0.7-0.6,1.3-1.3,1.9-2c0.6-0.7,0.3-1.4-0.6-1.7
									c-0.3-0.1-0.5-0.1-0.8-0.2c-4-0.6-8.1-1.2-12.1-1.8c-0.3-0.1-0.8-0.3-0.9-0.6C27,9,25.2,5.4,23.5,1.8
									c-0.3-0.7-0.6-1.5-1.5-1.5c-1,0-1.2,0.9-1.5,1.5C18.7,5.4,17,9,15.2,12.5c-0.1,0.3-0.5,0.5-0.8,0.6
									c-1.9,0.3-3.9,0.6-5.8,0.9c-2.2,0.3-4.5,0.6-6.7,1c-0.5,0.1-1.1,0.5-1.3,0.9c-0.1,0.4,0.3,1,0.5,1.4
									c0.1,0.2,0.3,0.3,0.5,0.5c2.8,2.7,5.6,5.5,8.4,8.2c0.4,0.4,0.6,0.7,0.4,1.3c-0.4,2.1-0.7,4.2-1.1,6.4
									C8.9,35.8,8.6,37.9,8.2,39.9"/>
							</g>
							<g id="Group-18" transform="translate(102.115842, 0.365472)">
								<path id="Fill-16" class="st4" d="M8.2,39.9c0.3-2,0.7-4.1,1.1-6.2c0.4-2.1,0.7-4.2,1.1-6.4c0.1-0.6-0.1-0.9-0.4-1.3
									c-2.8-2.7-5.6-5.5-8.4-8.2c-0.2-0.2-0.4-0.3-0.5-0.5c-0.2-0.5-0.6-1.1-0.5-1.4c0.1-0.4,0.8-0.8,1.3-0.9
									c2.2-0.4,4.5-0.7,6.7-1c1.9-0.3,3.9-0.5,5.8-0.9c0.3,0,0.6-0.3,0.8-0.6c1.8-3.6,3.6-7.2,5.3-10.7C20.8,1.2,21,0.3,22,0.3
									c0.9,0,1.1,0.8,1.5,1.5C25.2,5.4,27,9,28.8,12.6c0.2,0.3,0.6,0.6,0.9,0.6c4,0.6,8.1,1.2,12.1,1.8c0.3,0,0.5,0.1,0.8,0.2
									c0.9,0.3,1.1,1,0.6,1.7c-0.6,0.7-1.2,1.3-1.9,2c-2.4,2.4-4.9,4.7-7.3,7.1c-0.4,0.4-0.6,0.8-0.5,1.4c0.7,4,1.4,8,2.1,12
									c0.1,0.4,0.1,0.8,0,1.2c-0.2,0.6-0.6,0.9-1.3,0.7c-0.4-0.1-0.7-0.3-1.1-0.4c-3.5-1.9-7.1-3.7-10.6-5.6
									c-0.5-0.2-0.8-0.3-1.3,0c-3.5,1.9-7.1,3.7-10.6,5.6c-0.2,0.1-0.5,0.3-0.8,0.3C8.9,41.6,8.2,41.1,8.2,39.9"/>
							</g>
							<g id="Group-21" transform="translate(153.078755, 0.365472)">
								<path id="Fill-19" class="st3" d="M8.6,39.9c0,1.2,0.7,1.7,1.7,1.3c0.3-0.1,0.5-0.2,0.8-0.3c3.5-1.9,7.1-3.7,10.6-5.6
									c0.5-0.3,0.8-0.2,1.3,0c3.5,1.9,7.1,3.7,10.6,5.6c0.3,0.2,0.7,0.4,1.1,0.4c0.6,0.2,1.1-0.1,1.3-0.7c0.1-0.4,0.1-0.8,0-1.2
									c-0.7-4-1.3-8-2.1-12c-0.1-0.6,0-1,0.5-1.4c2.5-2.3,4.9-4.7,7.3-7.1c0.7-0.6,1.3-1.3,1.9-2c0.6-0.7,0.3-1.4-0.6-1.7
									c-0.3-0.1-0.5-0.1-0.8-0.2c-4-0.6-8.1-1.2-12.1-1.8c-0.3-0.1-0.8-0.3-0.9-0.6C27.4,9,25.6,5.4,23.8,1.8
									c-0.3-0.7-0.6-1.5-1.5-1.5c-1,0-1.2,0.9-1.5,1.5C19,5.4,17.3,9,15.5,12.5c-0.1,0.3-0.5,0.5-0.8,0.6
									c-1.9,0.3-3.9,0.6-5.8,0.9c-2.2,0.3-4.5,0.6-6.7,1c-0.5,0.2-1.2,0.6-1.3,1s0.3,1,0.5,1.4c0.1,0.2,0.3,0.3,0.5,0.5
									c2.8,2.7,5.6,5.5,8.4,8.2c0.4,0.4,0.6,0.7,0.4,1.3c-0.4,2.1-0.7,4.2-1.1,6.4C9.3,35.8,8.9,37.9,8.6,39.9"/>
							</g>
							<g id="Group-24" transform="translate(153.000000, 0.000000)">
								<path id="Fill-22" class="st4" d="M8.6,39.9c0.3-2,0.7-4.1,1.1-6.2c0.4-2.1,0.7-4.2,1.1-6.4c0.1-0.6-0.1-0.9-0.4-1.3
									c-2.8-2.7-5.6-5.5-8.4-8.2c-0.2-0.2-0.4-0.3-0.5-0.5c-0.2-0.5-0.6-1.1-0.5-1.4c0.1-0.4,0.8-0.8,1.3-0.9
									c2.2-0.4,4.5-0.7,6.7-1c1.9-0.3,3.9-0.5,5.8-0.9c0.3,0,0.6-0.3,0.8-0.6c1.8-3.6,3.6-7.2,5.3-10.7c0.3-0.7,0.6-1.6,1.5-1.5
									c0.9,0,1.1,0.8,1.5,1.5c1.8,3.6,3.5,7.2,5.4,10.7c0.2,0.3,0.6,0.6,0.9,0.6c4,0.6,8.1,1.2,12.1,1.8c0.3,0,0.5,0.1,0.8,0.2
									c0.9,0.3,1.1,1,0.6,1.7c-0.6,0.7-1.2,1.3-1.9,2c-2.4,2.4-4.9,4.7-7.3,7.1c-0.4,0.4-0.6,0.8-0.5,1.4c0.7,4,1.4,8,2.1,12
									c0.1,0.4,0.1,0.8,0,1.2c-0.2,0.6-0.6,0.9-1.3,0.7c-0.4-0.1-0.7-0.3-1.1-0.4c-3.5-1.9-7.1-3.7-10.6-5.6
									c-0.5-0.2-0.8-0.3-1.3,0c-3.5,1.9-7.1,3.7-10.6,5.6c-0.2,0.1-0.5,0.3-0.8,0.3C9.3,41.6,8.6,41.1,8.6,39.9"/>
							</g>
							<g id="Group-24-Copy" transform="translate(201.000000, 0.000000)">
								<path id="Fill-22_1_" class="st4" d="M8.6,39.9c0.3-2,0.7-4.1,1.1-6.2c0.4-2.1,0.7-4.2,1.1-6.4c0.1-0.6-0.1-0.9-0.4-1.3
									c-2.8-2.7-5.6-5.5-8.4-8.2c-0.2-0.2-0.4-0.3-0.5-0.5c-0.2-0.5-0.6-1.1-0.5-1.4c0.1-0.4,0.8-0.8,1.3-0.9
									c2.2-0.4,4.5-0.7,6.7-1c1.9-0.3,3.9-0.5,5.8-0.9c0.3,0,0.6-0.3,0.8-0.6c1.8-3.6,3.6-7.2,5.3-10.7c0.3-0.7,0.6-1.6,1.5-1.5
									c0.9,0,1.1,0.8,1.5,1.5c1.8,3.6,3.5,7.2,5.4,10.7c0.2,0.3,0.6,0.6,0.9,0.6c4,0.6,8.1,1.2,12.1,1.8c0.3,0,0.5,0.1,0.8,0.2
									c0.9,0.3,1.1,1,0.6,1.7c-0.6,0.7-1.2,1.3-1.9,2c-2.4,2.4-4.9,4.7-7.3,7.1c-0.4,0.4-0.6,0.8-0.5,1.4c0.7,4,1.4,8,2.1,12
									c0.1,0.4,0.1,0.8,0,1.2c-0.2,0.6-0.6,0.9-1.3,0.7c-0.4-0.1-0.7-0.3-1.1-0.4c-3.5-1.9-7.1-3.7-10.6-5.6
									c-0.5-0.2-0.8-0.3-1.3,0c-3.5,1.9-7.1,3.7-10.6,5.6c-0.2,0.1-0.5,0.3-0.8,0.3C9.3,41.6,8.6,41.1,8.6,39.9"/>
							</g>
							<g id="Group-30">
								<g id="Clip-29">
								</g>
							</g>
							<g id="Group-30-Copy" transform="translate(48.000000, 0.000000)">
								<g id="Clip-29_1_">
								</g>
							</g>
						</g>
					</g>
				</g>
			</g>
		</g>
	</g>
</g>
</svg>
