<?xml version="1.0" encoding="UTF-8"?>
<svg width="594px" height="242px" viewBox="0 0 594 242" version="1.1" xmlns="http://www.w3.org/2000/svg" xmlns:xlink="http://www.w3.org/1999/xlink">
    <!-- Generator: Sketch 47 (45396) - http://www.bohemiancoding.com/sketch -->
    <title>Group 2</title>
    <desc>Created with Sketch.</desc>
    <defs></defs>
    <g id="Page-1" stroke="none" stroke-width="1" fill="none" fill-rule="evenodd">
        <g id="slide2-text" fill-rule="nonzero">
            <g id="Group-2">
                <g id="Group-14">
                    <g id="loved-my" transform="translate(33.000000, 11.000000)">
                        <path d="M0.7,0.2 L0.7,87 L27,87 L27,0.2 L0.7,0.2 Z M71.9,22.1 C93.9,22.1 108.1,35 108.1,55 C108.1,75 93.9,88 71.9,88 C49.9,88 35.7,75 35.7,55 C35.7,35 49.9,22.1 71.9,22.1 Z M71.9,42.9 C66.1,42.9 62.3,47.8 62.3,55.3 C62.3,62.8 66,67.7 71.9,67.7 C77.8,67.7 81.5,62.8 81.5,55.3 C81.5,47.8 77.8,42.9 71.9,42.9 Z M106.9,23 L133.9,23 L144.1,63.1 L154.5,23 L180.8,23 L157.2,87 L130.3,87 L106.9,23 Z M213.8,22.1 C236.1,22.1 249.3,37.3 247.8,60.9 L206.1,60.9 C207.9,65.9 211.6,68.5 216.7,68.5 C221.1,68.5 225.7,66.5 229.7,62.8 L243.4,76.3 C236.6,83.8 226.8,88 214.4,88 C192.5,88 179.5,75.1 179.5,55.4 C179.7,35.1 193.3,22.1 213.8,22.1 Z M221.6,48.7 C222,43.4 218.7,39.6 214.1,39.6 C209.5,39.6 206.7,43.3 205.7,48.7 C205.7,48.7 221.6,48.7 221.6,48.7 Z M297.2,0.2 L323.5,0.2 L323.5,87 L297.2,87 L297.2,80.6 C293.1,85.4 287.5,88 280.9,88 C263.1,88 251.5,74.9 251.5,54.7 C251.5,34.9 262.7,22.2 280.2,22.2 C287.1,22.2 293,24.9 297.2,29.7 L297.2,0.2 L297.2,0.2 Z M287.7,67.7 C293.4,67.7 297.2,62.8 297.2,55.3 C297.2,47.8 293.5,42.9 287.7,42.9 C281.8,42.9 278.1,47.8 278.1,55.3 C278.1,62.8 281.8,67.7 287.7,67.7 Z M459.1,21.8 C449.5,21.8 442.3,26.8 438.2,35.5 C434.8,27 427.2,21.8 417.5,21.8 C409.2,21.8 402.8,25.5 398.4,32 L398.4,23 L372,23 L372,87 L398.3,87 L398.3,55.3 C398.3,49.1 401.5,45 406.4,45 C410.7,45 413.7,48.4 413.7,53.8 L413.7,87 L440,87 L440,55.3 C440,49.1 443.2,45 448.1,45 C452.4,45 455.4,48.4 455.4,53.8 L455.4,87 L481.7,87 L481.7,46.2 C481.7,31.4 472.3,21.8 459.1,21.8 Z M534.2,91.4 L560.5,23 L534.3,23 L523.9,59.5 L511.3,23 L484.3,23 L510.9,85 L510,86.5 C508.7,88.7 506.7,89.8 503.7,89.8 C500.5,89.8 498,88.6 495.2,86.1 L484.2,103.4 C491.1,108.5 497.9,110.9 506.3,110.9 C519.8,110.9 528.8,104.8 534.2,91.4 Z" id="path-1_2_" fill="#000000"></path>
                        <path d="M0.7,0.2 L0.7,87 L27,87 L27,0.2 L0.7,0.2 Z M71.9,22.1 C93.9,22.1 108.1,35 108.1,55 C108.1,75 93.9,88 71.9,88 C49.9,88 35.7,75 35.7,55 C35.7,35 49.9,22.1 71.9,22.1 Z M71.9,42.9 C66.1,42.9 62.3,47.8 62.3,55.3 C62.3,62.8 66,67.7 71.9,67.7 C77.8,67.7 81.5,62.8 81.5,55.3 C81.5,47.8 77.8,42.9 71.9,42.9 Z M106.9,23 L133.9,23 L144.1,63.1 L154.5,23 L180.8,23 L157.2,87 L130.3,87 L106.9,23 Z M213.8,22.1 C236.1,22.1 249.3,37.3 247.8,60.9 L206.1,60.9 C207.9,65.9 211.6,68.5 216.7,68.5 C221.1,68.5 225.7,66.5 229.7,62.8 L243.4,76.3 C236.6,83.8 226.8,88 214.4,88 C192.5,88 179.5,75.1 179.5,55.4 C179.7,35.1 193.3,22.1 213.8,22.1 Z M221.6,48.7 C222,43.4 218.7,39.6 214.1,39.6 C209.5,39.6 206.7,43.3 205.7,48.7 C205.7,48.7 221.6,48.7 221.6,48.7 Z M297.2,0.2 L323.5,0.2 L323.5,87 L297.2,87 L297.2,80.6 C293.1,85.4 287.5,88 280.9,88 C263.1,88 251.5,74.9 251.5,54.7 C251.5,34.9 262.7,22.2 280.2,22.2 C287.1,22.2 293,24.9 297.2,29.7 L297.2,0.2 L297.2,0.2 Z M287.7,67.7 C293.4,67.7 297.2,62.8 297.2,55.3 C297.2,47.8 293.5,42.9 287.7,42.9 C281.8,42.9 278.1,47.8 278.1,55.3 C278.1,62.8 281.8,67.7 287.7,67.7 Z M459.1,21.8 C449.5,21.8 442.3,26.8 438.2,35.5 C434.8,27 427.2,21.8 417.5,21.8 C409.2,21.8 402.8,25.5 398.4,32 L398.4,23 L372,23 L372,87 L398.3,87 L398.3,55.3 C398.3,49.1 401.5,45 406.4,45 C410.7,45 413.7,48.4 413.7,53.8 L413.7,87 L440,87 L440,55.3 C440,49.1 443.2,45 448.1,45 C452.4,45 455.4,48.4 455.4,53.8 L455.4,87 L481.7,87 L481.7,46.2 C481.7,31.4 472.3,21.8 459.1,21.8 Z M534.2,91.4 L560.5,23 L534.3,23 L523.9,59.5 L511.3,23 L484.3,23 L510.9,85 L510,86.5 C508.7,88.7 506.7,89.8 503.7,89.8 C500.5,89.8 498,88.6 495.2,86.1 L484.2,103.4 C491.1,108.5 497.9,110.9 506.3,110.9 C519.8,110.9 528.8,104.8 534.2,91.4 Z" id="path-1_1_" fill="#157A9E"></path>
                    </g>
                    <g id="Group" transform="translate(27.000000, 107.000000)" fill="#444444">
                        <path d="M516.2,53.4 C514.1,53.4 511.6,54.9 511.6,56.7 C511.6,58.2 512.8,58.9 514.2,58.9 C516.3,58.9 518.4,57 518.4,55.4 C518.3,53.8 517.5,53.4 516.2,53.4 Z" id="Shape"></path>
                        <path d="M364.3,23.4 C366.9,23.4 369.5,21.1 369.5,19.1 C369.5,17.3 368.5,16.6 366.9,16.6 C364.3,16.6 361.1,18.5 361.1,20.8 C361,22.6 362.5,23.4 364.3,23.4 Z" id="Shape"></path>
                        <path d="M189.2,6.3 C189.2,4.1 188.2,0.4 186.6,0.4 C181.8,0.4 166.1,28.7 162.5,45.9 C157.9,53.8 153,57.7 150.2,57.7 C148.3,57.7 147.5,55.8 147.5,54.2 C147.5,50.4 152.1,44.9 152.1,43.1 C152.1,41.9 149.9,41.3 148.9,41.1 C145,46.9 137.1,58.5 132.1,58.5 C130.7,58.5 129.9,57.5 129.9,55.4 C129.9,47.6 138.9,32.8 146.4,32.8 C149.3,32.8 150.3,34.9 150.3,37.3 C150.3,38.2 150.1,39.2 149.9,40.1 C152.2,40.1 153.8,39.3 153.8,36.7 C153.8,33.1 150.7,30.7 146.5,30.7 C138.1,30.7 128.8,40.6 125.5,49.4 C121.7,55.3 117.2,58.9 112.6,58.9 C109.4,58.9 108.1,57.1 108.1,52.5 C108.1,46.8 110,40.7 112.5,35.1 L113.7,35.1 C117.3,35.1 121.9,34.8 127.8,34.1 L127.8,32.7 C123.8,33.1 119.9,33.2 116.4,33.2 L113.4,33.2 C118,23.4 124,15 124,12.2 C124,11.1 123.1,10.4 122.3,10.4 C119,10.4 112.9,21.4 108.4,32.9 C106.9,32.8 105.7,32.7 104.9,32.6 L104.9,34 C105.8,34.3 106.7,34.5 107.8,34.6 C106.2,38.8 104.9,43 104.1,46.7 C101.2,52.1 97.4,57.6 93.7,57.6 C92.3,57.6 91.3,56.8 91.3,54.6 C91.3,50.7 94.6,46.9 94.6,42 C94.6,38.4 92.8,34.8 88.7,34.8 C82.6,34.8 76.3,42.4 72.1,48.9 C73.5,44.5 74.7,40 74.7,38.3 C74.7,37 74,36.2 72.5,36.2 C71,36.2 69.5,37.2 68.8,37.9 C68.8,40.2 68.1,43.1 67.3,45.9 C63.2,53.3 56.4,59.3 49.8,59.3 C44.8,59.3 43.5,55.9 43.5,52.6 C43.5,51.8 43.6,50.8 43.8,49.7 C52.9,48.8 63.6,42.3 63.6,34.2 C63.6,30.3 61.1,29.3 58.6,29.3 C50.2,29.3 40.7,40 38.7,49 C35.4,54 31.2,57 28.5,57 C26.7,57 26.7,55.6 26.7,52.5 C26.7,36.7 45.1,7.4 45.1,2.3 C45.1,1.3 44.4,0.5 43.5,0.5 C39.1,0.5 31.9,19.2 26,34.7 C20.9,48.1 13,56.7 8.7,56.7 C6.9,56.7 5.8,55.3 5.8,52.9 C5.8,46.7 13.4,31.8 22,31.8 C23.4,31.8 24.5,32.2 25,33 C25.1,32.6 25.2,32.3 25.2,31.9 C25.2,30.2 23.9,29.4 21.7,29.4 C11.8,29.4 0.2,45 0.2,53.9 C0.2,58.6 3.5,60.6 6.2,60.6 C11.1,60.6 17.3,54.3 22.5,45.7 C21.5,49.4 21,52.4 21,54.3 C21,57.1 22.3,60.3 26.3,60.3 C30.2,60.3 34.8,57.2 38.3,52.4 L38.3,52.4 C38.3,57.6 41.6,61.7 48.1,61.7 C54.3,61.7 60.8,57.9 65.4,51.6 C64.2,54.8 63.2,57.2 63.2,57.6 C64.1,58.8 65.8,59.4 67.4,59.4 C71.6,52.4 78.9,39.6 85.6,39.6 C87.4,39.6 88.8,40.6 88.8,43.5 C88.8,47.3 86.5,51.3 86.5,54.6 C86.5,57.6 88.3,59.7 92.1,59.7 C96.7,59.7 100.5,56.3 103.5,51.1 C103.4,52.1 103.3,53 103.3,53.8 C103.3,59.1 105.8,61.7 110.4,61.7 C115.6,61.7 120.6,58.5 124.5,53.5 C124.4,54.1 124.4,54.6 124.4,55.2 C124.4,59.7 127,61.8 130.3,61.8 C134.2,61.8 137.7,58.7 142.4,52.5 C142.2,53.4 142.2,54.2 142.2,54.8 C142.2,57.6 144,60.4 148,60.4 C152.7,60.4 158.2,56.3 161.9,49.9 C161.8,50.7 161.8,51.5 161.8,52.2 C161.8,56.9 163.6,60.4 168.2,60.4 C174,60.4 179,54.8 183.2,45.7 L182,45.1 C179.2,51.3 174.7,57.9 170.5,57.9 C168.2,57.9 167,55.9 167,51.7 C167,49.3 167.4,46.5 168,43.6 C179.6,33.9 189.2,13.4 189.2,6.3 Z M186.1,6.9 C186.3,6.9 186.7,7.1 186.7,8.2 C186.7,13.6 177.9,31.6 168.6,40.9 C173,25.4 184,6.9 186.1,6.9 Z M58.4,31.7 C59.8,31.7 60.1,32.3 60.1,33.5 C60.1,40.4 49.9,46.1 44.2,48.1 C46.4,40.5 53.3,31.7 58.4,31.7 Z" id="Shape"></path>
                        <path d="M503.7,53.4 C501.6,53.4 499.1,54.9 499.1,56.7 C499.1,58.2 500.3,58.9 501.7,58.9 C503.8,58.9 505.9,57 505.9,55.4 C505.8,53.8 505,53.4 503.7,53.4 Z" id="Shape"></path>
                        <path d="M491.2,53.4 C489.1,53.4 486.6,54.9 486.6,56.7 C486.6,58.2 487.8,58.9 489.2,58.9 C491.3,58.9 493.4,57 493.4,55.4 C493.3,53.8 492.5,53.4 491.2,53.4 Z" id="Shape"></path>
                        <path d="M486.5,45 C482.5,52.7 475.4,59.2 468.6,59.2 C463.6,59.2 462.3,55.8 462.3,52.5 C462.3,51.7 462.4,50.7 462.6,49.6 C471.7,48.7 482.4,42.2 482.4,34.1 C482.4,30.2 479.9,29.2 477.4,29.2 C468.8,29.2 459,40.4 457.3,49.6 C453.5,55.7 447.8,59.4 442.6,59.4 C438,59.4 436.8,56 436.8,52.8 C436.8,45 444.2,33.2 449.9,33.2 C451.3,33.2 451.7,33.9 451.7,35.2 C451.7,37.6 450.3,40.7 448.7,41.5 C449.4,42.4 450.2,42.7 451,42.7 C453.5,42.7 455,40 455,36.9 C455,34.1 453.7,31 449.3,31 C442.4,31 434.6,38.6 432.4,47.4 C429.6,52.6 425.9,57.6 422.4,57.6 C421,57.6 420,56.8 420,54.6 C420,50.7 423.3,46.9 423.3,42 C423.3,38.4 421.5,34.8 417.4,34.8 C411.3,34.8 405,42.4 400.8,48.9 C402.2,44.5 403.4,40 403.4,38.3 C403.4,37 402.7,36.2 401.2,36.2 C399.7,36.2 398.2,37.2 397.5,37.9 C397.5,40.2 396.8,43.1 396,45.9 C391.9,53.3 385.1,59.3 378.5,59.3 C373.5,59.3 372.2,55.9 372.2,52.6 C372.2,51.8 372.3,50.8 372.5,49.7 C381.6,48.8 392.3,42.3 392.3,34.2 C392.3,30.3 389.8,29.3 387.3,29.3 C378.9,29.3 369.4,40 367.4,49.1 C363.7,55.2 360.3,57.4 357.3,57.4 C354.7,57.4 353.4,56.4 353.4,52.6 C353.4,45.1 361.7,35.4 361.7,32.8 C361.7,31.7 360.9,31 359.9,31 C355.9,31 351.5,40 349.5,47.1 C346.9,51.6 341.2,57.3 336.8,57.3 C335.5,57.3 334.4,56.8 334.4,54.9 C334.4,51.5 338.4,46.3 338.4,41.4 C338.4,34.6 330.2,33.2 330.2,30.3 C330.2,30 331.1,27.9 331.1,27.3 C331.1,26.7 331.1,25.4 330,25.4 C329.1,25.4 326.6,27.6 326.6,30.8 C326.6,31.6 326.9,32.2 327.4,32.7 C325.6,38.1 323.5,42.8 321.9,45.8 C317.8,53.1 311,59.2 304.4,59.2 C299.4,59.2 298.1,55.8 298.1,52.5 C298.1,51.7 298.2,50.7 298.4,49.6 C307.5,48.7 318.2,42.2 318.2,34.1 C318.2,30.2 315.7,29.2 313.2,29.2 C303.8,29.2 292.9,42.7 292.9,52.2 C292.9,57.4 296.2,61.5 302.7,61.5 C309.7,61.5 316.9,56.7 321.5,49.1 L321.6,49.2 C323.3,46.3 326.2,40.2 328.7,33.8 C330.7,35.2 333.2,36.4 333.2,39.9 C333.2,44.1 328.8,50.1 328.8,54.9 C328.8,58 331,60.1 334.6,60.1 C339.8,60.1 345,56 348.5,51 C348.4,51.9 348.3,52.7 348.3,53.4 C348.3,57.2 350.3,60.1 354.5,60.1 C359,60.1 363.6,57.4 367,52.5 C367.1,57.6 370.4,61.5 376.8,61.5 C383,61.5 389.5,57.7 394.1,51.4 C392.9,54.6 391.9,57 391.9,57.4 C392.8,58.6 394.5,59.2 396.1,59.2 C400.3,52.2 407.6,39.4 414.3,39.4 C416.1,39.4 417.5,40.4 417.5,43.3 C417.5,47.1 415.2,51.1 415.2,54.4 C415.2,57.4 417,59.5 420.8,59.5 C425.3,59.5 429,56.3 431.9,51.3 C431.9,51.6 431.9,51.8 431.9,52.1 C431.9,59 435.7,62.3 440.9,62.3 C446.7,62.3 452.9,58.4 457.2,52.3 C457.3,57.4 460.6,61.3 466.9,61.3 C474.8,61.3 483.1,55.1 487.5,45.5 L486.5,45 Z M477.2,31.7 C478.6,31.7 478.9,32.3 478.9,33.5 C478.9,40.4 468.7,46.1 463,48.1 C465.2,40.5 472.1,31.7 477.2,31.7 Z M387.2,31.7 C388.6,31.7 388.9,32.3 388.9,33.5 C388.9,40.4 378.7,46.1 373,48.1 C375.2,40.5 382.1,31.7 387.2,31.7 Z M313.2,31.7 C314.6,31.7 314.9,32.3 314.9,33.5 C314.9,40.4 304.7,46.1 299,48.1 C301.2,40.5 308.1,31.7 313.2,31.7 Z" id="Shape"></path>
                        <path d="M283.6,30.9 C277.4,30.9 272.5,37.4 269.8,42.7 C270.9,37.5 271.6,33.4 271.6,31.9 C271.6,30.1 270.5,28.2 267.8,28.2 C266.5,28.2 266.4,28.6 266.3,29.6 C265.5,36.4 264.7,41.9 263.9,46.5 C261.5,51.2 256.8,57.3 253.3,57.3 C249.4,57.3 249.6,50.4 249,43.9 C254.4,37.7 259.6,32.4 261.4,32.4 C261.4,31.8 259.9,31.5 259.4,31.5 C258,31.5 253.5,35.6 248.5,40.8 C247.7,36.6 246,33.2 241.9,33.2 C235.2,33.2 233.5,40.3 230.7,45.9 C226.6,53.2 219.8,59.3 213.2,59.3 C208.2,59.3 206.9,55.9 206.9,52.6 C206.9,51.8 207,50.8 207.2,49.7 C216.3,48.8 227,42.3 227,34.2 C227,30.3 224.5,29.3 222,29.3 C212.6,29.3 201.7,42.8 201.7,52.3 C201.7,57.5 205,61.6 211.5,61.6 C219,61.6 226.8,56.1 231.3,47.4 C234.5,41.6 236.8,36.3 240.6,36.3 C243.1,36.3 243.6,40.6 244.1,45.6 C237.9,52.6 232.3,59.8 232.3,61.6 C232.3,62.4 232.6,62.8 233.1,62.8 C233.4,62.8 233.7,62.6 234.1,62.2 C236,59.7 240.1,54.5 244.6,49.2 C245.3,54.9 246.7,60.2 251.4,60.2 C255.7,60.2 260.3,55.9 263.3,50.9 C260.7,64.1 258.3,68.1 255.6,77.5 C255.5,77.8 256.7,80.5 258.1,80.5 C258.4,80.5 258.8,80.3 259.1,80.1 C260.9,78.3 265.2,63.5 268.9,47.5 C270.9,42.9 276.6,34.6 282.2,34.6 C285.4,34.6 286.8,37.4 286.8,40.8 C286.8,49 279,58.3 270.5,58.3 C269.4,58.3 268.5,58.3 268.5,58.7 C268.5,59.3 270.3,60.1 273.1,60.1 C284.1,60.1 292,48.3 292,40 C291.6,34.6 288.3,30.9 283.6,30.9 Z M221.6,31.7 C223,31.7 223.3,32.3 223.3,33.5 C223.3,40.4 213.1,46.1 207.4,48.1 C209.6,40.5 216.5,31.7 221.6,31.7 Z" id="Shape"></path>
                    </g>
                    <path d="M8.2,6.9 L10.7,0.7 L5.6,0.7 L1.4,6.8 C0.6,8 0,9.2 0,10.7 C0,13.9 2.4,15.6 5,15.6 C7.9,15.6 10,13.5 10,10.6 C10.1,9.2 9.5,7.8 8.2,6.9 Z M18.9,6.9 L21.4,0.7 L16.3,0.7 L12,6.9 C11.2,8 10.7,9.3 10.7,10.8 C10.7,14 13.1,15.7 15.7,15.7 C18.6,15.7 20.7,13.6 20.7,10.7 C20.8,9.2 20.2,7.8 18.9,6.9 Z" id="_x201C_" fill="#157A9E"></path>
                    <path d="M47.5,199.9 L43.9,211 L42.3,211 C42.1,211 42,210.9 41.9,210.6 L39.4,203 C39.3,202.8 39.3,202.7 39.3,202.5 C39.3,202.3 39.2,202.2 39.2,202 C39.2,202.2 39.1,202.3 39.1,202.5 C39.1,202.7 39,202.8 39,203 L36.5,210.5 C36.4,210.7 36.3,210.9 36.1,210.9 L34.6,210.9 L31,199.9 L32.5,199.9 C32.7,199.9 32.8,199.9 32.9,200 C33,200.1 33.1,200.2 33.1,200.3 L35.2,207.5 C35.3,208 35.4,208.5 35.5,209 C35.6,208.8 35.6,208.5 35.7,208.3 C35.8,208.1 35.8,207.8 35.9,207.5 L38.3,200.3 C38.3,200.2 38.4,200.1 38.5,200 C38.6,199.9 38.7,199.9 38.8,199.9 L39.7,199.9 C39.8,199.9 40,199.9 40.1,200 C40.2,200.1 40.3,200.2 40.3,200.3 L42.6,207.5 C42.7,207.8 42.8,208 42.8,208.3 C42.9,208.5 42.9,208.8 43,209 C43,208.8 43.1,208.5 43.1,208.3 C43.1,208.1 43.2,207.8 43.3,207.5 L45.5,200.3 C45.5,200.2 45.6,200.1 45.7,200 C45.8,199.9 45.9,199.9 46.1,199.9 L47.5,199.9 Z M51.5,199.9 L51.5,211 L49.5,211 L49.5,199.9 L51.5,199.9 Z M52,196.4 C52,196.6 52,196.8 51.9,196.9 C51.8,197.1 51.7,197.2 51.6,197.3 C51.5,197.4 51.3,197.5 51.1,197.6 C50.9,197.7 50.7,197.7 50.6,197.7 C50.4,197.7 50.2,197.7 50.1,197.6 C50,197.5 49.8,197.4 49.7,197.3 C49.6,197.2 49.5,197 49.4,196.9 C49.3,196.7 49.3,196.6 49.3,196.4 C49.3,196.2 49.3,196 49.4,195.9 C49.5,195.8 49.6,195.6 49.7,195.4 C49.8,195.3 50,195.2 50.1,195.1 C50.2,195 50.4,195 50.6,195 C50.8,195 51,195 51.1,195.1 C51.3,195.2 51.4,195.3 51.6,195.4 C51.7,195.5 51.8,195.7 51.9,195.9 C52,196.1 52,196.2 52,196.4 Z M58.2,211.2 C57.3,211.2 56.6,211 56.2,210.5 C55.7,210 55.5,209.3 55.5,208.4 L55.5,201.6 L54.2,201.6 C54.1,201.6 54,201.6 53.9,201.5 C53.8,201.4 53.8,201.3 53.8,201.2 L53.8,200.4 L55.6,200.2 L56.1,196.8 C56.1,196.7 56.2,196.6 56.2,196.5 C56.2,196.4 56.4,196.4 56.5,196.4 L57.5,196.4 L57.5,200.2 L60.7,200.2 L60.7,201.6 L57.5,201.6 L57.5,208.3 C57.5,208.8 57.6,209.1 57.8,209.3 C58,209.5 58.3,209.6 58.7,209.6 C58.9,209.6 59.1,209.6 59.2,209.5 C59.4,209.4 59.5,209.4 59.6,209.3 C59.7,209.2 59.8,209.2 59.9,209.1 C60,209 60,209 60.1,209 C60.2,209 60.3,209.1 60.4,209.2 L61,210.1 C60.7,210.4 60.3,210.7 59.8,210.8 C59.2,211.1 58.7,211.2 58.2,211.2 Z M64.6,201.3 C65.1,200.8 65.6,200.4 66.2,200.1 C66.8,199.8 67.4,199.6 68.2,199.6 C68.8,199.6 69.3,199.7 69.8,199.9 C70.3,200.1 70.7,200.4 71,200.8 C71.3,201.2 71.5,201.6 71.7,202.1 C71.9,202.6 71.9,203.2 71.9,203.8 L71.9,210.9 L69.9,210.9 L69.9,203.8 C69.9,203 69.7,202.3 69.3,201.8 C68.9,201.3 68.3,201.1 67.5,201.1 C66.9,201.1 66.4,201.2 65.9,201.5 C65.4,201.8 64.9,202.2 64.5,202.6 L64.5,210.8 L62.5,210.8 L62.5,194.6 L64.5,194.6 L64.5,201.3 L64.6,201.3 L64.6,201.3 Z M94.7,203.1 C94.7,204.3 94.5,205.4 94.1,206.3 C93.7,207.3 93.2,208.1 92.5,208.8 C91.8,209.5 91,210 90,210.4 C89,210.8 88,211 86.8,211 L81,211 L81,195.2 L86.9,195.2 C88.1,195.2 89.1,195.4 90.1,195.8 C91.1,196.2 91.9,196.7 92.6,197.4 C93.3,198.1 93.8,198.9 94.2,199.9 C94.5,200.9 94.7,201.9 94.7,203.1 Z M92.5,203.1 C92.5,202.1 92.4,201.3 92.1,200.5 C91.8,199.7 91.5,199.1 91,198.6 C90.5,198.1 89.9,197.7 89.2,197.4 C88.5,197.1 87.7,197 86.9,197 L83.1,197 L83.1,209.3 L86.9,209.3 C87.8,209.3 88.5,209.2 89.2,208.9 C89.9,208.6 90.5,208.2 91,207.7 C91.5,207.2 91.9,206.5 92.1,205.8 C92.3,205 92.5,204.1 92.5,203.1 Z M99.1,202.1 C99.5,201.3 99.9,200.7 100.4,200.3 C100.9,199.9 101.5,199.7 102.3,199.7 C102.5,199.7 102.8,199.7 103,199.8 C103.2,199.9 103.4,199.9 103.6,200 L103.5,201.5 C103.5,201.7 103.3,201.8 103.2,201.8 C103.1,201.8 102.9,201.8 102.7,201.7 C102.5,201.7 102.3,201.6 102,201.6 C101.6,201.6 101.3,201.7 101.1,201.8 C100.8,201.9 100.6,202.1 100.4,202.3 C100.2,202.5 100,202.8 99.8,203 C99.6,203.3 99.5,203.6 99.3,204 L99.3,211 L97.3,211 L97.3,199.9 L98.4,199.9 C98.6,199.9 98.8,199.9 98.8,200 C98.9,200.1 98.9,200.2 99,200.4 L99.1,202.1 Z M124.1,195.2 L124.1,211 L123,211 C122.8,211 122.7,211 122.6,210.9 C122.5,210.8 122.4,210.7 122.3,210.6 L113.2,198.7 C113.2,198.9 113.2,199.1 113.2,199.2 C113.2,199.4 113.2,199.5 113.2,199.7 L113.2,211 L111.3,211 L111.3,195.2 L112.4,195.2 C112.5,195.2 112.6,195.2 112.6,195.2 C112.7,195.2 112.7,195.2 112.8,195.3 C112.9,195.3 112.9,195.4 113,195.4 C113.1,195.4 113.1,195.5 113.2,195.6 L122.3,207.5 C122.3,207.3 122.3,207.1 122.3,206.9 C122.3,206.7 122.3,206.5 122.3,206.4 L122.3,195.2 L124.1,195.2 Z M135.2,204.2 C135.2,203.7 135.1,203.3 135,203 C134.9,202.6 134.7,202.3 134.4,202 C134.2,201.7 133.9,201.5 133.5,201.4 C133.1,201.2 132.7,201.2 132.3,201.2 C131.4,201.2 130.6,201.5 130.1,202 C129.6,202.5 129.2,203.3 129.1,204.3 L135.2,204.3 L135.2,204.2 L135.2,204.2 Z M136.7,209.4 C136.5,209.7 136.2,209.9 135.8,210.2 C135.5,210.4 135.1,210.6 134.7,210.7 C134.3,210.8 133.9,210.9 133.5,211 C133.1,211.1 132.7,211.1 132.3,211.1 C131.5,211.1 130.8,211 130.2,210.7 C129.6,210.4 129,210.1 128.5,209.6 C128,209.1 127.7,208.5 127.4,207.7 C127.1,207 127,206.1 127,205.1 C127,204.3 127.1,203.6 127.4,202.9 C127.6,202.2 128,201.6 128.4,201.1 C128.8,200.6 129.4,200.2 130,199.9 C130.6,199.6 131.4,199.5 132.2,199.5 C132.9,199.5 133.5,199.6 134.1,199.8 C134.7,200 135.2,200.3 135.6,200.8 C136,201.2 136.3,201.7 136.6,202.4 C136.8,203 137,203.7 137,204.5 C137,204.8 137,205 136.9,205.1 C136.8,205.2 136.7,205.3 136.5,205.3 L129,205.3 C129,206 129.1,206.6 129.3,207.1 C129.5,207.6 129.7,208.1 130,208.4 C130.3,208.7 130.7,209 131.1,209.2 C131.5,209.4 132,209.5 132.5,209.5 C133,209.5 133.4,209.4 133.8,209.3 C134.2,209.2 134.5,209.1 134.7,208.9 C135,208.8 135.2,208.6 135.3,208.5 C135.4,208.4 135.6,208.3 135.7,208.3 C135.9,208.3 136,208.4 136.1,208.5 L136.7,209.4 Z M141.3,194.8 L141.3,211 L139.3,211 L139.3,194.8 L141.3,194.8 Z M151,201.7 C150.9,201.9 150.8,201.9 150.6,201.9 C150.5,201.9 150.4,201.9 150.2,201.8 C150.1,201.7 149.9,201.6 149.7,201.5 C149.5,201.4 149.3,201.3 149,201.2 C148.7,201.1 148.4,201.1 148,201.1 C147.7,201.1 147.4,201.1 147.1,201.2 C146.8,201.3 146.6,201.4 146.4,201.5 C146.2,201.6 146.1,201.8 146,202 C145.9,202.2 145.9,202.4 145.9,202.6 C145.9,202.9 146,203.1 146.1,203.3 C146.3,203.5 146.5,203.7 146.8,203.8 C147.1,203.9 147.4,204.1 147.7,204.2 C148,204.3 148.4,204.4 148.8,204.5 C149.2,204.6 149.5,204.8 149.9,204.9 C150.3,205 150.6,205.2 150.8,205.5 C151,205.8 151.3,206 151.5,206.3 C151.7,206.6 151.7,207 151.7,207.4 C151.7,207.9 151.6,208.4 151.4,208.8 C151.2,209.2 150.9,209.6 150.6,209.9 C150.2,210.2 149.8,210.5 149.3,210.7 C148.8,210.9 148.2,211 147.5,211 C146.7,211 146,210.9 145.4,210.6 C144.8,210.3 144.2,210 143.8,209.6 L144.3,208.9 C144.4,208.8 144.4,208.7 144.5,208.7 C144.6,208.6 144.7,208.6 144.8,208.6 C144.9,208.6 145.1,208.7 145.2,208.8 C145.3,208.9 145.5,209 145.7,209.1 C145.9,209.2 146.2,209.3 146.5,209.4 C146.8,209.5 147.2,209.6 147.6,209.6 C148,209.6 148.3,209.6 148.6,209.5 C148.9,209.4 149.1,209.3 149.3,209.1 C149.5,208.9 149.6,208.7 149.7,208.5 C149.8,208.3 149.8,208 149.8,207.8 C149.8,207.5 149.7,207.2 149.6,207 C149.4,206.8 149.2,206.6 148.9,206.5 C148.6,206.4 148.3,206.2 148,206.1 C147.7,206 147.3,205.9 146.9,205.8 C146.5,205.7 146.2,205.5 145.8,205.4 C145.5,205.2 145.1,205.1 144.9,204.8 C144.6,204.6 144.4,204.3 144.2,204 C144,203.7 144,203.3 144,202.8 C144,202.4 144.1,202 144.3,201.6 C144.5,201.2 144.7,200.9 145.1,200.6 C145.4,200.3 145.9,200.1 146.3,199.9 C146.8,199.7 147.4,199.6 148,199.6 C148.7,199.6 149.4,199.7 150,199.9 C150.6,200.1 151.1,200.4 151.5,200.9 L151,201.7 Z M158.7,199.7 C159.5,199.7 160.2,199.8 160.9,200.1 C161.6,200.4 162.1,200.8 162.6,201.3 C163.1,201.8 163.4,202.4 163.7,203.1 C163.9,203.8 164.1,204.6 164.1,205.5 C164.1,206.4 164,207.2 163.7,207.9 C163.5,208.6 163.1,209.2 162.6,209.7 C162.1,210.2 161.6,210.6 160.9,210.8 C160.2,211.1 159.5,211.2 158.7,211.2 C157.9,211.2 157.1,211.1 156.5,210.8 C155.9,210.5 155.3,210.1 154.8,209.7 C154.3,209.2 154,208.6 153.7,207.9 C153.5,207.2 153.3,206.4 153.3,205.5 C153.3,204.6 153.4,203.8 153.7,203.1 C154,202.4 154.3,201.8 154.8,201.3 C155.3,200.8 155.8,200.4 156.5,200.1 C157.2,199.8 157.9,199.7 158.7,199.7 Z M158.7,209.6 C159.8,209.6 160.6,209.2 161.2,208.5 C161.7,207.8 162,206.7 162,205.4 C162,204.1 161.7,203 161.2,202.3 C160.7,201.6 159.8,201.2 158.7,201.2 C158.1,201.2 157.7,201.3 157.2,201.5 C156.8,201.7 156.4,202 156.2,202.3 C155.9,202.7 155.7,203.1 155.6,203.6 C155.5,204.1 155.4,204.7 155.4,205.4 C155.4,206.7 155.7,207.7 156.2,208.5 C156.8,209.3 157.6,209.6 158.7,209.6 Z M168.4,201.5 C168.6,201.2 168.9,201 169.2,200.8 C169.5,200.6 169.8,200.4 170.1,200.2 C170.4,200 170.7,199.9 171.1,199.8 C171.4,199.7 171.8,199.7 172.2,199.7 C172.8,199.7 173.3,199.8 173.8,200 C174.3,200.2 174.7,200.5 175,200.9 C175.3,201.3 175.5,201.7 175.7,202.2 C175.9,202.7 175.9,203.3 175.9,203.9 L175.9,211 L173.9,211 L173.9,203.9 C173.9,203.1 173.7,202.4 173.3,201.9 C172.9,201.4 172.3,201.2 171.5,201.2 C170.9,201.2 170.4,201.3 169.9,201.6 C169.4,201.9 168.9,202.3 168.5,202.7 L168.5,210.9 L166.5,210.9 L166.5,199.8 L167.7,199.8 C168,199.8 168.2,199.9 168.2,200.2 L168.4,201.5 Z M188.2,203.2 C187.4,203.6 186.8,204.1 186.4,204.7 C186,205.3 185.8,205.9 185.8,206.6 C185.8,207.1 185.9,207.5 186.1,207.9 C186.3,208.3 186.5,208.6 186.8,208.8 C187.1,209 187.4,209.2 187.8,209.4 C188.2,209.5 188.5,209.6 188.9,209.6 C189.7,209.6 190.5,209.4 191.1,209.1 C191.8,208.8 192.3,208.4 192.8,207.9 L188.2,203.2 Z M198.3,211 L196.4,211 C196.2,211 196,211 195.9,210.9 C195.8,210.8 195.6,210.7 195.5,210.6 L193.9,209 C193.2,209.7 192.4,210.2 191.5,210.6 C190.6,211 189.6,211.2 188.5,211.2 C187.9,211.2 187.3,211.1 186.8,210.9 C186.2,210.7 185.7,210.4 185.3,210 C184.9,209.6 184.5,209.2 184.2,208.6 C183.9,208.1 183.8,207.4 183.8,206.8 C183.8,206.3 183.9,205.8 184.1,205.3 C184.3,204.8 184.5,204.4 184.8,204 C185.1,203.6 185.5,203.3 185.9,203 C186.3,202.7 186.8,202.4 187.3,202.2 C186.9,201.6 186.5,201.1 186.3,200.5 C186.1,199.9 186,199.4 186,198.8 C186,198.3 186.1,197.8 186.3,197.3 C186.5,196.8 186.8,196.4 187.1,196.1 C187.5,195.8 187.9,195.5 188.4,195.3 C188.9,195.1 189.5,195 190.2,195 C190.8,195 191.3,195.1 191.8,195.3 C192.3,195.5 192.7,195.7 193,196 C193.3,196.3 193.6,196.7 193.8,197.1 C194,197.5 194.1,197.9 194.1,198.4 L192.9,198.6 C192.7,198.7 192.5,198.5 192.4,198.3 C192.3,198.1 192.3,197.9 192.2,197.7 C192.1,197.5 191.9,197.3 191.8,197.1 C191.7,196.9 191.4,196.8 191.2,196.7 C191,196.6 190.7,196.5 190.3,196.5 C189.9,196.5 189.6,196.6 189.3,196.7 C189,196.8 188.7,197 188.5,197.2 C188.3,197.4 188.1,197.7 188,197.9 C187.9,198.2 187.8,198.5 187.8,198.8 C187.8,199.1 187.8,199.3 187.9,199.5 C188,199.7 188.1,200 188.2,200.2 C188.3,200.4 188.5,200.7 188.7,200.9 C188.9,201.1 189.1,201.4 189.4,201.7 L193.9,206.3 C194.2,205.8 194.4,205.3 194.6,204.7 C194.8,204.2 194.9,203.6 194.9,203.1 C194.9,203 195,202.9 195,202.8 C195.1,202.7 195.2,202.7 195.3,202.7 L196.5,202.7 C196.5,203.5 196.4,204.4 196.1,205.2 C195.8,206 195.5,206.8 195,207.5 L198.3,211 Z M207.7,201.3 C208.2,200.8 208.7,200.4 209.3,200.1 C209.9,199.8 210.5,199.6 211.3,199.6 C211.9,199.6 212.4,199.7 212.9,199.9 C213.4,200.1 213.8,200.4 214.1,200.8 C214.4,201.2 214.6,201.6 214.8,202.1 C215,202.6 215,203.2 215,203.8 L215,210.9 L213,210.9 L213,203.8 C213,203 212.8,202.3 212.4,201.8 C212,201.3 211.4,201.1 210.6,201.1 C210,201.1 209.5,201.2 209,201.5 C208.5,201.8 208,202.2 207.6,202.6 L207.6,210.8 L205.6,210.8 L205.6,194.6 L207.6,194.6 L207.6,201.3 L207.7,201.3 L207.7,201.3 Z M220.1,199.9 L220.1,211 L218.1,211 L218.1,199.9 L220.1,199.9 Z M220.5,196.4 C220.5,196.6 220.5,196.8 220.4,196.9 C220.3,197.1 220.2,197.2 220.1,197.3 C220,197.4 219.8,197.5 219.6,197.6 C219.4,197.7 219.2,197.7 219.1,197.7 C218.9,197.7 218.7,197.7 218.6,197.6 C218.4,197.5 218.3,197.4 218.2,197.3 C218.1,197.2 218,197 217.9,196.9 C217.8,196.7 217.8,196.6 217.8,196.4 C217.8,196.2 217.8,196 217.9,195.9 C218,195.8 218.1,195.6 218.2,195.4 C218.3,195.3 218.5,195.2 218.6,195.1 C218.8,195 218.9,195 219.1,195 C219.3,195 219.5,195 219.6,195.1 C219.7,195.2 219.9,195.3 220.1,195.4 C220.2,195.5 220.3,195.7 220.4,195.9 C220.4,196 220.5,196.2 220.5,196.4 Z M229.8,201.7 C229.7,201.9 229.6,201.9 229.4,201.9 C229.3,201.9 229.2,201.9 229,201.8 C228.9,201.7 228.7,201.6 228.5,201.5 C228.3,201.4 228.1,201.3 227.8,201.2 C227.5,201.1 227.2,201.1 226.8,201.1 C226.5,201.1 226.2,201.1 225.9,201.2 C225.6,201.3 225.4,201.4 225.2,201.5 C225,201.6 224.9,201.8 224.8,202 C224.7,202.2 224.7,202.4 224.7,202.6 C224.7,202.9 224.8,203.1 224.9,203.3 C225.1,203.5 225.3,203.7 225.6,203.8 C225.9,203.9 226.2,204.1 226.5,204.2 C226.8,204.3 227.2,204.4 227.6,204.5 C228,204.6 228.3,204.8 228.7,204.9 C229,205 229.4,205.2 229.6,205.5 C229.9,205.7 230.1,206 230.3,206.3 C230.5,206.6 230.5,207 230.5,207.4 C230.5,207.9 230.4,208.4 230.2,208.8 C230,209.2 229.7,209.6 229.4,209.9 C229,210.2 228.6,210.5 228.1,210.7 C227.6,210.9 227,211 226.3,211 C225.5,211 224.8,210.9 224.2,210.6 C223.6,210.3 223,210 222.6,209.6 L223.1,208.9 C223.2,208.8 223.2,208.7 223.3,208.7 C223.4,208.6 223.5,208.6 223.6,208.6 C223.7,208.6 223.9,208.7 224,208.8 C224.1,208.9 224.3,209 224.5,209.1 C224.7,209.2 225,209.3 225.3,209.4 C225.6,209.5 226,209.6 226.4,209.6 C226.8,209.6 227.1,209.6 227.4,209.5 C227.7,209.4 227.9,209.3 228.1,209.1 C228.3,208.9 228.4,208.7 228.5,208.5 C228.6,208.3 228.6,208 228.6,207.8 C228.6,207.5 228.5,207.2 228.4,207 C228.2,206.8 228,206.6 227.7,206.5 C227.4,206.4 227.1,206.2 226.8,206.1 C226.5,206 226.1,205.9 225.7,205.8 C225.3,205.7 225,205.5 224.6,205.4 C224.3,205.2 223.9,205.1 223.7,204.8 C223.5,204.5 223.2,204.3 223,204 C222.8,203.7 222.8,203.3 222.8,202.8 C222.8,202.4 222.9,202 223.1,201.6 C223.3,201.2 223.5,200.9 223.9,200.6 C224.2,200.3 224.7,200.1 225.1,199.9 C225.6,199.7 226.2,199.6 226.8,199.6 C227.5,199.6 228.2,199.7 228.8,199.9 C229.4,200.1 229.9,200.4 230.3,200.9 L229.8,201.7 Z M244.9,201.7 C244.8,201.9 244.7,201.9 244.5,201.9 C244.4,201.9 244.3,201.9 244.1,201.8 C244,201.7 243.8,201.6 243.6,201.5 C243.4,201.4 243.2,201.3 242.9,201.2 C242.6,201.1 242.3,201.1 241.9,201.1 C241.6,201.1 241.3,201.1 241,201.2 C240.7,201.3 240.5,201.4 240.3,201.5 C240.1,201.6 240,201.8 239.9,202 C239.8,202.2 239.8,202.4 239.8,202.6 C239.8,202.9 239.9,203.1 240,203.3 C240.2,203.5 240.4,203.7 240.7,203.8 C241,203.9 241.3,204.1 241.6,204.2 C241.9,204.3 242.3,204.4 242.7,204.5 C243.1,204.6 243.4,204.8 243.8,204.9 C244.2,205 244.5,205.2 244.7,205.5 C245,205.7 245.2,206 245.4,206.3 C245.6,206.6 245.6,207 245.6,207.4 C245.6,207.9 245.5,208.4 245.3,208.8 C245.1,209.2 244.8,209.6 244.5,209.9 C244.1,210.2 243.7,210.5 243.2,210.7 C242.7,210.9 242.1,211 241.4,211 C240.6,211 239.9,210.9 239.3,210.6 C238.7,210.3 238.1,210 237.7,209.6 L238.2,208.9 C238.3,208.8 238.3,208.7 238.4,208.7 C238.5,208.6 238.6,208.6 238.7,208.6 C238.8,208.6 239,208.7 239.1,208.8 C239.2,208.9 239.4,209 239.6,209.1 C239.8,209.2 240.1,209.3 240.4,209.4 C240.7,209.5 241.1,209.6 241.5,209.6 C241.9,209.6 242.2,209.6 242.5,209.5 C242.8,209.4 243,209.3 243.2,209.1 C243.4,208.9 243.5,208.7 243.6,208.5 C243.7,208.3 243.7,208 243.7,207.8 C243.7,207.5 243.6,207.2 243.5,207 C243.3,206.8 243.1,206.6 242.8,206.5 C242.5,206.4 242.2,206.2 241.9,206.1 C241.6,206 241.2,205.9 240.8,205.8 C240.4,205.7 240.1,205.5 239.7,205.4 C239.4,205.2 239,205.1 238.8,204.8 C238.5,204.6 238.3,204.3 238.1,204 C237.9,203.7 237.9,203.3 237.9,202.8 C237.9,202.4 238,202 238.2,201.6 C238.4,201.2 238.6,200.9 239,200.6 C239.3,200.3 239.8,200.1 240.2,199.9 C240.7,199.7 241.3,199.6 241.9,199.6 C242.6,199.6 243.3,199.7 243.9,199.9 C244.5,200.1 245,200.4 245.4,200.9 L244.9,201.7 Z M251.4,211.2 C250.5,211.2 249.8,211 249.4,210.5 C248.9,210 248.7,209.3 248.7,208.4 L248.7,201.6 L247.4,201.6 C247.3,201.6 247.2,201.6 247.1,201.5 C247,201.4 247,201.3 247,201.2 L247,200.4 L248.8,200.2 L249.3,196.8 C249.3,196.7 249.4,196.6 249.4,196.5 C249.4,196.4 249.6,196.4 249.7,196.4 L250.7,196.4 L250.7,200.2 L253.9,200.2 L253.9,201.6 L250.7,201.6 L250.7,208.3 C250.7,208.8 250.8,209.1 251,209.3 C251.2,209.5 251.5,209.6 251.9,209.6 C252.1,209.6 252.3,209.6 252.4,209.5 C252.6,209.4 252.7,209.4 252.8,209.3 C252.9,209.2 253,209.2 253.1,209.1 C253.2,209 253.2,209 253.3,209 C253.4,209 253.5,209.1 253.6,209.2 L254.2,210.1 C253.9,210.4 253.5,210.7 253,210.8 C252.4,211.1 251.9,211.2 251.4,211.2 Z M261.9,206 C261,206 260.2,206.1 259.6,206.2 C259,206.3 258.4,206.5 258,206.6 C257.6,206.8 257.3,207 257.1,207.2 C256.9,207.4 256.8,207.7 256.8,208 C256.8,208.3 256.8,208.5 256.9,208.8 C257,209.1 257.1,209.2 257.3,209.3 C257.5,209.4 257.7,209.5 257.9,209.6 C258.1,209.7 258.4,209.7 258.6,209.7 C258.9,209.7 259.3,209.7 259.5,209.6 C259.8,209.5 260.1,209.4 260.3,209.3 C260.6,209.2 260.8,209 261,208.8 C261.2,208.6 261.5,208.4 261.7,208.2 L261.7,206 L261.9,206 Z M255.6,201.4 C256.2,200.8 256.9,200.4 257.6,200.1 C258.3,199.8 259.1,199.7 260,199.7 C260.6,199.7 261.2,199.8 261.7,200 C262.2,200.2 262.6,200.5 262.9,200.9 C263.2,201.3 263.5,201.7 263.6,202.2 C263.8,202.7 263.9,203.3 263.9,203.9 L263.9,211 L263,211 C262.8,211 262.7,211 262.6,210.9 C262.5,210.8 262.4,210.7 262.4,210.5 L262.2,209.4 C261.9,209.7 261.6,209.9 261.3,210.1 C261,210.3 260.7,210.5 260.4,210.6 C260.1,210.7 259.8,210.9 259.4,210.9 C259.1,211 258.7,211 258.2,211 C257.8,211 257.4,210.9 257,210.8 C256.6,210.7 256.3,210.5 256,210.3 C255.7,210.1 255.5,209.8 255.3,209.4 C255.1,209 255.1,208.6 255.1,208.1 C255.1,207.7 255.2,207.2 255.5,206.8 C255.8,206.4 256.1,206 256.7,205.7 C257.2,205.4 258,205.1 258.8,204.9 C259.7,204.7 260.7,204.6 262,204.6 L262,203.7 C262,202.8 261.8,202.2 261.4,201.7 C261,201.3 260.5,201 259.8,201 C259.3,201 258.9,201.1 258.6,201.2 C258.3,201.3 258,201.5 257.8,201.6 C257.6,201.7 257.4,201.9 257.2,202 C257,202.1 256.9,202.2 256.7,202.2 C256.6,202.2 256.5,202.2 256.4,202.1 C256.3,202 256.2,201.9 256.2,201.8 L255.6,201.4 Z M267.5,211 L267.5,201.5 L266.3,201.4 C266.1,201.4 266,201.3 265.9,201.2 C265.8,201.1 265.8,201 265.8,200.9 L265.8,200.1 L267.6,200.1 L267.6,199.2 C267.6,198.6 267.7,198 267.9,197.5 C268.1,197 268.3,196.6 268.7,196.2 C269.1,195.8 269.4,195.6 269.9,195.4 C270.4,195.2 270.9,195.1 271.5,195.1 C272,195.1 272.5,195.2 272.9,195.3 L272.9,196.3 C272.9,196.5 272.8,196.6 272.6,196.6 C272.4,196.6 272.2,196.6 271.9,196.6 C271.6,196.6 271.3,196.6 271,196.7 C270.7,196.8 270.5,196.9 270.3,197.1 C270.1,197.3 269.9,197.6 269.8,197.9 C269.7,198.2 269.6,198.6 269.6,199.1 L269.6,199.9 L274.6,199.9 L274.6,198.7 C274.6,198.1 274.7,197.5 274.9,197 C275.1,196.5 275.3,196.1 275.7,195.7 C276,195.4 276.4,195.1 276.9,194.9 C277.4,194.7 277.9,194.6 278.5,194.6 C279,194.6 279.4,194.7 279.9,194.8 L279.9,195.8 C279.9,196 279.8,196.1 279.6,196.1 C279.4,196.1 279.2,196.1 278.9,196.1 C278.6,196.1 278.3,196.1 278,196.2 C277.7,196.3 277.5,196.4 277.3,196.6 C277.1,196.8 276.9,197.1 276.8,197.4 C276.7,197.7 276.6,198.1 276.6,198.6 L276.6,199.7 L279.8,199.7 L279.8,201.1 L276.7,201.1 L276.7,210.6 L274.7,210.6 L274.7,201.1 L269.7,201.1 L269.7,210.6 L267.5,210.6 L267.5,211 L267.5,211 Z M283.8,195.2 L283.8,201.5 C283.8,201.8 283.8,202.2 283.8,202.5 C283.8,202.8 283.8,203.1 283.7,203.5 C283.6,203.9 283.7,204.1 283.6,204.5 C283.6,204.8 283.5,205.2 283.5,205.6 L282.2,205.6 C282.2,205.2 282.1,204.9 282.1,204.5 C282.1,204.2 282,203.8 282,203.5 C282,203.2 282,202.9 281.9,202.5 C281.9,202.2 281.9,201.9 281.9,201.5 L281.9,195.2 L283.8,195.2 Z M281.4,209.8 C281.4,209.6 281.4,209.4 281.5,209.3 C281.6,209.1 281.7,209 281.8,208.9 C281.9,208.8 282.1,208.7 282.2,208.6 C282.4,208.5 282.5,208.5 282.7,208.5 C282.9,208.5 283.1,208.5 283.2,208.6 C283.4,208.7 283.5,208.8 283.6,208.9 C283.7,209 283.8,209.2 283.9,209.3 C284,209.5 284,209.6 284,209.8 C284,210 284,210.2 283.9,210.3 C283.8,210.5 283.7,210.6 283.6,210.7 C283.5,210.8 283.3,210.9 283.2,211 C283,211.1 282.9,211.1 282.7,211.1 C282.5,211.1 282.3,211.1 282.2,211 C282,210.9 281.9,210.8 281.8,210.7 C281.7,210.6 281.6,210.4 281.5,210.3 C281.5,210.2 281.4,210 281.4,209.8 Z M304.1,197 L299,197 L299,211 L296.9,211 L296.9,197 L291.8,197 L291.8,195.2 L304.1,195.2 L304.1,197 L304.1,197 Z M307.9,201.3 C308.4,200.8 308.9,200.4 309.5,200.1 C310.1,199.8 310.7,199.6 311.5,199.6 C312.1,199.6 312.6,199.7 313.1,199.9 C313.6,200.1 314,200.4 314.3,200.8 C314.6,201.2 314.8,201.6 315,202.1 C315.2,202.6 315.2,203.2 315.2,203.8 L315.2,210.9 L313.2,210.9 L313.2,203.8 C313.2,203 313,202.3 312.6,201.8 C312.2,201.3 311.6,201.1 310.8,201.1 C310.2,201.1 309.7,201.2 309.2,201.5 C308.7,201.8 308.2,202.2 307.8,202.6 L307.8,210.8 L305.8,210.8 L305.8,194.6 L307.8,194.6 L307.9,201.3 L307.9,201.3 Z M325.7,204.2 C325.7,203.7 325.6,203.3 325.5,203 C325.4,202.6 325.2,202.3 324.9,202 C324.7,201.7 324.4,201.5 324,201.4 C323.6,201.2 323.2,201.2 322.8,201.2 C321.9,201.2 321.1,201.5 320.6,202 C320.1,202.5 319.7,203.3 319.6,204.3 L325.7,204.3 L325.7,204.2 L325.7,204.2 Z M327.3,209.4 C327.1,209.7 326.8,209.9 326.4,210.2 C326.1,210.4 325.7,210.6 325.3,210.7 C324.9,210.8 324.5,210.9 324.1,211 C323.7,211.1 323.3,211.1 322.9,211.1 C322.1,211.1 321.4,211 320.8,210.7 C320.2,210.4 319.6,210.1 319.1,209.6 C318.6,209.1 318.3,208.5 318,207.7 C317.7,207 317.6,206.1 317.6,205.1 C317.6,204.3 317.7,203.6 318,202.9 C318.2,202.2 318.6,201.6 319,201.1 C319.4,200.6 320,200.2 320.6,199.9 C321.2,199.6 322,199.5 322.8,199.5 C323.5,199.5 324.1,199.6 324.7,199.8 C325.3,200 325.8,200.3 326.2,200.8 C326.6,201.2 326.9,201.7 327.2,202.4 C327.4,203 327.6,203.7 327.6,204.5 C327.6,204.8 327.6,205 327.5,205.1 C327.4,205.2 327.3,205.3 327.1,205.3 L319.7,205.3 C319.7,206 319.8,206.6 320,207.1 C320.2,207.6 320.4,208.1 320.7,208.4 C321,208.7 321.4,209 321.8,209.2 C322.2,209.4 322.7,209.5 323.2,209.5 C323.7,209.5 324.1,209.4 324.5,209.3 C324.9,209.2 325.2,209.1 325.4,208.9 C325.7,208.8 325.9,208.6 326,208.5 C326.1,208.4 326.3,208.3 326.4,208.3 C326.6,208.3 326.7,208.4 326.8,208.5 L327.3,209.4 Z M339.5,199.9 L333.3,214.3 C333.2,214.4 333.2,214.6 333.1,214.7 C333,214.8 332.8,214.8 332.6,214.8 L331.1,214.8 L333.1,210.4 L328.5,199.9 L330.2,199.9 C330.4,199.9 330.5,199.9 330.6,200 C330.7,200.1 330.8,200.2 330.8,200.3 L333.8,207.3 C333.9,207.6 334,207.9 334.1,208.3 C334.2,208 334.3,207.6 334.4,207.3 L337.3,200.3 C337.3,200.2 337.4,200.1 337.5,200 C337.6,199.9 337.7,199.9 337.9,199.9 L339.5,199.9 Z M346.8,211 L346.8,199.9 L348,199.9 C348.3,199.9 348.5,200 348.5,200.3 L348.6,201.4 C349,200.9 349.5,200.5 350,200.2 C350.5,199.9 351.1,199.7 351.8,199.7 C352.5,199.7 353.2,199.9 353.6,200.3 C354,200.7 354.4,201.3 354.6,202 C354.8,201.6 355,201.2 355.2,201 C355.5,200.7 355.7,200.5 356.1,200.3 C356.4,200.1 356.8,200 357.1,199.9 C357.5,199.8 357.8,199.8 358.2,199.8 C358.8,199.8 359.3,199.9 359.8,200.1 C360.3,200.3 360.6,200.6 361,200.9 C361.3,201.3 361.6,201.7 361.7,202.2 C361.9,202.7 362,203.3 362,204 L362,211.1 L360,211.1 L360,204 C360,203.1 359.8,202.5 359.4,202 C359,201.5 358.5,201.3 357.8,201.3 C357.5,201.3 357.2,201.4 356.9,201.5 C356.6,201.6 356.4,201.8 356.1,202 C355.8,202.2 355.7,202.5 355.6,202.8 C355.5,203.1 355.4,203.5 355.4,204 L355.4,211.1 L353.4,211.1 L353.4,204 C353.4,203.1 353.2,202.4 352.9,202 C352.5,201.6 352,201.3 351.3,201.3 C350.8,201.3 350.4,201.4 350,201.7 C349.6,202 349.2,202.3 348.9,202.8 L348.9,211.1 L346.8,211.1 L346.8,211 L346.8,211 Z M371,206 C370.1,206 369.3,206.1 368.7,206.2 C368.1,206.3 367.5,206.5 367.1,206.6 C366.7,206.7 366.4,207 366.2,207.2 C366,207.4 365.9,207.7 365.9,208 C365.9,208.3 365.9,208.5 366,208.8 C366.1,209 366.2,209.2 366.4,209.3 C366.6,209.4 366.8,209.5 367,209.6 C367.2,209.7 367.5,209.7 367.7,209.7 C368,209.7 368.4,209.7 368.6,209.6 C368.8,209.5 369.2,209.4 369.4,209.3 C369.6,209.2 369.9,209 370.1,208.8 C370.3,208.6 370.6,208.4 370.8,208.2 L370.8,206 L371,206 Z M364.6,201.4 C365.2,200.8 365.9,200.4 366.6,200.1 C367.3,199.8 368.1,199.7 369,199.7 C369.6,199.7 370.2,199.8 370.7,200 C371.2,200.2 371.6,200.5 371.9,200.9 C372.2,201.3 372.5,201.7 372.6,202.2 C372.8,202.7 372.9,203.3 372.9,203.9 L372.9,211 L372,211 C371.8,211 371.7,211 371.6,210.9 C371.5,210.8 371.4,210.7 371.4,210.5 L371.2,209.4 C370.9,209.7 370.6,209.9 370.3,210.1 C370,210.3 369.7,210.5 369.4,210.6 C369.1,210.7 368.8,210.9 368.4,210.9 C368,210.9 367.7,211 367.2,211 C366.8,211 366.4,210.9 366,210.8 C365.6,210.7 365.3,210.5 365,210.3 C364.7,210.1 364.5,209.8 364.3,209.4 C364.1,209 364.1,208.6 364.1,208.1 C364.1,207.7 364.2,207.2 364.5,206.8 C364.8,206.4 365.1,206 365.7,205.7 C366.2,205.4 367,205.1 367.8,204.9 C368.7,204.7 369.7,204.6 371,204.6 L371,203.7 C371,202.8 370.8,202.2 370.4,201.7 C370,201.3 369.5,201 368.8,201 C368.3,201 367.9,201.1 367.6,201.2 C367.3,201.3 367,201.5 366.8,201.6 C366.6,201.8 366.4,201.9 366.2,202 C366,202.1 365.9,202.2 365.7,202.2 C365.6,202.2 365.5,202.2 365.4,202.1 C365.3,202 365.2,201.9 365.2,201.8 L364.6,201.4 Z M383.1,202.5 C382.7,202 382.3,201.7 381.9,201.5 C381.5,201.3 381,201.2 380.5,201.2 C379.5,201.2 378.7,201.6 378.1,202.3 C377.5,203 377.3,204.1 377.3,205.5 C377.3,206.2 377.4,206.8 377.5,207.4 C377.6,208 377.8,208.3 378,208.7 C378.2,209.1 378.5,209.3 378.9,209.4 C379.3,209.6 379.7,209.6 380.1,209.6 C380.7,209.6 381.3,209.5 381.8,209.2 C382.3,208.9 382.7,208.5 383.1,208 L383.1,202.5 L383.1,202.5 Z M385.1,194.8 L385.1,211 L383.9,211 C383.6,211 383.4,210.9 383.4,210.6 L383.2,209.2 C382.7,209.8 382.2,210.2 381.6,210.6 C381,211 380.3,211.1 379.5,211.1 C378.9,211.1 378.3,211 377.8,210.7 C377.3,210.5 376.8,210.1 376.5,209.6 C376.2,209.1 375.9,208.5 375.7,207.8 C375.5,207.1 375.4,206.3 375.4,205.3 C375.4,204.5 375.5,203.7 375.7,203 C375.9,202.3 376.2,201.7 376.6,201.2 C377,200.7 377.5,200.3 378.1,200 C378.7,199.7 379.4,199.6 380.1,199.6 C380.8,199.6 381.4,199.7 381.9,199.9 C382.4,200.1 382.8,200.5 383.2,200.9 L383.2,194.7 L385.1,194.8 L385.1,194.8 Z M395.6,204.2 C395.6,203.7 395.5,203.3 395.4,203 C395.3,202.6 395.1,202.3 394.8,202 C394.6,201.7 394.3,201.5 393.9,201.4 C393.5,201.2 393.1,201.2 392.7,201.2 C391.8,201.2 391,201.5 390.5,202 C390,202.5 389.6,203.3 389.5,204.3 L395.6,204.3 L395.6,204.2 L395.6,204.2 Z M397.2,209.4 C397,209.7 396.7,209.9 396.3,210.2 C395.9,210.5 395.6,210.6 395.2,210.7 C394.8,210.8 394.4,210.9 394,211 C393.6,211.1 393.2,211.1 392.8,211.1 C392,211.1 391.3,211 390.7,210.7 C390.1,210.4 389.5,210.1 389,209.6 C388.5,209.1 388.2,208.5 387.9,207.7 C387.6,207 387.5,206.1 387.5,205.1 C387.5,204.3 387.6,203.6 387.9,202.9 C388.1,202.2 388.5,201.6 388.9,201.1 C389.3,200.6 389.9,200.2 390.5,199.9 C391.1,199.6 391.9,199.5 392.7,199.5 C393.4,199.5 394,199.6 394.6,199.8 C395.2,200 395.7,200.3 396.1,200.8 C396.5,201.2 396.8,201.7 397.1,202.4 C397.3,203 397.5,203.7 397.5,204.5 C397.5,204.8 397.5,205 397.4,205.1 C397.3,205.2 397.2,205.3 397,205.3 L389.6,205.3 C389.6,206 389.7,206.6 389.9,207.1 C390.1,207.6 390.3,208.1 390.6,208.4 C390.9,208.7 391.3,209 391.7,209.2 C392.1,209.4 392.6,209.5 393.1,209.5 C393.6,209.5 394,209.4 394.4,209.3 C394.8,209.2 395.1,209.1 395.3,208.9 C395.6,208.8 395.8,208.6 395.9,208.5 C396,208.4 396.2,208.3 396.3,208.3 C396.5,208.3 396.6,208.4 396.7,208.5 L397.2,209.4 Z M405.4,211 L405.4,199.9 L406.6,199.9 C406.9,199.9 407.1,200 407.1,200.3 L407.2,201.4 C407.6,200.9 408.1,200.5 408.6,200.2 C409.1,199.9 409.7,199.7 410.4,199.7 C411.1,199.7 411.8,199.9 412.2,200.3 C412.6,200.7 413,201.3 413.2,202 C413.4,201.6 413.6,201.2 413.8,201 C414,200.8 414.3,200.5 414.7,200.3 C415,200.1 415.4,200 415.7,199.9 C416.1,199.8 416.4,199.8 416.8,199.8 C417.4,199.8 417.9,199.9 418.4,200.1 C418.9,200.3 419.2,200.6 419.6,200.9 C419.9,201.3 420.2,201.7 420.3,202.2 C420.5,202.7 420.6,203.3 420.6,204 L420.6,211.1 L418.6,211.1 L418.6,204 C418.6,203.1 418.4,202.5 418,202 C417.6,201.5 417.1,201.3 416.3,201.3 C416,201.3 415.7,201.4 415.4,201.5 C415.1,201.6 414.9,201.8 414.6,202 C414.3,202.2 414.2,202.5 414.1,202.8 C414,203.1 413.9,203.5 413.9,204 L413.9,211.1 L411.9,211.1 L411.9,204 C411.9,203.1 411.7,202.4 411.4,202 C411,201.6 410.5,201.3 409.8,201.3 C409.3,201.3 408.9,201.4 408.5,201.7 C408.1,202 407.7,202.3 407.4,202.8 L407.4,211.1 L405.4,211.1 L405.4,211 Z M431,204.2 C431,203.7 430.9,203.3 430.8,203 C430.7,202.6 430.5,202.3 430.2,202 C430,201.7 429.7,201.5 429.3,201.4 C428.9,201.2 428.5,201.2 428.1,201.2 C427.2,201.2 426.4,201.5 425.9,202 C425.4,202.5 425,203.3 424.9,204.3 L431,204.3 L431,204.2 L431,204.2 Z M432.6,209.4 C432.4,209.7 432.1,209.9 431.7,210.2 C431.4,210.4 431,210.6 430.6,210.7 C430.2,210.8 429.8,210.9 429.4,211 C429,211.1 428.6,211.1 428.2,211.1 C427.4,211.1 426.7,211 426.1,210.7 C425.5,210.4 424.9,210.1 424.4,209.6 C423.9,209.1 423.6,208.5 423.3,207.7 C423,207 422.9,206.1 422.9,205.1 C422.9,204.3 423,203.6 423.3,202.9 C423.5,202.2 423.9,201.6 424.3,201.1 C424.7,200.6 425.3,200.2 425.9,199.9 C426.5,199.6 427.3,199.5 428.1,199.5 C428.8,199.5 429.4,199.6 430,199.8 C430.6,200 431.1,200.3 431.5,200.8 C431.9,201.2 432.2,201.7 432.5,202.4 C432.7,203 432.9,203.7 432.9,204.5 C432.9,204.8 432.9,205 432.8,205.1 C432.7,205.2 432.6,205.3 432.4,205.3 L425,205.3 C425,206 425.1,206.6 425.3,207.1 C425.5,207.6 425.7,208.1 426,208.4 C426.3,208.7 426.7,209 427.1,209.2 C427.5,209.4 428,209.5 428.5,209.5 C429,209.5 429.4,209.4 429.8,209.3 C430.2,209.2 430.5,209.1 430.7,208.9 C431,208.8 431.2,208.6 431.3,208.5 C431.4,208.4 431.6,208.3 431.7,208.3 C431.9,208.3 432,208.4 432.1,208.5 L432.6,209.4 Z M441.5,211 L441.5,201.5 L440.3,201.4 C440.1,201.4 440,201.3 439.9,201.2 C439.8,201.1 439.8,201 439.8,200.9 L439.8,200.1 L441.6,200.1 L441.6,199 C441.6,198.4 441.7,197.8 441.9,197.3 C442.1,196.8 442.3,196.4 442.7,196 C443.1,195.6 443.4,195.4 443.9,195.2 C444.4,195 444.9,194.9 445.5,194.9 C446,194.9 446.5,195 446.9,195.1 L446.9,196.1 C446.9,196.3 446.8,196.4 446.6,196.4 C446.4,196.4 446.2,196.4 445.9,196.4 C445.6,196.4 445.3,196.4 445,196.5 C444.7,196.6 444.5,196.7 444.3,196.9 C444.1,197.1 443.9,197.4 443.8,197.7 C443.7,198 443.6,198.4 443.6,198.9 L443.6,199.9 L446.8,199.9 L446.8,201.3 L443.7,201.3 L443.7,210.8 L441.5,210.8 L441.5,211 L441.5,211 Z M455.9,204.2 C455.9,203.7 455.8,203.3 455.7,203 C455.6,202.6 455.4,202.3 455.1,202 C454.9,201.7 454.6,201.5 454.2,201.4 C453.8,201.2 453.4,201.2 453,201.2 C452.1,201.2 451.3,201.5 450.8,202 C450.3,202.5 449.9,203.3 449.8,204.3 L455.9,204.3 L455.9,204.2 L455.9,204.2 Z M457.5,209.4 C457.3,209.7 457,209.9 456.6,210.2 C456.2,210.5 455.9,210.6 455.5,210.7 C455.1,210.8 454.7,210.9 454.3,211 C453.9,211.1 453.5,211.1 453.1,211.1 C452.3,211.1 451.6,211 451,210.7 C450.4,210.4 449.8,210.1 449.3,209.6 C448.8,209.1 448.5,208.5 448.2,207.7 C447.9,207 447.8,206.1 447.8,205.1 C447.8,204.3 447.9,203.6 448.2,202.9 C448.4,202.2 448.8,201.6 449.2,201.1 C449.6,200.6 450.2,200.2 450.8,199.9 C451.4,199.6 452.2,199.5 453,199.5 C453.7,199.5 454.3,199.6 454.9,199.8 C455.5,200 456,200.3 456.4,200.8 C456.8,201.2 457.1,201.7 457.4,202.4 C457.6,203 457.8,203.7 457.8,204.5 C457.8,204.8 457.8,205 457.7,205.1 C457.6,205.2 457.5,205.3 457.3,205.3 L449.9,205.3 C449.9,206 450,206.6 450.2,207.1 C450.4,207.6 450.6,208.1 450.9,208.4 C451.2,208.7 451.6,209 452,209.2 C452.4,209.4 452.9,209.5 453.4,209.5 C453.9,209.5 454.3,209.4 454.7,209.3 C455.1,209.2 455.4,209.1 455.6,208.9 C455.9,208.8 456.1,208.6 456.2,208.5 C456.3,208.4 456.5,208.3 456.6,208.3 C456.8,208.3 456.9,208.4 457,208.5 L457.5,209.4 Z M467.6,204.2 C467.6,203.7 467.5,203.3 467.4,203 C467.3,202.6 467.1,202.3 466.8,202 C466.6,201.7 466.3,201.5 465.9,201.4 C465.5,201.2 465.1,201.2 464.7,201.2 C463.8,201.2 463,201.5 462.5,202 C462,202.5 461.6,203.3 461.5,204.3 L467.6,204.3 L467.6,204.2 L467.6,204.2 Z M469.1,209.4 C468.9,209.7 468.6,209.9 468.2,210.2 C467.8,210.5 467.5,210.6 467.1,210.7 C466.7,210.8 466.3,210.9 465.9,211 C465.5,211.1 465.1,211.1 464.7,211.1 C463.9,211.1 463.2,211 462.6,210.7 C462,210.4 461.4,210.1 460.9,209.6 C460.4,209.1 460.1,208.5 459.8,207.7 C459.5,207 459.4,206.1 459.4,205.1 C459.4,204.3 459.5,203.6 459.8,202.9 C460,202.2 460.4,201.6 460.8,201.1 C461.2,200.6 461.8,200.2 462.4,199.9 C463,199.6 463.8,199.5 464.6,199.5 C465.3,199.5 465.9,199.6 466.5,199.8 C467.1,200 467.6,200.3 468,200.8 C468.4,201.2 468.7,201.7 469,202.4 C469.2,203 469.4,203.7 469.4,204.5 C469.4,204.8 469.4,205 469.3,205.1 C469.2,205.2 469.1,205.3 468.9,205.3 L461.5,205.3 C461.5,206 461.6,206.6 461.8,207.1 C462,207.6 462.2,208.1 462.5,208.4 C462.8,208.7 463.2,209 463.6,209.2 C464,209.4 464.5,209.5 465,209.5 C465.5,209.5 465.9,209.4 466.3,209.3 C466.7,209.2 467,209.1 467.2,208.9 C467.5,208.8 467.7,208.6 467.8,208.5 C467.9,208.4 468.1,208.3 468.2,208.3 C468.4,208.3 468.5,208.4 468.6,208.5 L469.1,209.4 Z M473.7,194.8 L473.7,211 L471.7,211 L471.7,194.8 L473.7,194.8 Z M47.5,226.9 L43.9,238 L42.3,238 C42.1,238 42,237.9 41.9,237.6 L39.4,230 C39.3,229.8 39.3,229.7 39.3,229.5 C39.3,229.3 39.2,229.2 39.2,229 C39.2,229.2 39.1,229.3 39.1,229.5 C39.1,229.7 39,229.8 39,230 L36.5,237.5 C36.4,237.7 36.3,237.9 36.1,237.9 L34.6,237.9 L31,226.9 L32.5,226.9 C32.7,226.9 32.8,226.9 32.9,227 C33,227.1 33.1,227.2 33.1,227.3 L35.2,234.5 C35.3,235 35.4,235.5 35.5,236 C35.6,235.8 35.6,235.5 35.7,235.3 C35.8,235.1 35.8,234.8 35.9,234.5 L38.3,227.3 C38.3,227.2 38.4,227.1 38.5,227 C38.6,226.9 38.7,226.9 38.8,226.9 L39.7,226.9 C39.8,226.9 40,226.9 40.1,227 C40.2,227.1 40.3,227.2 40.3,227.3 L42.6,234.5 C42.7,234.8 42.8,235 42.8,235.3 C42.9,235.5 42.9,235.8 43,236 C43,235.8 43.1,235.5 43.1,235.3 C43.1,235.1 43.2,234.8 43.3,234.5 L45.5,227.3 C45.5,227.2 45.6,227.1 45.7,227 C45.8,226.9 45.9,226.9 46.1,226.9 L47.5,226.9 Z M56.9,231.2 C56.9,230.7 56.8,230.3 56.7,230 C56.6,229.6 56.4,229.3 56.1,229 C55.9,228.7 55.6,228.5 55.2,228.4 C54.8,228.2 54.4,228.2 54,228.2 C53.1,228.2 52.3,228.5 51.8,229 C51.3,229.5 50.9,230.3 50.8,231.3 L56.9,231.3 L56.9,231.2 L56.9,231.2 Z M58.5,236.4 C58.3,236.7 58,236.9 57.6,237.2 C57.3,237.4 56.9,237.6 56.5,237.7 C56.1,237.8 55.7,237.9 55.3,238 C54.9,238.1 54.5,238.1 54.1,238.1 C53.3,238.1 52.6,238 52,237.7 C51.4,237.4 50.8,237.1 50.3,236.6 C49.8,236.1 49.5,235.5 49.2,234.7 C48.9,234 48.8,233.1 48.8,232.1 C48.8,231.3 48.9,230.6 49.2,229.9 C49.4,229.2 49.8,228.6 50.2,228.1 C50.6,227.6 51.2,227.2 51.8,226.9 C52.4,226.6 53.2,226.5 54,226.5 C54.7,226.5 55.3,226.6 55.9,226.8 C56.5,227 57,227.3 57.4,227.8 C57.8,228.2 58.1,228.7 58.4,229.4 C58.6,230 58.8,230.7 58.8,231.5 C58.8,231.8 58.8,232 58.7,232.1 C58.6,232.2 58.5,232.3 58.3,232.3 L50.9,232.3 C50.9,233 51,233.6 51.2,234.1 C51.4,234.6 51.6,235.1 51.9,235.4 C52.2,235.7 52.6,236 53,236.2 C53.4,236.4 53.9,236.5 54.4,236.5 C54.9,236.5 55.3,236.4 55.7,236.3 C56.1,236.2 56.4,236.1 56.6,235.9 C56.8,235.7 57.1,235.6 57.2,235.5 C57.4,235.4 57.5,235.3 57.6,235.3 C57.8,235.3 57.9,235.4 58,235.5 L58.5,236.4 Z M63.1,221.8 L63.1,238 L61.1,238 L61.1,221.8 L63.1,221.8 Z M74,228.8 C73.9,228.9 73.9,228.9 73.8,229 C73.7,229 73.7,229.1 73.6,229.1 C73.5,229.1 73.4,229.1 73.2,229 C73.1,228.9 72.9,228.8 72.7,228.7 C72.5,228.6 72.3,228.5 72,228.4 C71.7,228.3 71.4,228.3 71,228.3 C70.4,228.3 70,228.4 69.5,228.6 C69.1,228.8 68.7,229.1 68.4,229.4 C68.1,229.8 67.9,230.2 67.8,230.7 C67.7,231.2 67.6,231.8 67.6,232.4 C67.6,233.1 67.7,233.7 67.8,234.2 C67.9,234.7 68.2,235.2 68.5,235.5 C68.8,235.8 69.1,236.1 69.5,236.3 C69.9,236.5 70.3,236.6 70.8,236.6 C71.3,236.6 71.7,236.5 72,236.4 C72.3,236.3 72.6,236.2 72.8,236 C73,235.8 73.2,235.7 73.3,235.6 C73.4,235.5 73.6,235.4 73.7,235.4 C73.9,235.4 74,235.5 74.1,235.6 L74.7,236.3 C74.5,236.6 74.2,236.9 73.9,237.1 C73.6,237.3 73.3,237.5 72.9,237.6 C72.5,237.7 72.2,237.8 71.8,237.9 C71.4,238 71,238 70.6,238 C69.9,238 69.3,237.9 68.7,237.6 C68.1,237.3 67.6,237 67.1,236.5 C66.6,236 66.3,235.4 66.1,234.7 C65.9,234 65.7,233.2 65.7,232.3 C65.7,231.5 65.8,230.7 66,230 C66.2,229.3 66.6,228.7 67,228.2 C67.4,227.7 68,227.3 68.6,227 C69.2,226.7 70,226.6 70.8,226.6 C71.6,226.6 72.3,226.7 72.9,227 C73.5,227.3 74,227.6 74.5,228.1 L74,228.8 Z M81.5,226.7 C82.3,226.7 83,226.8 83.7,227.1 C84.4,227.4 84.9,227.8 85.4,228.3 C85.9,228.8 86.2,229.4 86.5,230.1 C86.8,230.8 86.9,231.6 86.9,232.5 C86.9,233.4 86.8,234.2 86.5,234.9 C86.3,235.6 85.9,236.2 85.4,236.7 C84.9,237.2 84.4,237.6 83.7,237.8 C83,238.1 82.3,238.2 81.5,238.2 C80.7,238.2 79.9,238.1 79.3,237.8 C78.7,237.5 78.1,237.1 77.6,236.7 C77.1,236.2 76.8,235.6 76.5,234.9 C76.3,234.2 76.1,233.4 76.1,232.5 C76.1,231.6 76.2,230.8 76.5,230.1 C76.8,229.4 77.1,228.8 77.6,228.3 C78.1,227.8 78.6,227.4 79.3,227.1 C80,226.8 80.7,226.7 81.5,226.7 Z M81.5,236.6 C82.6,236.6 83.4,236.2 84,235.5 C84.5,234.8 84.8,233.7 84.8,232.4 C84.8,231.1 84.5,230 84,229.3 C83.5,228.6 82.6,228.2 81.5,228.2 C80.9,228.2 80.5,228.3 80,228.5 C79.6,228.7 79.2,229 79,229.3 C78.8,229.6 78.5,230.1 78.4,230.6 C78.3,231.1 78.2,231.7 78.2,232.4 C78.2,233.7 78.5,234.7 79,235.5 C79.5,236.3 80.4,236.6 81.5,236.6 Z M89.3,238 L89.3,226.9 L90.5,226.9 C90.8,226.9 91,227 91,227.3 L91.1,228.4 C91.5,227.9 92,227.5 92.5,227.2 C93,226.9 93.6,226.7 94.3,226.7 C95,226.7 95.7,226.9 96.1,227.3 C96.5,227.7 96.9,228.3 97.1,229 C97.3,228.6 97.5,228.2 97.7,228 C98,227.7 98.2,227.5 98.6,227.3 C98.9,227.1 99.3,227 99.6,226.9 C99.9,226.8 100.3,226.8 100.7,226.8 C101.3,226.8 101.8,226.9 102.3,227.1 C102.8,227.3 103.1,227.6 103.5,227.9 C103.8,228.3 104.1,228.7 104.2,229.2 C104.4,229.7 104.5,230.3 104.5,231 L104.5,238.1 L102.5,238.1 L102.5,231 C102.5,230.1 102.3,229.5 101.9,229 C101.5,228.5 101,228.3 100.3,228.3 C100,228.3 99.7,228.4 99.4,228.5 C99.1,228.6 98.9,228.8 98.6,229 C98.3,229.2 98.2,229.5 98.1,229.8 C98,230.1 97.9,230.5 97.9,231 L97.9,238.1 L95.9,238.1 L95.9,231 C95.9,230.1 95.7,229.4 95.4,229 C95,228.6 94.5,228.3 93.8,228.3 C93.3,228.3 92.9,228.4 92.5,228.7 C92.1,229 91.7,229.3 91.4,229.8 L91.4,238.1 L89.3,238.1 L89.3,238 L89.3,238 Z M114.8,231.2 C114.8,230.7 114.7,230.3 114.6,230 C114.5,229.6 114.3,229.3 114,229 C113.8,228.7 113.5,228.5 113.1,228.4 C112.7,228.2 112.3,228.2 111.9,228.2 C111,228.2 110.2,228.5 109.7,229 C109.2,229.5 108.8,230.3 108.7,231.3 L114.8,231.3 L114.8,231.2 L114.8,231.2 Z M116.4,236.4 C116.2,236.7 115.9,236.9 115.5,237.2 C115.2,237.4 114.8,237.6 114.4,237.7 C114,237.8 113.6,237.9 113.2,238 C112.8,238.1 112.4,238.1 112,238.1 C111.2,238.1 110.5,238 109.9,237.7 C109.3,237.4 108.7,237.1 108.2,236.6 C107.7,236.1 107.4,235.5 107.1,234.7 C106.8,234 106.7,233.1 106.7,232.1 C106.7,231.3 106.8,230.6 107.1,229.9 C107.3,229.2 107.7,228.6 108.1,228.1 C108.5,227.6 109.1,227.2 109.7,226.9 C110.3,226.6 111.1,226.5 111.9,226.5 C112.6,226.5 113.2,226.6 113.8,226.8 C114.4,227 114.9,227.3 115.3,227.8 C115.7,228.2 116,228.7 116.3,229.4 C116.5,230 116.7,230.7 116.7,231.5 C116.7,231.8 116.7,232 116.6,232.1 C116.5,232.2 116.4,232.3 116.2,232.3 L108.8,232.3 C108.8,233 108.9,233.6 109.1,234.1 C109.3,234.6 109.5,235.1 109.8,235.4 C110.1,235.7 110.5,236 110.9,236.2 C111.3,236.4 111.8,236.5 112.3,236.5 C112.8,236.5 113.2,236.4 113.6,236.3 C114,236.2 114.3,236.1 114.5,235.9 C114.7,235.7 115,235.6 115.1,235.5 C115.2,235.4 115.4,235.3 115.5,235.3 C115.7,235.3 115.8,235.4 115.9,235.5 L116.4,236.4 Z M128.4,230.2 C127.6,230.6 127,231.1 126.6,231.7 C126.2,232.3 126,232.9 126,233.6 C126,234.1 126.1,234.5 126.3,234.9 C126.5,235.3 126.7,235.6 127,235.8 C127.3,236 127.6,236.2 128,236.4 C128.4,236.5 128.7,236.6 129.1,236.6 C129.9,236.6 130.7,236.4 131.3,236.1 C132,235.8 132.5,235.4 133,234.9 L128.4,230.2 Z M138.5,238 L136.6,238 C136.4,238 136.2,238 136.1,237.9 C136,237.8 135.8,237.7 135.7,237.6 L134.1,236 C133.4,236.7 132.6,237.2 131.7,237.6 C130.8,238 129.8,238.2 128.7,238.2 C128.1,238.2 127.5,238.1 127,237.9 C126.5,237.7 125.9,237.4 125.5,237 C125.1,236.6 124.7,236.2 124.4,235.6 C124.1,235.1 124,234.4 124,233.8 C124,233.3 124.1,232.8 124.3,232.3 C124.5,231.8 124.7,231.4 125,231 C125.3,230.6 125.7,230.3 126.1,230 C126.5,229.7 127,229.4 127.5,229.2 C127.1,228.6 126.7,228.1 126.5,227.5 C126.3,227 126.2,226.4 126.2,225.8 C126.2,225.3 126.3,224.8 126.5,224.3 C126.7,223.8 127,223.4 127.3,223.1 C127.7,222.8 128.1,222.5 128.6,222.3 C129.1,222.1 129.7,222 130.4,222 C131,222 131.5,222.1 132,222.3 C132.5,222.5 132.9,222.7 133.2,223 C133.5,223.3 133.8,223.7 134,224.1 C134.2,224.5 134.3,224.9 134.3,225.4 L133.1,225.6 C132.9,225.7 132.7,225.5 132.6,225.3 C132.5,225.1 132.5,224.9 132.4,224.7 C132.3,224.5 132.1,224.3 132,224.1 C131.8,223.9 131.6,223.8 131.4,223.7 C131.1,223.6 130.9,223.5 130.5,223.5 C130.1,223.5 129.8,223.6 129.5,223.7 C129.2,223.8 128.9,224 128.7,224.2 C128.5,224.4 128.3,224.7 128.2,224.9 C128.1,225.2 128,225.5 128,225.8 C128,226.1 128,226.3 128.1,226.5 C128.2,226.7 128.3,227 128.4,227.2 C128.5,227.4 128.7,227.7 128.9,227.9 C129.1,228.1 129.3,228.4 129.6,228.7 L134.1,233.3 C134.4,232.8 134.6,232.3 134.8,231.7 C135,231.1 135.1,230.6 135.1,230.1 C135.1,230 135.2,229.9 135.2,229.8 C135.3,229.7 135.4,229.7 135.5,229.7 L136.7,229.7 C136.7,230.5 136.6,231.4 136.3,232.2 C136,233 135.7,233.8 135.2,234.5 L138.5,238 Z M145.9,238 L145.9,226.9 L147.1,226.9 C147.4,226.9 147.6,227 147.6,227.3 L147.7,228.4 C148.1,227.9 148.6,227.5 149.1,227.2 C149.6,226.9 150.2,226.7 150.9,226.7 C151.6,226.7 152.3,226.9 152.7,227.3 C153.1,227.7 153.5,228.3 153.7,229 C153.9,228.6 154.1,228.2 154.3,228 C154.6,227.7 154.8,227.5 155.2,227.3 C155.5,227.1 155.9,227 156.2,226.9 C156.5,226.8 156.9,226.8 157.3,226.8 C157.9,226.8 158.4,226.9 158.9,227.1 C159.4,227.3 159.7,227.6 160.1,227.9 C160.4,228.3 160.7,228.7 160.8,229.2 C161,229.7 161.1,230.3 161.1,231 L161.1,238.1 L159.1,238.1 L159.1,231 C159.1,230.1 158.9,229.5 158.5,229 C158.1,228.5 157.6,228.3 156.9,228.3 C156.6,228.3 156.3,228.4 156,228.5 C155.7,228.6 155.5,228.8 155.2,229 C154.9,229.2 154.8,229.5 154.7,229.8 C154.6,230.1 154.5,230.5 154.5,231 L154.5,238.1 L152.5,238.1 L152.5,231 C152.5,230.1 152.3,229.4 152,229 C151.6,228.6 151.1,228.3 150.4,228.3 C149.9,228.3 149.5,228.4 149.1,228.7 C148.7,229 148.3,229.3 148,229.8 L148,238.1 L145.9,238.1 L145.9,238 Z M168.7,226.7 C169.5,226.7 170.2,226.8 170.9,227.1 C171.6,227.4 172.1,227.8 172.6,228.3 C173.1,228.8 173.4,229.4 173.7,230.1 C173.9,230.8 174.1,231.6 174.1,232.5 C174.1,233.4 174,234.2 173.7,234.9 C173.5,235.6 173.1,236.2 172.6,236.7 C172.1,237.2 171.6,237.6 170.9,237.8 C170.2,238.1 169.5,238.2 168.7,238.2 C167.9,238.2 167.1,238.1 166.5,237.8 C165.9,237.5 165.3,237.1 164.8,236.7 C164.3,236.2 164,235.6 163.7,234.9 C163.5,234.2 163.3,233.4 163.3,232.5 C163.3,231.6 163.4,230.8 163.7,230.1 C164,229.4 164.3,228.8 164.8,228.3 C165.3,227.8 165.8,227.4 166.5,227.1 C167.2,226.8 167.9,226.7 168.7,226.7 Z M168.7,236.6 C169.8,236.6 170.6,236.2 171.2,235.5 C171.7,234.8 172,233.7 172,232.4 C172,231.1 171.7,230 171.2,229.3 C170.7,228.6 169.8,228.2 168.7,228.2 C168.1,228.2 167.7,228.3 167.2,228.5 C166.8,228.7 166.4,229 166.2,229.3 C165.9,229.7 165.7,230.1 165.6,230.6 C165.5,231.1 165.4,231.7 165.4,232.4 C165.4,233.7 165.7,234.7 166.2,235.5 C166.7,236.3 167.6,236.6 168.7,236.6 Z M178.3,229.1 C178.7,228.3 179.1,227.7 179.6,227.3 C180.1,226.9 180.7,226.7 181.5,226.7 C181.7,226.7 182,226.7 182.2,226.8 C182.4,226.9 182.6,226.9 182.8,227 L182.7,228.5 C182.7,228.7 182.5,228.8 182.4,228.8 C182.3,228.8 182.1,228.8 181.9,228.7 C181.7,228.7 181.5,228.6 181.2,228.6 C180.8,228.6 180.5,228.7 180.3,228.8 C180,228.9 179.8,229.1 179.6,229.3 C179.4,229.5 179.2,229.8 179,230 C178.8,230.3 178.7,230.6 178.5,231 L178.5,238 L176.5,238 L176.5,226.9 L177.6,226.9 C177.8,226.9 178,226.9 178,227 C178.1,227.1 178.1,227.2 178.2,227.4 L178.3,229.1 Z M191.9,231.2 C191.9,230.7 191.8,230.3 191.7,230 C191.6,229.6 191.4,229.3 191.1,229 C190.9,228.7 190.6,228.5 190.2,228.4 C189.8,228.2 189.4,228.2 189,228.2 C188.1,228.2 187.3,228.5 186.8,229 C186.3,229.5 185.9,230.3 185.8,231.3 L191.9,231.3 L191.9,231.2 L191.9,231.2 Z M193.5,236.4 C193.3,236.7 193,236.9 192.6,237.2 C192.2,237.5 191.9,237.6 191.5,237.7 C191.1,237.8 190.7,237.9 190.3,238 C189.9,238.1 189.5,238.1 189.1,238.1 C188.3,238.1 187.6,238 187,237.7 C186.4,237.4 185.8,237.1 185.3,236.6 C184.8,236.1 184.5,235.5 184.2,234.7 C183.9,234 183.8,233.1 183.8,232.1 C183.8,231.3 183.9,230.6 184.2,229.9 C184.4,229.2 184.8,228.6 185.2,228.1 C185.6,227.6 186.2,227.2 186.8,226.9 C187.4,226.6 188.2,226.5 189,226.5 C189.7,226.5 190.3,226.6 190.9,226.8 C191.5,227 192,227.3 192.4,227.8 C192.8,228.2 193.1,228.7 193.4,229.4 C193.6,230 193.8,230.7 193.8,231.5 C193.8,231.8 193.8,232 193.7,232.1 C193.6,232.2 193.5,232.3 193.3,232.3 L185.9,232.3 C185.9,233 186,233.6 186.2,234.1 C186.4,234.6 186.6,235.1 186.9,235.4 C187.2,235.7 187.6,236 188,236.2 C188.4,236.4 188.9,236.5 189.4,236.5 C189.9,236.5 190.3,236.4 190.7,236.3 C191.1,236.2 191.4,236.1 191.6,235.9 C191.8,235.7 192.1,235.6 192.2,235.5 C192.3,235.4 192.5,235.3 192.6,235.3 C192.8,235.3 192.9,235.4 193,235.5 L193.5,236.4 Z M203.8,226.9 L203.8,238 L201.8,238 L201.8,226.9 L203.8,226.9 Z M204.2,223.4 C204.2,223.6 204.2,223.8 204.1,223.9 C204,224.1 203.9,224.2 203.8,224.3 C203.7,224.4 203.5,224.5 203.3,224.6 C203.1,224.7 202.9,224.7 202.8,224.7 C202.6,224.7 202.4,224.7 202.3,224.6 C202.1,224.5 202,224.4 201.9,224.3 C201.8,224.2 201.7,224 201.6,223.9 C201.5,223.7 201.5,223.6 201.5,223.4 C201.5,223.2 201.5,223 201.6,222.9 C201.7,222.8 201.8,222.6 201.9,222.4 C202,222.3 202.2,222.2 202.3,222.1 C202.5,222 202.6,222 202.8,222 C203,222 203.2,222 203.3,222.1 C203.5,222.2 203.6,222.3 203.8,222.4 C203.9,222.5 204,222.7 204.1,222.9 C204.2,223 204.2,223.2 204.2,223.4 Z M207,238 L207,226.9 L208.2,226.9 C208.5,226.9 208.7,227 208.7,227.3 L208.8,228.4 C209.2,227.9 209.7,227.5 210.2,227.2 C210.7,226.9 211.3,226.7 212,226.7 C212.7,226.7 213.4,226.9 213.8,227.3 C214.2,227.7 214.6,228.3 214.8,229 C215,228.6 215.2,228.2 215.4,228 C215.6,227.8 215.9,227.5 216.3,227.3 C216.6,227.1 217,227 217.3,226.9 C217.6,226.8 218,226.8 218.4,226.8 C219,226.8 219.5,226.9 220,227.1 C220.5,227.3 220.8,227.6 221.2,227.9 C221.5,228.3 221.8,228.7 221.9,229.2 C222.1,229.7 222.2,230.3 222.2,231 L222.2,238.1 L220.2,238.1 L220.2,231 C220.2,230.1 220,229.5 219.6,229 C219.2,228.5 218.7,228.3 218,228.3 C217.7,228.3 217.4,228.4 217.1,228.5 C216.8,228.6 216.6,228.8 216.3,229 C216,229.2 215.9,229.5 215.8,229.8 C215.7,230.1 215.6,230.5 215.6,231 L215.6,238.1 L213.6,238.1 L213.6,231 C213.6,230.1 213.4,229.4 213.1,229 C212.7,228.6 212.2,228.3 211.5,228.3 C211,228.3 210.6,228.4 210.2,228.7 C209.8,229 209.4,229.3 209.1,229.8 L209.1,238.1 L207,238.1 L207,238 Z M227.1,235.3 C227.5,235.8 227.9,236.1 228.3,236.3 C228.7,236.5 229.2,236.6 229.7,236.6 C230.7,236.6 231.5,236.2 232.1,235.5 C232.7,234.8 232.9,233.7 232.9,232.3 C232.9,231.6 232.8,231 232.7,230.4 C232.6,229.9 232.4,229.5 232.1,229.1 C231.9,228.8 231.6,228.5 231.2,228.4 C230.8,228.3 230.4,228.2 230,228.2 C229.4,228.2 228.8,228.3 228.3,228.6 C227.8,228.9 227.4,229.3 227,229.8 L227,235.3 L227.1,235.3 L227.1,235.3 Z M227,228.6 C227.5,228 228,227.6 228.6,227.2 C229.2,226.8 229.9,226.7 230.7,226.7 C231.3,226.7 231.9,226.8 232.4,227.1 C232.9,227.3 233.4,227.7 233.7,228.2 C234,228.7 234.3,229.3 234.5,230 C234.7,230.7 234.8,231.5 234.8,232.5 C234.8,233.3 234.7,234.1 234.5,234.8 C234.3,235.5 234,236.1 233.5,236.6 C233.1,237.1 232.6,237.5 232,237.8 C231.4,238.1 230.7,238.2 230,238.2 C229.3,238.2 228.7,238.1 228.2,237.9 C227.7,237.7 227.3,237.3 226.9,236.9 L226.9,241.8 L224.9,241.8 L224.9,226.9 L226.1,226.9 C226.4,226.9 226.6,227 226.6,227.3 L227,228.6 Z M242.1,226.7 C242.9,226.7 243.6,226.8 244.3,227.1 C245,227.4 245.5,227.8 246,228.3 C246.5,228.8 246.8,229.4 247.1,230.1 C247.4,230.8 247.5,231.6 247.5,232.5 C247.5,233.4 247.4,234.2 247.1,234.9 C246.9,235.6 246.5,236.2 246,236.7 C245.5,237.2 245,237.6 244.3,237.8 C243.6,238.1 242.9,238.2 242.1,238.2 C241.3,238.2 240.5,238.1 239.9,237.8 C239.2,237.5 238.7,237.1 238.2,236.7 C237.7,236.3 237.4,235.6 237.1,234.9 C236.9,234.2 236.7,233.4 236.7,232.5 C236.7,231.6 236.8,230.8 237.1,230.1 C237.4,229.4 237.7,228.8 238.2,228.3 C238.7,227.8 239.2,227.4 239.9,227.1 C240.6,226.8 241.3,226.7 242.1,226.7 Z M242.1,236.6 C243.2,236.6 244,236.2 244.6,235.5 C245.2,234.8 245.4,233.7 245.4,232.4 C245.4,231.1 245.1,230 244.6,229.3 C244.1,228.6 243.2,228.2 242.1,228.2 C241.5,228.2 241.1,228.3 240.6,228.5 C240.2,228.7 239.8,229 239.6,229.3 C239.3,229.7 239.1,230.1 239,230.6 C238.9,231.1 238.8,231.7 238.8,232.4 C238.8,233.7 239.1,234.7 239.6,235.5 C240.2,236.3 241,236.6 242.1,236.6 Z M251.8,229.1 C252.2,228.3 252.6,227.7 253.1,227.3 C253.6,226.9 254.2,226.7 255,226.7 C255.2,226.7 255.5,226.7 255.7,226.8 C255.9,226.9 256.1,226.9 256.3,227 L256.2,228.5 C256.2,228.7 256,228.8 255.9,228.8 C255.8,228.8 255.6,228.8 255.4,228.7 C255.2,228.7 255,228.6 254.7,228.6 C254.3,228.6 254,228.7 253.8,228.8 C253.5,228.9 253.3,229.1 253.1,229.3 C252.9,229.5 252.7,229.8 252.5,230 C252.3,230.3 252.2,230.6 252,231 L252,238 L250,238 L250,226.9 L251.1,226.9 C251.3,226.9 251.5,226.9 251.5,227 C251.6,227.1 251.6,227.2 251.7,227.4 L251.8,229.1 Z M261.3,238.2 C260.4,238.2 259.7,238 259.3,237.5 C258.8,237 258.6,236.3 258.6,235.4 L258.6,228.6 L257.3,228.6 C257.2,228.6 257.1,228.6 257,228.5 C256.9,228.4 256.9,228.3 256.9,228.2 L256.9,227.4 L258.7,227.2 L259.2,223.8 C259.2,223.7 259.3,223.6 259.3,223.5 C259.4,223.4 259.5,223.4 259.6,223.4 L260.6,223.4 L260.6,227.2 L263.8,227.2 L263.8,228.6 L260.6,228.6 L260.6,235.3 C260.6,235.8 260.7,236.1 260.9,236.3 C261.1,236.5 261.4,236.6 261.8,236.6 C262,236.6 262.2,236.6 262.3,236.5 C262.5,236.4 262.6,236.4 262.7,236.3 C262.8,236.2 262.9,236.2 263,236.1 C263.1,236 263.1,236 263.2,236 C263.3,236 263.4,236.1 263.5,236.2 L264.1,237.1 C263.8,237.4 263.4,237.7 262.9,237.8 C262.3,238.1 261.8,238.2 261.3,238.2 Z M271.8,233 C270.9,233 270.1,233.1 269.5,233.2 C268.9,233.3 268.3,233.5 267.9,233.6 C267.5,233.8 267.2,234 267,234.2 C266.8,234.4 266.7,234.7 266.7,235 C266.7,235.3 266.7,235.5 266.8,235.8 C266.9,236.1 267,236.2 267.2,236.3 C267.4,236.4 267.6,236.5 267.8,236.6 C268,236.7 268.3,236.7 268.5,236.7 C268.8,236.7 269.2,236.7 269.4,236.6 C269.7,236.5 270,236.4 270.2,236.3 C270.5,236.2 270.7,236 270.9,235.8 C271.1,235.6 271.4,235.4 271.6,235.2 L271.6,233 L271.8,233 Z M265.5,228.4 C266.1,227.8 266.8,227.4 267.5,227.1 C268.2,226.8 269,226.7 269.9,226.7 C270.5,226.7 271.1,226.8 271.6,227 C272.1,227.2 272.5,227.5 272.8,227.9 C273.1,228.3 273.4,228.7 273.5,229.2 C273.7,229.7 273.8,230.3 273.8,230.9 L273.8,238 L272.9,238 C272.7,238 272.6,238 272.5,237.9 C272.4,237.8 272.3,237.7 272.3,237.5 L272.1,236.4 C271.8,236.7 271.5,236.9 271.2,237.1 C270.9,237.3 270.6,237.5 270.3,237.6 C270,237.7 269.7,237.9 269.3,237.9 C269,238 268.6,238 268.1,238 C267.7,238 267.3,237.9 266.9,237.8 C266.5,237.7 266.2,237.5 265.9,237.3 C265.6,237.1 265.4,236.8 265.2,236.4 C265,236 265,235.6 265,235.1 C265,234.7 265.1,234.2 265.4,233.8 C265.6,233.4 266,233 266.6,232.7 C267.1,232.4 267.9,232.1 268.7,231.9 C269.6,231.7 270.6,231.6 271.9,231.6 L271.9,230.7 C271.9,229.8 271.7,229.2 271.3,228.7 C270.9,228.3 270.4,228 269.7,228 C269.2,228 268.8,228.1 268.5,228.2 C268.2,228.3 267.9,228.5 267.7,228.6 C267.5,228.7 267.3,228.9 267.1,229 C266.9,229.1 266.8,229.2 266.6,229.2 C266.5,229.2 266.4,229.2 266.3,229.1 C266.2,229 266.1,228.9 266.1,228.8 L265.5,228.4 Z M278.6,228.5 C278.8,228.2 279.1,228 279.4,227.8 C279.7,227.6 280,227.4 280.3,227.2 C280.6,227 280.9,226.9 281.3,226.8 C281.7,226.7 282,226.7 282.4,226.7 C283,226.7 283.5,226.8 284,227 C284.5,227.2 284.9,227.5 285.2,227.9 C285.5,228.3 285.7,228.7 285.9,229.2 C286.1,229.7 286.1,230.3 286.1,230.9 L286.1,238 L284.1,238 L284.1,230.9 C284.1,230.1 283.9,229.4 283.5,228.9 C283.1,228.4 282.5,228.2 281.7,228.2 C281.1,228.2 280.6,228.3 280.1,228.6 C279.6,228.9 279.1,229.3 278.7,229.7 L278.7,237.9 L276.7,237.9 L276.7,226.8 L277.9,226.8 C278.2,226.8 278.4,226.9 278.4,227.2 L278.6,228.5 Z M292.4,238.2 C291.5,238.2 290.8,238 290.4,237.5 C289.9,237 289.7,236.3 289.7,235.4 L289.7,228.6 L288.4,228.6 C288.3,228.6 288.2,228.6 288.1,228.5 C288,228.4 288,228.3 288,228.2 L288,227.4 L289.8,227.2 L290.3,223.8 C290.3,223.7 290.4,223.6 290.4,223.5 C290.4,223.4 290.6,223.4 290.7,223.4 L291.7,223.4 L291.7,227.2 L294.9,227.2 L294.9,228.6 L291.7,228.6 L291.7,235.3 C291.7,235.8 291.8,236.1 292,236.3 C292.2,236.5 292.5,236.6 292.9,236.6 C293.1,236.6 293.3,236.6 293.4,236.5 C293.6,236.4 293.7,236.4 293.8,236.3 C293.9,236.2 294,236.2 294.1,236.1 C294.2,236 294.2,236 294.3,236 C294.4,236 294.5,236.1 294.6,236.2 L295.2,237.1 C294.9,237.4 294.5,237.7 294,237.8 C293.4,238.1 292.9,238.2 292.4,238.2 Z M298.9,221.8 L298.9,238 L296.9,238 L296.9,221.8 L298.9,221.8 Z M311.7,226.9 L305.5,241.3 C305.4,241.4 305.4,241.6 305.3,241.7 C305.2,241.8 305,241.8 304.8,241.8 L303.3,241.8 L305.3,237.4 L300.7,226.9 L302.4,226.9 C302.6,226.9 302.7,226.9 302.8,227 C302.9,227.1 303,227.2 303,227.3 L306,234.3 C306.1,234.6 306.2,234.9 306.3,235.3 C306.4,235 306.5,234.6 306.6,234.3 L309.5,227.3 C309.5,227.2 309.6,227.1 309.7,227 C309.8,226.9 309.9,226.9 310.1,226.9 L311.7,226.9 Z M313.3,240.7 C313.2,240.6 313.2,240.6 313.2,240.6 C313.2,240.6 313.2,240.5 313.2,240.4 C313.2,240.3 313.2,240.3 313.2,240.2 C313.2,240.1 313.3,240.1 313.3,240.1 C313.4,240 313.5,239.9 313.6,239.8 C313.7,239.7 313.8,239.5 313.9,239.3 C314,239.1 314.1,238.9 314.2,238.7 C314.3,238.5 314.4,238.3 314.4,238 C314.4,238 314.4,238 314.3,238 L314.2,238 C313.8,238 313.5,237.9 313.3,237.6 C313.1,237.3 312.9,237 312.9,236.6 C312.9,236.3 313,236 313.3,235.7 C313.6,235.4 313.9,235.3 314.3,235.3 C314.5,235.3 314.7,235.3 314.9,235.4 C315.1,235.5 315.2,235.6 315.3,235.7 C315.4,235.8 315.5,236 315.6,236.2 C315.7,236.4 315.7,236.6 315.7,236.8 C315.7,237.1 315.7,237.5 315.6,237.8 C315.5,238.2 315.4,238.5 315.2,238.9 C315,239.2 314.8,239.6 314.5,239.9 C314.2,240.2 314,240.5 313.6,240.8 L313.3,240.7 Z M331.8,228.8 C331.7,228.9 331.7,228.9 331.6,229 C331.5,229 331.5,229.1 331.4,229.1 C331.3,229.1 331.2,229.1 331,229 C330.9,228.9 330.7,228.8 330.5,228.7 C330.3,228.6 330.1,228.5 329.8,228.4 C329.5,228.3 329.2,228.3 328.8,228.3 C328.2,228.3 327.8,228.4 327.3,228.6 C326.8,228.8 326.5,229.1 326.2,229.4 C325.9,229.7 325.7,230.2 325.6,230.7 C325.5,231.2 325.4,231.8 325.4,232.4 C325.4,233.1 325.5,233.7 325.6,234.2 C325.8,234.7 326,235.2 326.3,235.5 C326.6,235.9 326.9,236.1 327.3,236.3 C327.7,236.5 328.1,236.6 328.6,236.6 C329.1,236.6 329.5,236.5 329.8,236.4 C330.1,236.3 330.4,236.2 330.6,236 C330.8,235.8 331,235.7 331.1,235.6 C331.2,235.5 331.4,235.4 331.5,235.4 C331.7,235.4 331.8,235.5 331.9,235.6 L332.5,236.3 C332.3,236.6 332,236.9 331.7,237.1 C331.4,237.3 331.1,237.5 330.7,237.6 C330.3,237.7 330,237.8 329.6,237.9 C329.2,238 328.8,238 328.4,238 C327.7,238 327.1,237.9 326.5,237.6 C325.9,237.3 325.4,237 324.9,236.5 C324.4,236 324.1,235.4 323.9,234.7 C323.7,234 323.5,233.2 323.5,232.3 C323.5,231.5 323.6,230.7 323.8,230 C324,229.3 324.4,228.7 324.8,228.2 C325.2,227.7 325.8,227.3 326.4,227 C327,226.7 327.8,226.6 328.6,226.6 C329.4,226.6 330.1,226.7 330.7,227 C331.3,227.3 331.8,227.6 332.3,228.1 L331.8,228.8 Z M339.2,226.7 C340,226.7 340.7,226.8 341.4,227.1 C342.1,227.4 342.6,227.8 343.1,228.3 C343.6,228.8 343.9,229.4 344.2,230.1 C344.5,230.8 344.6,231.6 344.6,232.5 C344.6,233.4 344.5,234.2 344.2,234.9 C344,235.6 343.6,236.2 343.1,236.7 C342.6,237.2 342.1,237.6 341.4,237.8 C340.7,238 340,238.2 339.2,238.2 C338.4,238.2 337.6,238.1 337,237.8 C336.4,237.5 335.8,237.1 335.3,236.7 C334.8,236.3 334.5,235.6 334.2,234.9 C334,234.2 333.8,233.4 333.8,232.5 C333.8,231.6 333.9,230.8 334.2,230.1 C334.5,229.4 334.8,228.8 335.3,228.3 C335.8,227.8 336.3,227.4 337,227.1 C337.7,226.8 338.4,226.7 339.2,226.7 Z M339.2,236.6 C340.3,236.6 341.1,236.2 341.7,235.5 C342.3,234.8 342.5,233.7 342.5,232.4 C342.5,231.1 342.2,230 341.7,229.3 C341.2,228.6 340.3,228.2 339.2,228.2 C338.6,228.2 338.2,228.3 337.7,228.5 C337.3,228.7 336.9,229 336.7,229.3 C336.5,229.6 336.2,230.1 336.1,230.6 C336,231.1 335.9,231.7 335.9,232.4 C335.9,233.7 336.2,234.7 336.7,235.5 C337.2,236.3 338.1,236.6 339.2,236.6 Z M347,238 L347,226.9 L348.2,226.9 C348.5,226.9 348.7,227 348.7,227.3 L348.8,228.4 C349.2,227.9 349.7,227.5 350.2,227.2 C350.7,226.9 351.3,226.7 352,226.7 C352.7,226.7 353.4,226.9 353.8,227.3 C354.2,227.7 354.6,228.3 354.8,229 C355,228.6 355.2,228.2 355.4,228 C355.7,227.7 355.9,227.5 356.3,227.3 C356.6,227.1 357,227 357.3,226.9 C357.7,226.8 358,226.8 358.4,226.8 C359,226.8 359.5,226.9 360,227.1 C360.5,227.3 360.8,227.6 361.2,227.9 C361.5,228.3 361.8,228.7 361.9,229.2 C362.1,229.7 362.2,230.3 362.2,231 L362.2,238.1 L360.2,238.1 L360.2,231 C360.2,230.1 360,229.5 359.6,229 C359.2,228.5 358.7,228.3 358,228.3 C357.7,228.3 357.4,228.4 357.1,228.5 C356.8,228.6 356.6,228.8 356.3,229 C356,229.2 355.9,229.5 355.8,229.8 C355.7,230.1 355.6,230.5 355.6,231 L355.6,238.1 L353.6,238.1 L353.6,231 C353.6,230.1 353.4,229.4 353.1,229 C352.7,228.6 352.2,228.3 351.5,228.3 C351,228.3 350.6,228.4 350.2,228.7 C349.8,229 349.4,229.3 349.1,229.8 L349.1,238.1 L347,238.1 L347,238 Z M365.8,238 L365.8,228.5 L364.6,228.4 C364.4,228.4 364.3,228.3 364.2,228.2 C364.1,228.1 364.1,228 364.1,227.9 L364.1,227.1 L365.9,227.1 L365.9,226 C365.9,225.4 366,224.8 366.2,224.3 C366.4,223.8 366.6,223.4 367,223 C367.4,222.6 367.7,222.4 368.2,222.2 C368.7,222 369.2,221.9 369.8,221.9 C370.3,221.9 370.8,222 371.2,222.1 L371.2,223.1 C371.2,223.3 371.1,223.4 370.9,223.4 C370.7,223.4 370.5,223.4 370.2,223.4 C369.9,223.4 369.6,223.4 369.3,223.5 C369,223.6 368.8,223.7 368.6,223.9 C368.4,224.1 368.2,224.4 368.1,224.7 C368,225 367.9,225.4 367.9,225.9 L367.9,226.9 L371.1,226.9 L371.1,228.3 L368,228.3 L368,237.8 L365.8,237.8 L365.8,238 Z M377.5,226.7 C378.3,226.7 379,226.8 379.7,227.1 C380.4,227.4 380.9,227.8 381.4,228.3 C381.9,228.8 382.2,229.4 382.5,230.1 C382.8,230.8 382.9,231.6 382.9,232.5 C382.9,233.4 382.8,234.2 382.5,234.9 C382.3,235.6 381.9,236.2 381.4,236.7 C380.9,237.2 380.4,237.6 379.7,237.8 C379,238 378.3,238.2 377.5,238.2 C376.7,238.2 375.9,238.1 375.3,237.8 C374.7,237.5 374.1,237.1 373.6,236.7 C373.1,236.3 372.8,235.6 372.5,234.9 C372.3,234.2 372.1,233.4 372.1,232.5 C372.1,231.6 372.2,230.8 372.5,230.1 C372.8,229.4 373.1,228.8 373.6,228.3 C374.1,227.8 374.6,227.4 375.3,227.1 C376,226.8 376.7,226.7 377.5,226.7 Z M377.5,236.6 C378.6,236.6 379.4,236.2 380,235.5 C380.6,234.8 380.8,233.7 380.8,232.4 C380.8,231.1 380.5,230 380,229.3 C379.5,228.6 378.6,228.2 377.5,228.2 C376.9,228.2 376.5,228.3 376,228.5 C375.6,228.7 375.2,229 375,229.3 C374.8,229.6 374.5,230.1 374.4,230.6 C374.3,231.1 374.2,231.7 374.2,232.4 C374.2,233.7 374.5,234.7 375,235.5 C375.5,236.3 376.4,236.6 377.5,236.6 Z M387.2,229.1 C387.6,228.3 388,227.7 388.5,227.3 C389,226.9 389.6,226.7 390.4,226.7 C390.6,226.7 390.9,226.7 391.1,226.8 C391.3,226.9 391.5,226.9 391.7,227 L391.6,228.5 C391.6,228.7 391.4,228.8 391.3,228.8 C391.2,228.8 391,228.8 390.8,228.7 C390.6,228.7 390.4,228.6 390.1,228.6 C389.7,228.6 389.4,228.7 389.2,228.8 C388.9,228.9 388.7,229.1 388.5,229.3 C388.3,229.5 388.1,229.8 387.9,230 C387.7,230.3 387.6,230.6 387.4,231 L387.4,238 L385.4,238 L385.4,226.9 L386.5,226.9 C386.7,226.9 386.9,226.9 386.9,227 C387,227.1 387,227.2 387.1,227.4 L387.2,229.1 Z M396.7,238.2 C395.8,238.2 395.1,238 394.7,237.5 C394.2,237 394,236.3 394,235.4 L394,228.6 L392.7,228.6 C392.6,228.6 392.5,228.6 392.4,228.5 C392.3,228.4 392.3,228.3 392.3,228.2 L392.3,227.4 L394.1,227.2 L394.6,223.8 C394.6,223.7 394.7,223.6 394.7,223.5 C394.7,223.4 394.9,223.4 395,223.4 L396,223.4 L396,227.2 L399.2,227.2 L399.2,228.6 L396,228.6 L396,235.3 C396,235.8 396.1,236.1 396.3,236.3 C396.5,236.5 396.8,236.6 397.2,236.6 C397.4,236.6 397.6,236.6 397.7,236.5 C397.9,236.4 398,236.4 398.1,236.3 C398.2,236.2 398.3,236.2 398.4,236.1 C398.5,236 398.5,236 398.6,236 C398.7,236 398.8,236.1 398.9,236.2 L399.5,237.1 C399.2,237.4 398.8,237.7 398.3,237.8 C397.7,238.1 397.2,238.2 396.7,238.2 Z M407.2,233 C406.3,233 405.5,233.1 404.9,233.2 C404.3,233.3 403.7,233.5 403.3,233.6 C402.9,233.8 402.6,234 402.4,234.2 C402.2,234.4 402.1,234.7 402.1,235 C402.1,235.3 402.1,235.5 402.2,235.8 C402.3,236.1 402.4,236.2 402.6,236.3 C402.8,236.4 403,236.5 403.2,236.6 C403.4,236.7 403.7,236.7 403.9,236.7 C404.2,236.7 404.6,236.7 404.8,236.6 C405.1,236.5 405.4,236.4 405.6,236.3 C405.9,236.2 406.1,236 406.3,235.8 C406.5,235.6 406.8,235.4 407,235.2 L407,233 L407.2,233 Z M400.9,228.4 C401.5,227.8 402.2,227.4 402.9,227.1 C403.6,226.8 404.4,226.7 405.3,226.7 C405.9,226.7 406.5,226.8 407,227 C407.5,227.2 407.9,227.5 408.2,227.9 C408.5,228.3 408.8,228.7 408.9,229.2 C409.1,229.7 409.2,230.3 409.2,230.9 L409.2,238 L408.3,238 C408.1,238 408,238 407.9,237.9 C407.8,237.8 407.7,237.7 407.7,237.5 L407.5,236.4 C407.2,236.7 406.9,236.9 406.6,237.1 C406.3,237.3 406,237.5 405.7,237.6 C405.4,237.7 405.1,237.9 404.7,237.9 C404.4,238 404,238 403.5,238 C403.1,238 402.7,237.9 402.3,237.8 C401.9,237.7 401.6,237.5 401.3,237.3 C401,237.1 400.8,236.8 400.6,236.4 C400.4,236 400.4,235.6 400.4,235.1 C400.4,234.7 400.5,234.2 400.8,233.8 C401.1,233.4 401.4,233 402,232.7 C402.5,232.4 403.3,232.1 404.1,231.9 C405,231.7 406,231.6 407.3,231.6 L407.3,230.7 C407.3,229.8 407.1,229.2 406.7,228.7 C406.3,228.3 405.8,228 405.1,228 C404.6,228 404.2,228.1 403.9,228.2 C403.6,228.3 403.3,228.5 403.1,228.6 C402.9,228.7 402.7,228.9 402.5,229 C402.3,229.1 402.2,229.2 402,229.2 C401.9,229.2 401.8,229.2 401.7,229.1 C401.6,229 401.5,228.9 401.5,228.8 L400.9,228.4 Z M414.1,235.3 C414.5,235.8 414.9,236.1 415.3,236.3 C415.7,236.5 416.2,236.6 416.7,236.6 C417.7,236.6 418.6,236.2 419.1,235.5 C419.7,234.8 419.9,233.7 419.9,232.2 C419.9,230.8 419.7,229.8 419.2,229.2 C418.7,228.6 418,228.2 417.1,228.2 C416.5,228.2 415.9,228.3 415.4,228.6 C414.9,228.9 414.5,229.3 414.1,229.8 L414.1,235.3 L414.1,235.3 Z M414.1,228.5 C414.6,228 415.1,227.5 415.7,227.2 C416.3,226.9 417,226.7 417.7,226.7 C418.4,226.7 418.9,226.8 419.5,227.1 C420,227.3 420.5,227.7 420.8,228.2 C421.2,228.7 421.4,229.2 421.6,229.9 C421.8,230.6 421.9,231.3 421.9,232.2 C421.9,233.1 421.8,233.9 421.6,234.7 C421.4,235.4 421.1,236.1 420.6,236.6 C420.1,237.1 419.7,237.5 419.1,237.8 C418.5,238.1 417.8,238.2 417.1,238.2 C416.4,238.2 415.7,238.1 415.2,237.8 C414.7,237.5 414.3,237.1 413.9,236.6 L413.8,237.6 C413.7,237.9 413.6,238 413.3,238 L412,238 L412,221.8 L414,221.8 L414,228.5 L414.1,228.5 Z M426.5,221.8 L426.5,238 L424.5,238 L424.5,221.8 L426.5,221.8 Z M437.1,231.2 C437.1,230.7 437,230.3 436.9,230 C436.8,229.6 436.6,229.3 436.3,229 C436.1,228.7 435.8,228.5 435.4,228.4 C435,228.2 434.6,228.2 434.2,228.2 C433.3,228.2 432.5,228.5 432,229 C431.5,229.5 431.1,230.3 431,231.3 L437.1,231.3 L437.1,231.2 L437.1,231.2 Z M438.7,236.4 C438.5,236.7 438.2,236.9 437.8,237.2 C437.4,237.5 437.1,237.6 436.7,237.7 C436.3,237.8 435.9,237.9 435.5,238 C435.1,238.1 434.7,238.1 434.3,238.1 C433.5,238.1 432.8,238 432.2,237.7 C431.6,237.4 431,237.1 430.5,236.6 C430,236.1 429.7,235.5 429.4,234.7 C429.1,234 429,233.1 429,232.1 C429,231.3 429.1,230.6 429.4,229.9 C429.6,229.2 430,228.6 430.4,228.1 C430.8,227.6 431.4,227.2 432,226.9 C432.6,226.6 433.4,226.5 434.2,226.5 C434.9,226.5 435.5,226.6 436.1,226.8 C436.7,227 437.2,227.3 437.6,227.8 C438,228.2 438.3,228.7 438.6,229.4 C438.8,230 439,230.7 439,231.5 C439,231.8 439,232 438.9,232.1 C438.8,232.2 438.7,232.3 438.5,232.3 L431.1,232.3 C431.1,233 431.2,233.6 431.4,234.1 C431.6,234.6 431.8,235.1 432.1,235.4 C432.4,235.7 432.8,236 433.2,236.2 C433.6,236.4 434.1,236.5 434.6,236.5 C435.1,236.5 435.5,236.4 435.9,236.3 C436.3,236.2 436.6,236.1 436.8,235.9 C437.1,235.8 437.3,235.6 437.4,235.5 C437.5,235.4 437.7,235.3 437.8,235.3 C438,235.3 438.1,235.4 438.2,235.5 L438.7,236.4 Z M443.6,222.2 L443.6,228.5 C443.6,228.8 443.6,229.2 443.6,229.5 C443.6,229.8 443.6,230.1 443.5,230.5 C443.4,230.9 443.5,231.1 443.4,231.5 C443.4,231.8 443.3,232.2 443.3,232.6 L442,232.6 C442,232.2 441.9,231.9 441.9,231.5 C441.9,231.2 441.8,230.8 441.8,230.5 C441.8,230.2 441.8,229.9 441.7,229.5 C441.7,229.2 441.7,228.9 441.7,228.5 L441.7,222.2 L443.6,222.2 Z M441.3,236.8 C441.3,236.6 441.3,236.4 441.4,236.3 C441.5,236.1 441.6,236 441.7,235.9 C441.8,235.8 442,235.7 442.1,235.6 C442.3,235.5 442.4,235.5 442.6,235.5 C442.8,235.5 443,235.5 443.1,235.6 C443.3,235.7 443.4,235.8 443.5,235.9 C443.6,236 443.7,236.2 443.8,236.3 C443.9,236.5 443.9,236.6 443.9,236.8 C443.9,237 443.9,237.2 443.8,237.3 C443.7,237.5 443.6,237.6 443.5,237.7 C443.4,237.8 443.2,237.9 443.1,238 C442.9,238.1 442.8,238.1 442.6,238.1 C442.4,238.1 442.2,238.1 442.1,238 C441.9,237.9 441.8,237.8 441.7,237.7 C441.6,237.6 441.5,237.4 441.4,237.3 C441.3,237.2 441.3,237 441.3,236.8 Z M448.5,221.2 C448.8,221.7 449,222.3 449.1,222.8 C449.2,223.4 449.2,224 449.1,224.5 C449,225.1 448.8,225.6 448.6,226.1 C448.3,226.6 448,227.1 447.5,227.5 L446.9,227.1 C446.8,227 446.7,226.9 446.8,226.8 C446.8,226.7 446.8,226.6 446.9,226.5 C447.1,226.3 447.3,226 447.4,225.6 C447.5,225.3 447.6,224.9 447.7,224.5 C447.7,224.1 447.7,223.7 447.6,223.3 C447.5,222.9 447.4,222.5 447.1,222.1 C447,221.9 447,221.8 447,221.7 C447,221.6 447.1,221.5 447.3,221.4 L448.5,221.2 Z M451.9,221.2 C452.2,221.7 452.4,222.3 452.5,222.8 C452.6,223.4 452.6,224 452.5,224.5 C452.4,225.1 452.2,225.6 452,226.1 C451.7,226.6 451.4,227.1 450.9,227.5 L450.3,227.1 C450.2,227 450.1,226.9 450.2,226.8 C450.2,226.7 450.2,226.6 450.3,226.5 C450.5,226.3 450.7,226 450.8,225.6 C450.9,225.3 451,224.9 451.1,224.5 C451.1,224.1 451.1,223.7 451,223.3 C450.9,222.9 450.8,222.5 450.5,222.1 C450.4,221.9 450.4,221.8 450.4,221.7 C450.4,221.6 450.5,221.5 450.7,221.4 L451.9,221.2 Z M455,230.6 L460.4,230.6 L460.4,232.3 L455,232.3 L455,230.6 Z M483.1,230.1 C483.1,231.3 482.9,232.4 482.5,233.3 C482.1,234.3 481.6,235.1 480.9,235.8 C480.2,236.5 479.4,237 478.4,237.4 C477.4,237.8 476.4,238 475.2,238 L469.3,238 L469.3,222.2 L475.2,222.2 C476.4,222.2 477.4,222.4 478.4,222.8 C479.4,223.2 480.2,223.7 480.9,224.4 C481.6,225.1 482.1,225.9 482.5,226.9 C483,227.9 483.1,228.9 483.1,230.1 Z M481,230.1 C481,229.1 480.9,228.3 480.6,227.5 C480.3,226.7 480,226.1 479.5,225.6 C479,225.1 478.4,224.7 477.7,224.4 C477,224.1 476.2,224 475.4,224 L471.6,224 L471.6,236.3 L475.4,236.3 C476.3,236.3 477,236.2 477.7,235.9 C478.4,235.6 479,235.2 479.5,234.7 C480,234.2 480.4,233.5 480.6,232.8 C480.8,232.1 481,231.1 481,230.1 Z M490.5,226.7 C491.3,226.7 492,226.8 492.7,227.1 C493.4,227.4 493.9,227.8 494.4,228.3 C494.9,228.8 495.2,229.4 495.5,230.1 C495.8,230.8 495.9,231.6 495.9,232.5 C495.9,233.4 495.8,234.2 495.5,234.9 C495.3,235.6 494.9,236.2 494.4,236.7 C493.9,237.2 493.4,237.6 492.7,237.8 C492,238.1 491.3,238.2 490.5,238.2 C489.7,238.2 488.9,238.1 488.3,237.8 C487.6,237.5 487.1,237.1 486.6,236.7 C486.1,236.3 485.8,235.6 485.5,234.9 C485.3,234.2 485.1,233.4 485.1,232.5 C485.1,231.6 485.2,230.8 485.5,230.1 C485.8,229.4 486.1,228.8 486.6,228.3 C487.1,227.8 487.6,227.4 488.3,227.1 C488.9,226.8 489.6,226.7 490.5,226.7 Z M490.5,236.6 C491.6,236.6 492.4,236.2 493,235.5 C493.6,234.8 493.8,233.7 493.8,232.4 C493.8,231.1 493.5,230 493,229.3 C492.5,228.6 491.6,228.2 490.5,228.2 C489.9,228.2 489.5,228.3 489,228.5 C488.6,228.7 488.2,229 488,229.3 C487.8,229.6 487.5,230.1 487.4,230.6 C487.3,231.1 487.2,231.7 487.2,232.4 C487.2,233.7 487.5,234.7 488,235.5 C488.5,236.3 489.3,236.6 490.5,236.6 Z M500.1,228.5 C500.3,228.2 500.6,228 500.9,227.8 C501.2,227.6 501.5,227.4 501.8,227.2 C502.1,227 502.4,226.9 502.8,226.8 C503.2,226.7 503.5,226.7 503.9,226.7 C504.5,226.7 505,226.8 505.5,227 C506,227.2 506.4,227.5 506.7,227.9 C507,228.3 507.2,228.7 507.4,229.2 C507.6,229.7 507.6,230.3 507.6,230.9 L507.6,238 L505.6,238 L505.6,230.9 C505.6,230.1 505.4,229.4 505,228.9 C504.6,228.4 504,228.2 503.2,228.2 C502.6,228.2 502.1,228.3 501.6,228.6 C501.1,228.9 500.6,229.3 500.2,229.7 L500.2,237.9 L498.2,237.9 L498.2,226.8 L499.4,226.8 C499.7,226.8 499.9,226.9 499.9,227.2 L500.1,228.5 Z M512.4,228.5 C512.6,228.2 512.9,228 513.2,227.8 C513.5,227.6 513.8,227.4 514.1,227.2 C514.4,227 514.7,226.9 515.1,226.8 C515.5,226.7 515.8,226.7 516.2,226.7 C516.8,226.7 517.3,226.8 517.8,227 C518.3,227.2 518.7,227.5 519,227.9 C519.3,228.3 519.5,228.7 519.7,229.2 C519.9,229.7 519.9,230.3 519.9,230.9 L519.9,238 L517.9,238 L517.9,230.9 C517.9,230.1 517.7,229.4 517.3,228.9 C516.9,228.4 516.3,228.2 515.5,228.2 C514.9,228.2 514.4,228.3 513.9,228.6 C513.4,228.9 512.9,229.3 512.5,229.7 L512.5,237.9 L510.5,237.9 L510.5,226.8 L511.7,226.8 C512,226.8 512.2,226.9 512.2,227.2 L512.4,228.5 Z M528.8,233 C527.9,233 527.1,233.1 526.5,233.2 C525.9,233.3 525.3,233.5 524.9,233.6 C524.5,233.7 524.2,234 524,234.2 C523.8,234.4 523.7,234.7 523.7,235 C523.7,235.3 523.7,235.5 523.8,235.8 C523.9,236.1 524,236.2 524.2,236.3 C524.4,236.4 524.6,236.5 524.8,236.6 C525,236.7 525.3,236.7 525.5,236.7 C525.8,236.7 526.2,236.7 526.4,236.6 C526.7,236.5 527,236.4 527.2,236.3 C527.4,236.2 527.7,236 527.9,235.8 C528.1,235.6 528.4,235.4 528.6,235.2 L528.6,233 L528.8,233 Z M522.5,228.4 C523.1,227.8 523.8,227.4 524.5,227.1 C525.2,226.8 526,226.7 526.9,226.7 C527.5,226.7 528.1,226.8 528.6,227 C529.1,227.2 529.5,227.5 529.8,227.9 C530.1,228.3 530.4,228.7 530.5,229.2 C530.7,229.7 530.8,230.3 530.8,230.9 L530.8,238 L529.9,238 C529.7,238 529.6,238 529.5,237.9 C529.4,237.8 529.3,237.7 529.3,237.5 L529.1,236.4 C528.8,236.7 528.5,236.9 528.2,237.1 C527.9,237.3 527.6,237.5 527.3,237.6 C527,237.7 526.7,237.9 526.3,237.9 C525.9,237.9 525.6,238 525.1,238 C524.7,238 524.3,237.9 523.9,237.8 C523.5,237.7 523.2,237.5 522.9,237.3 C522.6,237.1 522.4,236.8 522.2,236.4 C522,236 522,235.6 522,235.1 C522,234.7 522.1,234.2 522.4,233.8 C522.7,233.4 523,233 523.6,232.7 C524.1,232.4 524.9,232.1 525.7,231.9 C526.6,231.7 527.6,231.6 528.9,231.6 L528.9,230.7 C528.9,229.8 528.7,229.2 528.3,228.7 C527.9,228.3 527.4,228 526.7,228 C526.2,228 525.8,228.1 525.5,228.2 C525.2,228.3 524.9,228.5 524.7,228.6 C524.5,228.7 524.3,228.9 524.1,229 C523.9,229.1 523.8,229.2 523.6,229.2 C523.5,229.2 523.4,229.2 523.3,229.1 C523.2,229 523.1,228.9 523.1,228.8 L522.5,228.4 Z" id="with-Dr-Nelson-_x26_-his" fill="#4E4E4E"></path>
                </g>
            </g>
        </g>
    </g>
</svg>