<?xml version="1.0" encoding="utf-8"?>
<!-- Generator: Adobe Illustrator 21.1.0, SVG Export Plug-In . SVG Version: 6.00 Build 0)  -->
<svg version="1.1" id="Layer_1" xmlns="http://www.w3.org/2000/svg" xmlns:xlink="http://www.w3.org/1999/xlink" x="0px" y="0px"
	 viewBox="0 0 632 194" style="enable-background:new 0 0 632 194;" xml:space="preserve">
<style type="text/css">
	.st0{fill:#444444;}
	.st1{fill:#157A9E;}
</style>
<title>Group 5</title>
<desc>Created with Sketch.</desc>
<g>
	<path class="st0" d="M596.7,191c-4.2,0-5.3-2.9-5.3-5.6c0-0.7,0.1-1.5,0.3-2.4c7.6-0.7,16.6-6.2,16.6-13c0-3.3-2.1-4.1-4.2-4.1
		c-7.2,0-15.5,9.5-16.8,17.2c-1.9,3.5-4.4,6.7-7,6.7c-1.5,0-2-1.1-2-2.3c0-2.8,2.5-7.6,2.5-11.2c0-2.3-1-4.3-3.8-4.3
		c-4.6,0-8.3,5.2-11.1,10.3c0.7-1.8,2.1-6,2.1-9.4c0-2.7-0.9-5.1-3.6-5.1c-4.8,0-10.5,7-14.1,12.7c1-3.3,1.7-6.4,1.7-7.6
		c0-1.1-0.6-1.7-1.8-1.7c-1.3,0-2.5,0.8-3.1,1.4c0,1.9-0.5,4.4-1.2,6.8c-3.8,7.5-7.2,10.1-10.2,10.1c-2.2,0-3.3-0.8-3.3-4
		c0-6.3,7-14.4,7-16.6c0-0.9-0.7-1.5-1.5-1.5c-3.2,0-6.6,6.7-8.4,12.4c-3.4,6.7-7.9,10.9-12.4,10.9c-2.7,0-3.8-1.5-3.8-5.4
		c0-4.8,1.6-9.8,3.7-14.6h1c3,0,6.9-0.3,11.8-0.8v-1.2c-3.4,0.3-6.6,0.4-9.6,0.4h-2.5c3.9-8.2,8.9-15.2,8.9-17.6
		c0-0.9-0.7-1.5-1.4-1.5c-2.7,0-7.9,9.2-11.7,18.8c-1.3-0.1-2.3-0.2-2.9-0.3v1.2c0.7,0.3,1.5,0.4,2.4,0.5
		c-2.3,6.1-3.9,12.2-3.9,16.1c0,4.4,2.1,6.6,6,6.6c5.1,0,9.9-3.7,13.3-9c-0.1,0.8-0.2,1.5-0.2,2.1c0,3.1,1.7,5.6,5.2,5.6
		c4,0,8-2.4,10.8-6.9c-1,2.9-1.8,5.2-1.8,5.6c0,0.7,2.3,1.4,3.6,1.4c3.3-9,11.3-19.6,15.2-19.6c1.2,0,1.7,1,1.7,2.5
		c0,4.7-4.2,14.2-4.2,15.4c0,0.9,2.3,1.3,3.4,1.3c0.9-1.8,1.8-4.1,3.2-6.2c4.2-6.4,6.6-10,8.8-10c1,0,1.9,0.7,1.9,2.4
		c0,2.6-2,6.2-2,9.5c0,2.7,1.3,4.9,4.5,4.9c3.5,0,6.4-2.7,8.7-6.2c0.3,4,3,7,8.1,7c6.6,0,13.6-5.2,17.2-13.2l-0.8-0.6
		C608.3,185.6,602.4,191,596.7,191z M603.9,168c1.1,0,1.4,0.5,1.4,1.5c0,5.8-8.6,10.5-13.3,12.2C593.8,175.3,599.6,168,603.9,168z"
		/>
	<path class="st0" d="M431.1,190.6c-2.7,0-3.8-1.5-3.8-5.4c0-4.8,1.6-9.8,3.7-14.6h1c3,0,6.9-0.3,11.8-0.8v-1.2
		c-3.3,0.3-6.6,0.4-9.6,0.4h-2.5c3.9-8.2,8.9-15.2,8.9-17.6c0-0.9-0.7-1.5-1.4-1.5c-2.7,0-7.9,9.2-11.7,18.8
		c-1.3-0.1-2.3-0.2-2.9-0.3v1.2c0.7,0.3,1.5,0.4,2.4,0.5c-1.3,3.5-2.4,7-3.1,10.1c-3.8,6.3-7.7,9.4-10,9.4c-1.6,0-2.3-1.6-2.3-2.9
		c0-3.2,3.9-7.8,3.9-9.3c0-1-1.9-1.5-2.7-1.7c-3.3,4.8-9.9,14.6-14.1,14.6c-1.2,0-1.8-0.8-1.8-2.6c0-6.5,7.5-19,13.8-19
		c2.4,0,3.3,1.7,3.3,3.8c0,0.7-0.1,1.6-0.3,2.3c1.9,0,3.3-0.7,3.3-2.9c0-3-2.6-5-6.1-5c-8.7,0-18.6,12.6-18.6,20.6
		c0,3.8,2.1,5.6,5,5.6c3.3,0,6.2-2.6,10.1-7.8c-0.1,0.7-0.2,1.4-0.2,1.9c0,2.3,1.5,4.7,4.8,4.7c3.8,0,8.2-3.2,11.3-8.1
		c-0.1,0.9-0.2,1.8-0.2,2.6c0,4.4,2.1,6.6,6,6.6c6.3,0,12.3-5.7,15.5-13.3l-0.9-0.7C440.4,186.2,435.7,190.6,431.1,190.6z"/>
	<path class="st0" d="M481.2,189.7c-1.6,0-2.3-1.6-2.3-2.9c0-3.2,3.9-7.8,3.9-9.3c0-1-1.9-1.5-2.7-1.7c-3.3,4.8-9.9,14.6-14.1,14.6
		c-1.2,0-1.8-0.8-1.8-2.6c0-6.5,7.5-19,13.8-19c2.4,0,3.3,1.7,3.3,3.8c0,0.7-0.1,1.6-0.3,2.3c1.9,0,3.3-0.7,3.3-2.9c0-3-2.6-5-6.1-5
		c-8.7,0-18.6,12.6-18.6,20.6c0,3.8,2.1,5.6,5,5.6c3.3,0,6.2-2.6,10.1-7.8c-0.1,0.7-0.2,1.4-0.2,1.9c0,2.3,1.5,4.7,4.8,4.7
		c4.8,0,10.5-5,13.3-12.2l-0.7-0.7C487.9,186.2,483.6,189.7,481.2,189.7z"/>
	<path class="st0" d="M541.3,161.1c2.1,0,4.4-1.9,4.4-3.6c0-1.5-0.9-2.1-2.2-2.1c-2.1,0-4.9,1.6-4.9,3.5
		C538.6,160.4,539.8,161.1,541.3,161.1z"/>
	<path class="st0" d="M255.8,17.1c0-5.6,6.3-14.7,14.7-14.7c2.9,0,3.8,1.1,3.8,2.9c0,3.9-4,10.3-4,14.1c0,1.5,0.6,2.5,2.2,2.9
		c2.1-3.4,5.2-9.8,5.2-14.7c0-3.8-1.8-6.7-7-6.7c-11.7,0-19.1,10.5-19.1,17.9c0,12,20.4,12.3,20.4,23.8c0,6.4-6.4,9.8-12.5,9.8
		c-7,0-10.3-4.4-10.3-9.4c0-3.1,1.3-6.4,3.7-9c-3.7,0-8.6,2-8.6,9c0,8.1,6.7,12,14,12c8.2,0,17.5-5,17.5-14.3
		C275.8,26.9,255.8,27.1,255.8,17.1z"/>
	<path class="st0" d="M355.5,43.3c-0.1,0.8-0.1,1.5-0.1,2.2c0,4.4,2.1,6.6,6,6.6c4.8,0,9.4-3.3,12.8-8.2c-0.1,0.5-0.1,1-0.1,1.4
		c0,3.4,1.9,5.8,5.4,5.8c4.7,0,8.9-4.6,11.7-11.1c1.3,3.1,3.8,4.7,6.3,4.7c1.3,0,2.7-0.4,4.1-1.7c-1.1,2.9-2.1,5.2-2.1,5.6
		c0.7,1,2.1,1.5,3.6,1.5c3.5-5.9,9.6-16.5,15.2-16.5c1.5,0,2.7,0.8,2.7,3.3c0,3.1-1.9,6.6-1.9,9.3c0,2.5,1.5,4.3,4.7,4.3
		c5,0,8.8-4.8,11.6-11.3l-0.7-0.9c-2.5,5-6,10.5-9.4,10.5c-1.1,0-2-0.7-2-2.5c0-3.3,2.7-6.4,2.7-10.6c0-3-1.5-6-5-6
		c-5.1,0-10.4,6.4-13.9,11.8c1.2-3.7,2.1-7.4,2.1-8.8c0-1.1-0.6-1.7-1.8-1.7c-1.3,0-2.5,0.8-3.1,1.4c0,2.1-0.6,4.7-1.4,7.2
		c-1.6,3-3.1,4.2-4.8,4.2c-2.3,0-4.7-2.1-4.7-5.6c0-3.6,2.6-6.8,2.6-8.4c0-0.8-0.6-2.6-2.3-2.6c-0.2,0-0.3,0-0.5,0.1
		c-0.4-0.8-1.2-1.4-2.9-1.4c-6.1,0-12.4,7.5-15,14.2c-3.3,6.2-7.7,10-12,10c-2.7,0-3.8-1.5-3.8-5.4c0-4.8,1.6-9.8,3.7-14.6h1
		c3,0,6.9-0.3,11.8-0.8v-1.2c-3.4,0.3-6.6,0.4-9.6,0.4H364c3.9-8.2,8.9-15.2,8.9-17.6c0-0.9-0.7-1.5-1.4-1.5
		c-2.7,0-7.9,9.2-11.7,18.8c-1.3-0.1-2.3-0.2-2.9-0.3v1.2c0.7,0.3,1.5,0.4,2.4,0.5c-1.4,3.6-2.5,7.3-3.2,10.5
		c-2.6,5.2-6.5,8.3-10.3,9.8C349,41.4,351,33,351,30.8c-0.5-0.1-1-0.2-1.4-0.2c-2.2,0-3.1,2.1-3.4,3.4c-0.2,1.1-0.4,2.1-0.7,3.1
		c-2.7,4.4-6.4,8.6-8.9,8.6c-1.8,0-2.4-1.1-2.4-2.7c0-3.6,2.9-10.9,4.4-13.1c0-0.8-2.4-1.5-2.9-1.5c-1.5,0-4.2,5.7-5.3,10.6
		c-3.9,6.6-8,9.8-10.3,9.8c-1.6,0-2.3-1.6-2.3-2.9c0-3.2,3.9-7.8,3.9-9.3c0-1-1.9-1.5-2.7-1.7c-3.3,4.8-9.9,14.6-14.1,14.6
		c-1.2,0-1.8-0.8-1.8-2.6c0-6.5,7.5-19,13.8-19c2.4,0,3.3,1.7,3.3,3.8c0,0.7-0.1,1.6-0.3,2.3c1.9,0,3.3-0.7,3.3-2.9c0-3-2.6-5-6.1-5
		c-7.1,0-14.9,8.3-17.6,15.7c-3.1,5-7,7.9-10.8,7.9c-2.7,0-3.8-1.5-3.8-5.4c0-4.8,1.6-9.8,3.7-14.6h1c3,0,6.9-0.3,11.8-0.8v-1.2
		c-3.3,0.3-6.6,0.4-9.6,0.4h-2.5c3.9-8.2,8.9-15.2,8.9-17.6c0-0.9-0.7-1.5-1.4-1.5c-2.7,0-7.9,9.2-11.7,18.8
		c-1.3-0.1-2.3-0.2-2.9-0.3v1.2c0.7,0.3,1.5,0.4,2.4,0.5c-2.3,6.1-3.9,12.2-3.9,16.1c0,4.4,2.1,6.6,6,6.6c4.3,0,8.6-2.7,11.8-6.9
		c-0.1,0.5-0.1,0.9-0.1,1.4c0,3.8,2.1,5.6,5,5.6c3.3,0,6.2-2.6,10.1-7.8c-0.1,0.7-0.2,1.4-0.2,1.9c0,2.3,1.5,4.7,4.8,4.7
		c4,0,8.6-3.4,11.6-8.8c0,0.2,0,0.5,0,0.7c0,3.8,2.7,5.4,5.4,5.4c3.6,0,6.9-3.8,9.8-8.5c-1.2,4.9-2.5,9-3.8,12.3
		c-6.8,3.4-13,6.4-13,12.1c0,2.3,1.9,3.6,4.2,3.6c4.6,0,9.2-7.8,12.7-16.4C348.8,49.7,352.9,47.1,355.5,43.3z M391.3,28
		c-0.7,1.1-1.3,3.1-1.3,6.1c0,1.5,0.1,2.7,0.4,3.8c-2.4,5.8-6.6,10.3-9.6,10.3c-1.6,0-2.5-1.3-2.5-3.4C378.3,39.8,383.7,28,391.3,28
		z M332.1,65.6c-1.3,0-1.8-1.3-1.8-2c0-4.4,4.7-7,10.3-9.9C336.9,62.5,333.4,65.6,332.1,65.6z"/>
	<path class="st0" d="M186,36.7c0,3.1-1.9,6.6-1.9,9.3c0,2.5,1.5,4.3,4.7,4.3c3.6,0,6.5-2.4,8.9-6.2c0.3,3.3,2.1,5.4,5,5.4
		c3.8,0,7.5-3.7,10.9-8.6c-1.1,4.4-2.2,8-3.4,11.1c-5.6,2.8-13.1,6.4-13.1,11.8c0,2.7,1.9,3.9,3.9,3.9c5,0,9.3-7.3,13.1-16.3
		c4.2-2,10.5-6.6,12.5-12.6l-0.9-0.7c-2,5.1-6.6,9.2-10.9,11.3c3.1-8,5.2-16.1,5.2-18.4c-0.5-0.1-1-0.2-1.4-0.2
		c-2.2,0-3.1,2.1-3.4,3.4l-0.8,3.6c-3.4,4.9-7.4,8.8-9.9,8.8c-1.4,0-2.3-1.1-2.3-3.3c0-5.6,6.4-15.2,13.5-15.2c1.3,0,2.2,0.3,2.7,1
		c0.2-0.1,0.8-0.5,0.8-1.3c0-1.1-1.1-2.1-3.6-2.1c-6.9,0-16.7,7.2-17.7,15.9c-2.2,3.7-4.9,6.9-7.5,6.9c-1.1,0-2-0.7-2-2.5
		c0-3.3,2.7-6.4,2.7-10.6c0-3-1.5-6-5-6c-5.1,0-10.4,6.4-13.9,11.8c1.2-3.7,2.1-7.4,2.1-8.8c0-1.1-0.6-1.7-1.8-1.7
		c-1.3,0-2.5,0.8-3.1,1.4c0,1.9-0.5,4.2-1.2,6.5c-3.7,7.3-7.2,9.9-10.1,9.9c-2.2,0-3.3-0.8-3.3-4c0-6.3,7-14.4,7-16.6
		c0-0.9-0.7-1.5-1.5-1.5c-3.1,0-6.5,6.5-8.3,12.2c-2.1,4.9-6.5,8.9-10.8,10.9c3.1-8,5.2-16.1,5.2-18.4c-0.5-0.1-1-0.2-1.4-0.2
		c-2.2,0-3.1,2.1-3.4,3.4l-0.8,3.6c-3.4,4.9-7.4,8.8-9.9,8.8c-1.4,0-2.3-1.1-2.3-3.3c0-5.6,6.4-15.2,13.5-15.2c1.3,0,2.2,0.3,2.7,1
		c0.2-0.1,0.8-0.5,0.8-1.3c0-1.1-1.1-2.1-3.6-2.1c-6.9,0-16.7,7.2-17.7,15.9c-2.2,3.7-4.9,6.9-7.5,6.9c-1.1,0-2-0.7-2-2.5
		c0-3.3,2.7-6.4,2.7-10.6c0-3-1.5-6-5-6c-5.1,0-10.4,6.4-13.9,11.8c1.2-3.7,2.1-7.4,2.1-8.8c0-1.1-0.6-1.7-1.8-1.7
		c-1.3,0-2.5,0.8-3.1,1.4c0,1.9-0.6,4.3-1.3,6.6c-3.9,6.7-8.1,10.1-10.4,10.1c-1.6,0-2.3-1.6-2.3-2.9c0-3.2,3.9-7.8,3.9-9.3
		c0-1-1.9-1.5-2.7-1.7c-3.3,4.8-9.9,14.6-14.1,14.6c-1.2,0-1.8-0.8-1.8-2.6c0-6.5,7.5-19,13.8-19c2.4,0,3.3,1.7,3.3,3.8
		c0,0.7-0.1,1.6-0.3,2.3c1.9,0,3.3-0.7,3.3-2.9c0-3-2.6-5-6.1-5c-7.1,0-14.9,8.3-17.6,15.7c-2.7,4.1-6.1,7.1-8.5,7.1
		c-1.1,0-2-0.7-2-2.5c0-3.3,2.9-7.1,2.9-11.3c0-2.9-1.4-6-5.1-6c-6,0-10.5,8.2-13.6,17.4c-0.1-0.6-0.1-1.3-0.1-2.3
		c0-3.6,0.8-9.2,2.5-13.2c7.9-4.8,15.4-19.3,15.4-25.5c0-1.8-0.6-4.2-2.2-4.2c-5,0-16.4,23-19.3,37.4c-3.6,7.5-11,14-18,14
		c-6.8,0-9.4-6.3-9.4-12.9c0-15.1,12.7-36.8,22.4-36.8c2.3,0,3.3,1.2,3.3,3c0,3.8-4.4,10.4-7.2,13.5c0.5,1.1,1.3,1.5,2.1,1.5
		c3.7,0,7.8-9,7.8-14.3c0-4.2-2.5-5.8-6.2-5.8c-12.7,0-27.5,20-27.5,37.7c0,8.2,3.7,16.3,13.2,16.3c7.9,0,14.5-5.6,19.1-13
		c-0.1,1-0.2,1.9-0.2,2.8c0,3.6,1.1,7,2.7,7c3.8,0,6.3-18.5,12.9-18.5c1.4,0,2.5,0.9,2.5,3.2c0,3.2-2.1,7.3-2.1,10.1
		c0,2.4,1.5,4.2,4.6,4.2c3.3,0,6.5-2.1,9.1-5.4c-0.1,0.5-0.1,0.9-0.1,1.3c0,3.8,2.1,5.6,5,5.6c3.3,0,6.2-2.6,10.1-7.8
		c-0.1,0.7-0.2,1.4-0.2,1.9c0,2.3,1.5,4.7,4.8,4.7c3.5,0,7.4-2.6,10.4-6.8c-0.9,2.3-1.6,4-1.6,4.4c0.7,1,2.1,1.5,3.6,1.5
		c3.5-5.9,9.6-16.5,15.2-16.5c1.5,0,2.7,0.8,2.7,3.3c0,3.1-1.9,6.6-1.9,9.3c0,2.5,1.5,4.3,4.7,4.3c3.6,0,6.5-2.4,8.9-6.2
		c0.3,3.3,2.1,5.4,5,5.4c3.8,0,7.5-3.7,10.9-8.6c-1.1,4.4-2.2,8-3.4,11.1c-5.6,2.8-13.1,6.4-13.1,11.8c0,2.7,1.9,3.9,3.9,3.9
		c5,0,9.3-7.3,13.1-16.3c3.2-1.5,7.6-4.5,10.4-8.6c-0.1,0.9-0.2,1.6-0.2,2.3c0,3.1,1.7,5.6,5.2,5.6c3.7,0,7.5-2.1,10.3-6.1
		c-0.8,2.1-1.4,3.6-1.4,3.9c0.7,1,2.1,1.5,3.6,1.5c3.5-5.9,9.6-16.5,15.2-16.5C184.9,33.5,186,34.3,186,36.7z M200.8,65.6
		c-0.9,0-1.6-0.9-1.6-2.3c0-3.8,5-6.7,10.3-9.4C205.8,62.5,202.5,65.6,200.8,65.6z M52.3,6.6c0.2,0,0.3,0.1,0.3,0.5
		c0,3.4-6.1,16.2-12.3,21.2C43.7,17.4,51,6.6,52.3,6.6z M127.1,65.6c-0.9,0-1.6-0.9-1.6-2.3c0-3.8,5-6.7,10.3-9.4
		C132.2,62.5,128.9,65.6,127.1,65.6z"/>
	<path class="st0" d="M163.8,20.1c2.1,0,4.4-1.9,4.4-3.6c0-1.5-0.9-2.1-2.2-2.1c-2.1,0-4.9,1.6-4.9,3.5
		C161,19.4,162.3,20.1,163.8,20.1z"/>
	<g>
		<path id="path-1_1_" class="st1" d="M57.7,76c22.4,0,36.8,13.1,36.8,33.4S80.1,143,57.7,143s-36.8-13.2-36.8-33.6S35.3,76,57.7,76
			z M57.7,97.1c-5.9,0-9.8,5-9.8,12.6s3.8,12.6,9.8,12.6s9.8-5,9.8-12.6S63.6,97.1,57.7,97.1z M149.3,75.7
			c-8.6,0-15.4,3.8-19.8,10.5v-9.3h-26.8V142h26.8v-32.2c0-6.3,3.3-10.5,8.6-10.5c4.6,0,7.7,3.5,7.7,8.9V142h26.8v-41.5
			C172.7,85.5,163,75.7,149.3,75.7z M213.9,76c22.7,0,36.1,15.5,34.6,39.5h-42.4c1.8,5.1,5.6,7.7,10.8,7.7c4.5,0,9.2-2,13.2-5.8
			l13.9,13.7c-6.9,7.6-16.9,11.9-29.5,11.9c-22.3,0-35.5-13.1-35.5-33.2C179.2,89.2,193,76,213.9,76z M221.8,103.1
			c0.4-5.4-3-9.3-7.6-9.3c-4.6,0-7.5,3.8-8.6,9.3H221.8z M330,100.5l8.8-16.5c-9.8-5.5-19.9-8.2-30.2-8.2
			c-17.4,0-28.7,8.8-28.7,22.5c0,22,33.1,19.5,33.1,25.2c0,1.2-1.5,1.9-4,1.9c-7.3,0-15.4-2.7-24-8.1l-8.1,16.7
			c9,6.2,19.8,9.3,31.8,9.3c18,0,29.5-8.7,29.5-22.1c0-21.9-33.8-19.5-33.8-25.6c0-1.3,1.4-2.1,3.7-2.1
			C313,93.3,320.4,95.7,330,100.5z M436.1,75.7c-9.8,0-17.1,5.1-21.3,13.9c-3.5-8.7-11.2-13.9-21.1-13.9c-8.4,0-15,3.8-19.4,10.4
			v-9.2h-26.8V142h26.8v-32.2c0-6.3,3.2-10.5,8.2-10.5c4.4,0,7.4,3.5,7.4,8.9V142h26.8v-32.2c0-6.3,3.2-10.5,8.2-10.5
			c4.4,0,7.4,3.5,7.4,8.9V142h26.8v-41.5C459.1,85.5,449.6,75.7,436.1,75.7z M483.9,47.8c-6.4,0-10.8,4.5-10.8,10.9
			c0,6.3,4.4,10.8,10.8,10.8s10.8-4.5,10.8-10.8C494.7,52.3,490.3,47.8,483.9,47.8z M470.4,76.9V142h26.8V76.9H470.4z M510.9,53.7
			V142h26.8V53.7H510.9z M581.3,76c22.7,0,36.1,15.5,34.6,39.5h-42.4c1.8,5.1,5.6,7.7,10.8,7.7c4.5,0,9.2-2,13.2-5.8l13.9,13.7
			c-6.9,7.6-16.9,11.9-29.5,11.9c-22.3,0-35.5-13.1-35.5-33.2C546.6,89.2,560.4,76,581.3,76z M589.2,103.1c0.4-5.4-3-9.3-7.6-9.3
			c-4.6,0-7.5,3.8-8.6,9.3H589.2z"/>
	</g>
</g>
</svg>
