<?xml version="1.0" encoding="utf-8"?>
<!-- Generator: Adobe Illustrator 21.1.0, SVG Export Plug-In . SVG Version: 6.00 Build 0)  -->
<svg version="1.1" id="Layer_1" xmlns="http://www.w3.org/2000/svg" xmlns:xlink="http://www.w3.org/1999/xlink" x="0px" y="0px"
	 viewBox="0 0 189.8 71.8" style="enable-background:new 0 0 189.8 71.8;" xml:space="preserve">
<style type="text/css">
	.st0{fill:#2E4A6F;}
	.st1{font-family:'Montserrat-Bold';}
	.st2{font-size:23.4075px;}
	.st3{font-size:18.726px;}
	.st4{fill:#FFFFFF;stroke:#231F20;stroke-width:0.5234;stroke-linejoin:round;stroke-miterlimit:10;}
	.st5{fill:#C5C7C9;}
	.st6{fill:#FFFFFF;stroke:#231F20;stroke-width:0.5234;stroke-linecap:round;stroke-linejoin:round;stroke-miterlimit:10;}
	.st7{fill:#6D6E70;stroke:#231F20;stroke-width:0.6542;stroke-linecap:round;stroke-linejoin:round;stroke-miterlimit:10;}
	.st8{fill:#231F20;stroke:#626366;stroke-width:0.7851;stroke-linecap:round;stroke-linejoin:round;stroke-miterlimit:10;}
	.st9{fill:#FFFFFF;}
	.st10{fill:none;stroke:#676767;stroke-width:0.7851;stroke-linecap:round;stroke-linejoin:round;stroke-miterlimit:10;}
	.st11{fill:none;stroke:#231F20;stroke-width:0.6542;stroke-linejoin:round;stroke-miterlimit:10;}
</style>
<title>Top Logo</title>
<desc>Created with Sketch.</desc>
<g id="Header" transform="translate(28.000000, -53.000000)">
	<g id="Top-Logo" transform="translate(0.000000, 79.000000)">
		<text transform="matrix(1 0 0 1 -26.1665 41.7321)" class="st0 st1 st2">B.C. Nelson,</text>
		<text transform="matrix(1 0 0 1 111.8887 41.7321)" class="st0 st1 st2"> </text>
		<text transform="matrix(1 0 0 1 117.8818 41.7321)" class="st0 st1 st3">DDS</text>
	</g>
</g>
<rect x="27.8" y="14.5" class="st4" width="134.5" height="28"/>
<rect x="28.4" y="20.1" class="st5" width="2.3" height="4.5"/>
<rect x="49.4" y="20.1" class="st5" width="3.5" height="4.5"/>
<rect x="72" y="20.1" class="st5" width="3.5" height="4.5"/>
<rect x="94.6" y="20.1" class="st5" width="3.5" height="4.5"/>
<rect x="116.9" y="20.1" class="st5" width="3.5" height="4.5"/>
<rect x="139.2" y="20.1" class="st5" width="3.5" height="4.5"/>
<rect x="161.5" y="20.1" class="st5" width="0.9" height="4.5"/>
<rect x="28.4" y="20.1" class="st5" width="133.5" height="2.3"/>
<rect x="43" y="21.3" class="st5" width="1" height="21.2"/>
<rect x="60.2" y="21.3" class="st5" width="1" height="21.2"/>
<rect x="77.4" y="21.3" class="st5" width="1" height="21.2"/>
<rect x="94.5" y="21.3" class="st5" width="1" height="21.2"/>
<rect x="111.7" y="21.3" class="st5" width="1" height="21.2"/>
<rect x="128.9" y="21.3" class="st5" width="1" height="21.2"/>
<rect x="146.1" y="21.3" class="st5" width="1" height="21.2"/>
<rect x="25.7" y="20.8" class="st6" width="4.1" height="2.7"/>
<rect x="48.1" y="20.8" class="st6" width="4.1" height="2.7"/>
<rect x="70.5" y="20.8" class="st6" width="4.1" height="2.7"/>
<rect x="93" y="20.8" class="st6" width="4.1" height="2.7"/>
<rect x="115.4" y="20.8" class="st6" width="4.1" height="2.7"/>
<rect x="137.8" y="20.8" class="st6" width="4.1" height="2.7"/>
<rect x="160.2" y="20.8" class="st6" width="4.1" height="2.7"/>
<polygon class="st7" points="162.8,4.2 27.5,4.2 21.8,20.8 168.3,20.8 "/>
<rect x="39.4" y="26.7" class="st8" width="111.2" height="10.8"/>
<g>
	<path class="st9" d="M56.7,37.1l-3.2-5.2l2.9-4.8c0.1-0.1,0-0.3-0.1-0.4c-0.1-0.1-0.3,0-0.4,0.1l-2.8,4.6L51.7,29l1.2-1.9
		c0.1-0.1,0-0.3-0.1-0.4c-0.1-0.1-0.3,0-0.4,0.1l-1,1.7l-1-1.7c-0.1-0.1-0.2-0.2-0.4-0.1c-0.1,0.1-0.2,0.2-0.1,0.4l1.2,1.9l-1.5,2.4
		l-2.8-4.6c-0.1-0.1-0.2-0.2-0.4-0.1c-0.1,0.1-0.2,0.2-0.1,0.4l2.9,4.8l-3.2,5.2c-0.1,0.1,0,0.3,0.1,0.4c0,0,0.1,0,0.1,0
		c0.1,0,0.2,0,0.2-0.1l3.1-5l1.5,2.4l-1.4,2.3c-0.1,0.1,0,0.3,0.1,0.4c0,0,0.1,0,0.1,0c0.1,0,0.2,0,0.2-0.1l1.3-2.1l1.3,2.1
		c0,0.1,0.1,0.1,0.2,0.1c0,0,0.1,0,0.1,0c0.1-0.1,0.2-0.2,0.1-0.4l-1.4-2.3l1.5-2.4l3.1,5c0,0.1,0.1,0.1,0.2,0.1c0,0,0.1,0,0.1,0
		C56.8,37.4,56.8,37.2,56.7,37.1z M51.4,34.3L50,31.9l1.5-2.4l1.5,2.4L51.4,34.3z"/>
	<path class="st9" d="M74.1,37.1l-3.2-5.2l2.9-4.8c0.1-0.1,0-0.3-0.1-0.4c-0.1-0.1-0.3,0-0.4,0.1l-2.8,4.6L69.2,29l1.2-1.9
		c0.1-0.1,0-0.3-0.1-0.4c-0.1-0.1-0.3,0-0.4,0.1l-1,1.7l-1-1.7c-0.1-0.1-0.2-0.2-0.4-0.1c-0.1,0.1-0.2,0.2-0.1,0.4l1.2,1.9l-1.5,2.4
		l-2.8-4.6c-0.1-0.1-0.2-0.2-0.4-0.1c-0.1,0.1-0.2,0.2-0.1,0.4l2.9,4.8l-3.2,5.2c-0.1,0.1,0,0.3,0.1,0.4c0,0,0.1,0,0.1,0
		c0.1,0,0.2,0,0.2-0.1l3.1-5l1.5,2.4l-1.4,2.3c-0.1,0.1,0,0.3,0.1,0.4c0,0,0.1,0,0.1,0c0.1,0,0.2,0,0.2-0.1l1.3-2.1l1.3,2.1
		c0,0.1,0.1,0.1,0.2,0.1c0,0,0.1,0,0.1,0c0.1-0.1,0.2-0.2,0.1-0.4l-1.4-2.3l1.5-2.4l3.1,5c0,0.1,0.1,0.1,0.2,0.1c0,0,0.1,0,0.1,0
		C74.2,37.4,74.2,37.2,74.1,37.1z M68.8,34.3l-1.5-2.4l1.5-2.4l1.5,2.4L68.8,34.3z"/>
	<path class="st9" d="M91.5,37.1l-3.2-5.2l2.9-4.8c0.1-0.1,0-0.3-0.1-0.4c-0.1-0.1-0.3,0-0.4,0.1L88,31.4L86.6,29l1.2-1.9
		c0.1-0.1,0-0.3-0.1-0.4c-0.1-0.1-0.3,0-0.4,0.1l-1,1.7l-1-1.7c-0.1-0.1-0.2-0.2-0.4-0.1c-0.1,0.1-0.2,0.2-0.1,0.4L86,29l-1.5,2.4
		l-2.8-4.6c-0.1-0.1-0.2-0.2-0.4-0.1c-0.1,0.1-0.2,0.2-0.1,0.4l2.9,4.8L81,37.1c-0.1,0.1,0,0.3,0.1,0.4c0,0,0.1,0,0.1,0
		c0.1,0,0.2,0,0.2-0.1l3.1-5l1.5,2.4l-1.4,2.3c-0.1,0.1,0,0.3,0.1,0.4c0,0,0.1,0,0.1,0c0.1,0,0.2,0,0.2-0.1l1.3-2.1l1.3,2.1
		c0,0.1,0.1,0.1,0.2,0.1c0,0,0.1,0,0.1,0c0.1-0.1,0.2-0.2,0.1-0.4l-1.4-2.3l1.5-2.4l3.1,5c0,0.1,0.1,0.1,0.2,0.1c0,0,0.1,0,0.1,0
		C91.6,37.4,91.6,37.2,91.5,37.1z M86.3,34.3l-1.5-2.4l1.5-2.4l1.5,2.4L86.3,34.3z"/>
	<path class="st9" d="M109,37.1l-3.2-5.2l2.9-4.8c0.1-0.1,0-0.3-0.1-0.4c-0.1-0.1-0.3,0-0.4,0.1l-2.8,4.6L104,29l1.2-1.9
		c0.1-0.1,0-0.3-0.1-0.4c-0.1-0.1-0.3,0-0.4,0.1l-1,1.7l-1-1.7c-0.1-0.1-0.2-0.2-0.4-0.1c-0.1,0.1-0.2,0.2-0.1,0.4l1.2,1.9l-1.5,2.4
		l-2.8-4.6c-0.1-0.1-0.2-0.2-0.4-0.1c-0.1,0.1-0.2,0.2-0.1,0.4l2.9,4.8l-3.2,5.2c-0.1,0.1,0,0.3,0.1,0.4c0,0,0.1,0,0.1,0
		c0.1,0,0.2,0,0.2-0.1l3.1-5l1.5,2.4l-1.4,2.3c-0.1,0.1,0,0.3,0.1,0.4c0,0,0.1,0,0.1,0c0.1,0,0.2,0,0.2-0.1l1.3-2.1l1.3,2.1
		c0,0.1,0.1,0.1,0.2,0.1c0,0,0.1,0,0.1,0c0.1-0.1,0.2-0.2,0.1-0.4l-1.4-2.3l1.5-2.4l3.1,5c0,0.1,0.1,0.1,0.2,0.1c0,0,0.1,0,0.1,0
		C109,37.4,109,37.2,109,37.1z M103.7,34.3l-1.5-2.4l1.5-2.4l1.5,2.4L103.7,34.3z"/>
	<path class="st9" d="M126.4,37.1l-3.2-5.2l2.9-4.8c0.1-0.1,0-0.3-0.1-0.4c-0.1-0.1-0.3,0-0.4,0.1l-2.8,4.6l-1.5-2.4l1.2-1.9
		c0.1-0.1,0-0.3-0.1-0.4c-0.1-0.1-0.3,0-0.4,0.1l-1,1.7l-1-1.7c-0.1-0.1-0.2-0.2-0.4-0.1c-0.1,0.1-0.2,0.2-0.1,0.4l1.2,1.9l-1.5,2.4
		l-2.8-4.6c-0.1-0.1-0.2-0.2-0.4-0.1c-0.1,0.1-0.2,0.2-0.1,0.4l2.9,4.8l-3.2,5.2c-0.1,0.1,0,0.3,0.1,0.4c0,0,0.1,0,0.1,0
		c0.1,0,0.2,0,0.2-0.1l3.1-5l1.5,2.4l-1.4,2.3c-0.1,0.1,0,0.3,0.1,0.4c0,0,0.1,0,0.1,0c0.1,0,0.2,0,0.2-0.1l1.3-2.1l1.3,2.1
		c0,0.1,0.1,0.1,0.2,0.1c0,0,0.1,0,0.1,0c0.1-0.1,0.2-0.2,0.1-0.4l-1.4-2.3l1.5-2.4l3.1,5c0,0.1,0.1,0.1,0.2,0.1c0,0,0.1,0,0.1,0
		C126.4,37.4,126.4,37.2,126.4,37.1z M121.1,34.3l-1.5-2.4l1.5-2.4l1.5,2.4L121.1,34.3z"/>
	<path class="st9" d="M143.8,37.1l-3.2-5.2l2.9-4.8c0.1-0.1,0-0.3-0.1-0.4c-0.1-0.1-0.3,0-0.4,0.1l-2.8,4.6l-1.5-2.4l1.2-1.9
		c0.1-0.1,0-0.3-0.1-0.4c-0.1-0.1-0.3,0-0.4,0.1l-1,1.7l-1-1.7c-0.1-0.1-0.2-0.2-0.4-0.1c-0.1,0.1-0.2,0.2-0.1,0.4l1.2,1.9l-1.5,2.4
		l-2.8-4.6c-0.1-0.1-0.2-0.2-0.4-0.1c-0.1,0.1-0.2,0.2-0.1,0.4l2.9,4.8l-3.2,5.2c-0.1,0.1,0,0.3,0.1,0.4c0,0,0.1,0,0.1,0
		c0.1,0,0.2,0,0.2-0.1l3.1-5l1.5,2.4l-1.4,2.3c-0.1,0.1,0,0.3,0.1,0.4c0,0,0.1,0,0.1,0c0.1,0,0.2,0,0.2-0.1l1.3-2.1l1.3,2.1
		c0,0.1,0.1,0.1,0.2,0.1c0,0,0.1,0,0.1,0c0.1-0.1,0.2-0.2,0.1-0.4l-1.4-2.3l1.5-2.4l3.1,5c0,0.1,0.1,0.1,0.2,0.1c0,0,0.1,0,0.1,0
		C143.8,37.4,143.9,37.2,143.8,37.1z M138.5,34.3l-1.5-2.4l1.5-2.4l1.5,2.4L138.5,34.3z"/>
</g>
<rect x="39.4" y="26.7" class="st10" width="111.2" height="10.8"/>
<polyline class="st11" points="27.8,23.5 27.8,42.2 162.3,42.2 162.3,23.5 "/>
</svg>
