<?xml version="1.0" encoding="utf-8"?>
<!-- Generator: Adobe Illustrator 21.1.0, SVG Export Plug-In . SVG Version: 6.00 Build 0)  -->
<svg version="1.1" id="Layer_1" xmlns="http://www.w3.org/2000/svg" xmlns:xlink="http://www.w3.org/1999/xlink" x="0px" y="0px"
	 viewBox="0 0 325 163" style="enable-background:new 0 0 325 163;" xml:space="preserve">
<style type="text/css">
	.st0{fill:#2E4A6F;}
	.st1{font-family:'Montserrat-Bold';}
	.st2{font-size:30px;}
	.st3{font-size:24px;}
	.st4{font-family:'Lato-Regular';}
	.st5{fill:#FFFFFF;stroke:#231F20;stroke-width:1.1534;stroke-linejoin:round;stroke-miterlimit:10;}
	.st6{fill:#C5C7C9;}
	.st7{fill:#FFFFFF;stroke:#231F20;stroke-width:1.1534;stroke-linecap:round;stroke-linejoin:round;stroke-miterlimit:10;}
	.st8{fill:#6D6E70;stroke:#231F20;stroke-width:1.4418;stroke-linecap:round;stroke-linejoin:round;stroke-miterlimit:10;}
	.st9{fill:#231F20;stroke:#626366;stroke-width:1.7301;stroke-linecap:round;stroke-linejoin:round;stroke-miterlimit:10;}
	.st10{fill:#FFFFFF;}
	.st11{fill:none;stroke:#676767;stroke-width:1.7301;stroke-linecap:round;stroke-linejoin:round;stroke-miterlimit:10;}
	.st12{fill:none;stroke:#231F20;stroke-width:1.4418;stroke-linejoin:round;stroke-miterlimit:10;}
</style>
<title>Logo Bottom</title>
<desc>Created with Sketch.</desc>
<g id="Page-1">
	<g id="Desktop-HD" transform="translate(-202.000000, -7375.000000)">
		<g id="Location" transform="translate(85.000000, 7369.000000)">
			<g id="Logo-Bottom" transform="translate(117.000000, 6.000000)">
				<g id="Group" transform="translate(41.000000, 100.000000)">
					<text transform="matrix(1 0 0 1 0 29)" class="st0 st1 st2">B.C. Nelson,</text>
					<text transform="matrix(1 0 0 1 176.9376 29)" class="st0 st1 st2"> </text>
					<text transform="matrix(1 0 0 1 193.59 29)" class="st0 st1 st3">DDS</text>
					<text transform="matrix(1 0 0 1 30 62)" class="st0 st4 st3">General Dentist</text>
				</g>
			</g>
		</g>
	</g>
</g>
<rect x="14.3" y="23.9" class="st5" width="296.4" height="61.7"/>
<rect x="15.7" y="36.4" class="st6" width="5" height="10"/>
<rect x="62.1" y="36.4" class="st6" width="7.8" height="10"/>
<rect x="111.8" y="36.4" class="st6" width="7.8" height="10"/>
<rect x="161.6" y="36.4" class="st6" width="7.8" height="10"/>
<rect x="210.8" y="36.4" class="st6" width="7.8" height="10"/>
<rect x="259.9" y="36.4" class="st6" width="7.8" height="10"/>
<rect x="309" y="36.4" class="st6" width="2" height="10"/>
<rect x="15.7" y="36.4" class="st6" width="294.2" height="5"/>
<rect x="47.8" y="38.9" class="st6" width="2.3" height="46.7"/>
<rect x="85.7" y="38.9" class="st6" width="2.3" height="46.7"/>
<rect x="123.6" y="38.9" class="st6" width="2.3" height="46.7"/>
<rect x="161.5" y="38.9" class="st6" width="2.3" height="46.7"/>
<rect x="199.3" y="38.9" class="st6" width="2.3" height="46.7"/>
<rect x="237.2" y="38.9" class="st6" width="2.3" height="46.7"/>
<rect x="275.1" y="38.9" class="st6" width="2.3" height="46.7"/>
<rect x="9.8" y="37.9" class="st7" width="9" height="6"/>
<rect x="59.2" y="37.9" class="st7" width="9" height="6"/>
<rect x="108.6" y="37.9" class="st7" width="9" height="6"/>
<rect x="158" y="37.9" class="st7" width="9" height="6"/>
<rect x="207.4" y="37.9" class="st7" width="9" height="6"/>
<rect x="256.8" y="37.9" class="st7" width="9" height="6"/>
<rect x="306.2" y="37.9" class="st7" width="9" height="6"/>
<polygon class="st8" points="312,1.2 13.8,1.2 1.1,37.9 324.1,37.9 "/>
<rect x="40" y="50.8" class="st9" width="245.1" height="23.8"/>
<g>
	<path class="st10" d="M78.1,73.8l-7.1-11.5l6.5-10.6c0.2-0.3,0.1-0.6-0.2-0.8c-0.3-0.2-0.6-0.1-0.8,0.2l-6.2,10.1l-3.2-5.2l2.6-4.2
		c0.2-0.3,0.1-0.6-0.2-0.8c-0.3-0.2-0.6-0.1-0.8,0.2l-2.3,3.7l-2.3-3.7c-0.2-0.3-0.5-0.4-0.8-0.2c-0.3,0.2-0.4,0.5-0.2,0.8l2.6,4.2
		l-3.2,5.2l-6.2-10.1c-0.2-0.3-0.5-0.4-0.8-0.2c-0.3,0.2-0.4,0.5-0.2,0.8l6.5,10.6l-7.1,11.5c-0.2,0.3-0.1,0.6,0.2,0.8
		c0.1,0.1,0.2,0.1,0.3,0.1c0.2,0,0.4-0.1,0.5-0.3l6.8-11l3.2,5.2l-3.2,5.2c-0.2,0.3-0.1,0.6,0.2,0.8c0.1,0.1,0.2,0.1,0.3,0.1
		c0.2,0,0.4-0.1,0.5-0.3l2.9-4.7l2.9,4.7c0.1,0.2,0.3,0.3,0.5,0.3c0.1,0,0.2,0,0.3-0.1c0.3-0.2,0.4-0.5,0.2-0.8l-3.2-5.2l3.2-5.2
		l6.8,11c0.1,0.2,0.3,0.3,0.5,0.3c0.1,0,0.2,0,0.3-0.1C78.2,74.4,78.3,74,78.1,73.8z M66.5,67.5l-3.2-5.2l3.2-5.2l3.2,5.2L66.5,67.5
		z"/>
	<path class="st10" d="M116.5,73.8l-7.1-11.5l6.5-10.6c0.2-0.3,0.1-0.6-0.2-0.8c-0.3-0.2-0.6-0.1-0.8,0.2l-6.2,10.1l-3.2-5.2
		l2.6-4.2c0.2-0.3,0.1-0.6-0.2-0.8c-0.3-0.2-0.6-0.1-0.8,0.2l-2.3,3.7l-2.3-3.7c-0.2-0.3-0.5-0.4-0.8-0.2c-0.3,0.2-0.4,0.5-0.2,0.8
		l2.6,4.2l-3.2,5.2l-6.2-10.1c-0.2-0.3-0.5-0.4-0.8-0.2c-0.3,0.2-0.4,0.5-0.2,0.8l6.5,10.6l-7.1,11.5c-0.2,0.3-0.1,0.6,0.2,0.8
		c0.1,0.1,0.2,0.1,0.3,0.1c0.2,0,0.4-0.1,0.5-0.3l6.8-11l3.2,5.2l-3.2,5.2c-0.2,0.3-0.1,0.6,0.2,0.8c0.1,0.1,0.2,0.1,0.3,0.1
		c0.2,0,0.4-0.1,0.5-0.3l2.9-4.7l2.9,4.7c0.1,0.2,0.3,0.3,0.5,0.3c0.1,0,0.2,0,0.3-0.1c0.3-0.2,0.4-0.5,0.2-0.8l-3.2-5.2l3.2-5.2
		l6.8,11c0.1,0.2,0.3,0.3,0.5,0.3c0.1,0,0.2,0,0.3-0.1C116.6,74.4,116.6,74,116.5,73.8z M104.9,67.5l-3.2-5.2l3.2-5.2l3.2,5.2
		L104.9,67.5z"/>
	<path class="st10" d="M154.9,73.8l-7.1-11.5l6.5-10.6c0.2-0.3,0.1-0.6-0.2-0.8c-0.3-0.2-0.6-0.1-0.8,0.2l-6.2,10.1l-3.2-5.2
		l2.6-4.2c0.2-0.3,0.1-0.6-0.2-0.8c-0.3-0.2-0.6-0.1-0.8,0.2l-2.3,3.7l-2.3-3.7c-0.2-0.3-0.5-0.4-0.8-0.2c-0.3,0.2-0.4,0.5-0.2,0.8
		l2.6,4.2l-3.2,5.2l-6.2-10.1c-0.2-0.3-0.5-0.4-0.8-0.2c-0.3,0.2-0.4,0.5-0.2,0.8l6.5,10.6l-7.1,11.5c-0.2,0.3-0.1,0.6,0.2,0.8
		c0.1,0.1,0.2,0.1,0.3,0.1c0.2,0,0.4-0.1,0.5-0.3l6.8-11l3.2,5.2l-3.2,5.2c-0.2,0.3-0.1,0.6,0.2,0.8c0.1,0.1,0.2,0.1,0.3,0.1
		c0.2,0,0.4-0.1,0.5-0.3l2.9-4.7l2.9,4.7c0.1,0.2,0.3,0.3,0.5,0.3c0.1,0,0.2,0,0.3-0.1c0.3-0.2,0.4-0.5,0.2-0.8l-3.2-5.2l3.2-5.2
		l6.8,11c0.1,0.2,0.3,0.3,0.5,0.3c0.1,0,0.2,0,0.3-0.1C154.9,74.4,155,74,154.9,73.8z M143.2,67.5l-3.2-5.2l3.2-5.2l3.2,5.2
		L143.2,67.5z"/>
	<path class="st10" d="M193.2,73.8l-7.1-11.5l6.5-10.6c0.2-0.3,0.1-0.6-0.2-0.8c-0.3-0.2-0.6-0.1-0.8,0.2l-6.2,10.1l-3.2-5.2
		l2.6-4.2c0.2-0.3,0.1-0.6-0.2-0.8c-0.3-0.2-0.6-0.1-0.8,0.2l-2.3,3.7l-2.3-3.7c-0.2-0.3-0.5-0.4-0.8-0.2c-0.3,0.2-0.4,0.5-0.2,0.8
		l2.6,4.2l-3.2,5.2l-6.2-10.1c-0.2-0.3-0.5-0.4-0.8-0.2c-0.3,0.2-0.4,0.5-0.2,0.8l6.5,10.6L170,73.8c-0.2,0.3-0.1,0.6,0.2,0.8
		c0.1,0.1,0.2,0.1,0.3,0.1c0.2,0,0.4-0.1,0.5-0.3l6.8-11l3.2,5.2l-3.2,5.2c-0.2,0.3-0.1,0.6,0.2,0.8c0.1,0.1,0.2,0.1,0.3,0.1
		c0.2,0,0.4-0.1,0.5-0.3l2.9-4.7l2.9,4.7c0.1,0.2,0.3,0.3,0.5,0.3c0.1,0,0.2,0,0.3-0.1c0.3-0.2,0.4-0.5,0.2-0.8l-3.2-5.2l3.2-5.2
		l6.8,11c0.1,0.2,0.3,0.3,0.5,0.3c0.1,0,0.2,0,0.3-0.1C193.3,74.4,193.4,74,193.2,73.8z M181.6,67.5l-3.2-5.2l3.2-5.2l3.2,5.2
		L181.6,67.5z"/>
	<path class="st10" d="M231.6,73.8l-7.1-11.5l6.5-10.6c0.2-0.3,0.1-0.6-0.2-0.8c-0.3-0.2-0.6-0.1-0.8,0.2l-6.2,10.1l-3.2-5.2
		l2.6-4.2c0.2-0.3,0.1-0.6-0.2-0.8c-0.3-0.2-0.6-0.1-0.8,0.2l-2.3,3.7l-2.3-3.7c-0.2-0.3-0.5-0.4-0.8-0.2c-0.3,0.2-0.4,0.5-0.2,0.8
		l2.6,4.2l-3.2,5.2l-6.2-10.1c-0.2-0.3-0.5-0.4-0.8-0.2c-0.3,0.2-0.4,0.5-0.2,0.8l6.5,10.6l-7.1,11.5c-0.2,0.3-0.1,0.6,0.2,0.8
		c0.1,0.1,0.2,0.1,0.3,0.1c0.2,0,0.4-0.1,0.5-0.3l6.8-11l3.2,5.2l-3.2,5.2c-0.2,0.3-0.1,0.6,0.2,0.8c0.1,0.1,0.2,0.1,0.3,0.1
		c0.2,0,0.4-0.1,0.5-0.3l2.9-4.7l2.9,4.7c0.1,0.2,0.3,0.3,0.5,0.3c0.1,0,0.2,0,0.3-0.1c0.3-0.2,0.4-0.5,0.2-0.8l-3.2-5.2l3.2-5.2
		l6.8,11c0.1,0.2,0.3,0.3,0.5,0.3c0.1,0,0.2,0,0.3-0.1C231.7,74.4,231.8,74,231.6,73.8z M220,67.5l-3.2-5.2L220,57l3.2,5.2L220,67.5
		z"/>
	<path class="st10" d="M270,73.8l-7.1-11.5l6.5-10.6c0.2-0.3,0.1-0.6-0.2-0.8c-0.3-0.2-0.6-0.1-0.8,0.2l-6.2,10.1l-3.2-5.2l2.6-4.2
		c0.2-0.3,0.1-0.6-0.2-0.8c-0.3-0.2-0.6-0.1-0.8,0.2l-2.3,3.7l-2.3-3.7c-0.2-0.3-0.5-0.4-0.8-0.2c-0.3,0.2-0.4,0.5-0.2,0.8l2.6,4.2
		l-3.2,5.2l-6.2-10.1c-0.2-0.3-0.5-0.4-0.8-0.2c-0.3,0.2-0.4,0.5-0.2,0.8l6.5,10.6l-7.1,11.5c-0.2,0.3-0.1,0.6,0.2,0.8
		c0.1,0.1,0.2,0.1,0.3,0.1c0.2,0,0.4-0.1,0.5-0.3l6.8-11l3.2,5.2l-3.2,5.2c-0.2,0.3-0.1,0.6,0.2,0.8c0.1,0.1,0.2,0.1,0.3,0.1
		c0.2,0,0.4-0.1,0.5-0.3l2.9-4.7l2.9,4.7c0.1,0.2,0.3,0.3,0.5,0.3c0.1,0,0.2,0,0.3-0.1c0.3-0.2,0.4-0.5,0.2-0.8l-3.2-5.2l3.2-5.2
		l6.8,11c0.1,0.2,0.3,0.3,0.5,0.3c0.1,0,0.2,0,0.3-0.1C270.1,74.4,270.1,74,270,73.8z M258.3,67.5l-3.2-5.2l3.2-5.2l3.2,5.2
		L258.3,67.5z"/>
</g>
<rect x="40" y="50.8" class="st11" width="245.1" height="23.8"/>
<polyline class="st12" points="14.3,43.9 14.3,85 310.7,85 310.7,43.9 "/>
</svg>
